<?xml version="1.0" encoding="utf-8"?>
<!-- Generator: Adobe Illustrator 19.2.0, SVG Export Plug-In . SVG Version: 6.00 Build 0)  -->
<svg version="1.1" id="FRONT" xmlns="http://www.w3.org/2000/svg" xmlns:xlink="http://www.w3.org/1999/xlink" x="0px" y="0px"
	 viewBox="0 0 500 300" style="enable-background:new 0 0 500 300;" xml:space="preserve">
<style type="text/css">
	.st0{fill:#273238;}
	.st1{fill:#F2CA26;}
	.st2{fill:#EE791B;}
	.st3{font-family:'ArialNarrow';}
	.st4{font-size:41.4484px;}
	.st5{font-size:30.9617px;}
	.st6{font-size:14.5702px;}
	.st7{fill:#FFFFFF;}
</style>
<g>
	<rect y="0.4" class="st0" width="502" height="299.4"/>
	<polygon class="st1" points="342.2,300 502.2,300 502.2,0.4 240.9,0.4 	"/>
</g>
<g>
	<path class="st2" d="M370.8,94.3c31.9-9.7,66.5,5.8,77.3,34.7c10.7,28.9-6.4,60.2-38.3,69.9s-66.5-5.8-77.3-34.7
		C321.7,135.4,338.9,104.1,370.8,94.3z"/>
	<g>
		<g>
			<g>
				<path class="st0" d="M415.2,165.4c5.4-6.6,7.2-15.5,4.2-23.9l-5.4-14.8c-0.4-1.1,0.2-2.2,1.4-2.5c1.2-0.4,2.4,0.2,2.8,1.3
					l5.4,14.8c4,10.6,1,21.9-6.6,29.7L415.2,165.4z"/>
				<path class="st0" d="M356.5,142.3c1.2-0.4,2.4,0.2,2.8,1.3l5.4,14.8c3.2,8.4,10.5,14.4,19.3,16.8l1.6,4.6
					c-11.5-2-21.3-9.3-25.4-20l-5.4-14.8C354.7,143.7,355.5,142.6,356.5,142.3z"/>
			</g>
			<path class="st0" d="M344.6,150.5c0.8,2.4,4.4,3.6,7.6,2.5l72.5-22c3.4-1.1,5.2-3.8,4.4-6.2l0,0c-0.8-2.4-4.4-3.6-7.6-2.5
				l-72.5,22C345.6,145.2,343.8,148.1,344.6,150.5L344.6,150.5z"/>
			<path class="st0" d="M400.4,172c4-1.3,7.6-3.5,10.3-6.2l3.4,9.3c0.8,2.2-0.4,4.6-2.8,5.3l-14.1,4.4c-2.4,0.7-5-0.5-5.8-2.7
				l-3.4-9.3C392.1,173.4,396.3,173.2,400.4,172z"/>
			<path class="st0" d="M350,104.2l11.7,31.5l45.3-13.8l-11.9-31.5c-4.2-11.3-17.7-17.3-30.2-13.5C352.4,80.5,345.8,92.7,350,104.2z
				 M393.9,119.7c-0.4-0.9,0.2-2,1.4-2.4c1-0.4,2.2,0.2,2.6,1.3c0.4,0.9-0.2,2-1.4,2.4C395.5,121.2,394.3,120.6,393.9,119.7z
				 M390.3,110c-0.4-0.9,0.2-2,1.4-2.4c1-0.4,2.2,0.2,2.6,1.3c0.4,0.9-0.2,2-1.4,2.4S390.7,111,390.3,110z M386.7,100.2
				c-0.4-0.9,0.2-2,1.4-2.4c1-0.4,2.2,0.2,2.6,1.3c0.4,0.9-0.2,2-1.4,2.4C388.3,101.8,387.1,101.3,386.7,100.2z M383.2,90.6
				c-0.4-0.9,0.2-2,1.4-2.4c1-0.4,2.2,0.2,2.6,1.3c0.4,0.9-0.2,2-1.4,2.4C384.7,92.2,383.4,91.6,383.2,90.6z M387.7,116.4
				c-0.4-0.9,0.2-2,1.4-2.4c1-0.4,2.2,0.2,2.6,1.3c0.4,0.9-0.2,2-1.4,2.4C389.3,117.9,388.1,117.3,387.7,116.4z M384,106.8
				c-0.4-0.9,0.2-2,1.4-2.4c1-0.4,2.2,0.2,2.6,1.3c0.4,0.9-0.2,2-1.4,2.4C385.7,108.2,384.4,107.7,384,106.8z M380.4,96.9
				c-0.4-0.9,0.2-2,1.4-2.4c1-0.4,2.2,0.2,2.6,1.3c0.4,0.9-0.2,2-1.4,2.4C382,98.6,380.8,98,380.4,96.9z M376.4,86
				c-0.4-0.9,0.2-2,1.4-2.4c1-0.4,2.2,0.2,2.6,1.3c0.4,0.9-0.2,2-1.4,2.4C378,87.6,376.8,87.1,376.4,86z M384.9,122.4
				c-0.4-0.9,0.2-2,1.4-2.4c1-0.4,2.2,0.2,2.6,1.3c0.4,0.9-0.2,2-1.4,2.4C386.5,123.9,385.3,123.3,384.9,122.4z M381.2,112.8
				c-0.4-0.9,0.2-2,1.4-2.4c1-0.4,2.2,0.2,2.6,1.3c0.4,0.9-0.2,2-1.4,2.4C382.8,114.2,381.6,113.7,381.2,112.8z M377.6,103.1
				c-0.4-0.9,0.2-2,1.4-2.4c1-0.4,2.2,0.2,2.6,1.3c0.4,0.9-0.2,2-1.4,2.4C379.2,104.6,378,104,377.6,103.1z M374,93.5
				c-0.4-0.9,0.2-2,1.4-2.4c1-0.4,2.2,0.2,2.6,1.3c0.4,0.9-0.2,2-1.4,2.4C375.6,94.9,374.4,94.4,374,93.5z M378.4,119.1
				c-0.4-0.9,0.2-2,1.4-2.4c1-0.4,2.2,0.2,2.6,1.3c0.4,1.1-0.2,2-1.4,2.4C380,120.6,378.8,120.2,378.4,119.1z M375,109.5
				c-0.4-0.9,0.2-2,1.4-2.4c1-0.4,2.2,0.2,2.6,1.3c0.4,0.9-0.2,2-1.4,2.4C376.4,111,375.2,110.4,375,109.5z M371.4,99.8
				c-0.4-0.9,0.2-2,1.4-2.4c1-0.4,2.2,0.2,2.6,1.3c0.4,0.9-0.2,2-1.4,2.4C372.8,101.3,371.6,100.8,371.4,99.8z M367.1,88.9
				c-0.4-0.9,0.2-2,1.4-2.4c1-0.4,2.2,0.2,2.6,1.3c0.4,0.9-0.2,2-1.4,2.4C368.7,90.4,367.5,89.8,367.1,88.9z M375.6,125.2
				c-0.4-0.9,0.2-2,1.4-2.4c1-0.4,2.2,0.2,2.6,1.3c0.4,0.9-0.2,2-1.4,2.4C377.2,126.8,376,126.3,375.6,125.2z M372,115.5
				c-0.4-0.9,0.2-2,1.4-2.4c1-0.4,2.2,0.2,2.6,1.3c0.4,0.9-0.2,2-1.4,2.4C373.6,117.1,372.4,116.6,372,115.5z M368.5,105.9
				c-0.4-0.9,0.2-2,1.4-2.4c1-0.4,2.2,0.2,2.6,1.3c0.4,0.9-0.2,2-1.4,2.4C370,107.3,368.7,106.8,368.5,105.9z M364.9,96.2
				c-0.4-0.9,0.2-2,1.4-2.4c1-0.4,2.2,0.2,2.6,1.3c0.4,0.9-0.2,2-1.4,2.4C366.3,97.7,365.1,97.1,364.9,96.2z M369.4,121.9
				c-0.4-0.9,0.2-2,1.4-2.4c1-0.4,2.2,0.2,2.6,1.3c0.4,0.9-0.2,2-1.4,2.4C371,123.5,369.8,123,369.4,121.9z M365.7,112.2
				c-0.4-0.9,0.2-2,1.4-2.4c1-0.4,2.2,0.2,2.6,1.3c0.4,0.9-0.2,2-1.4,2.4C367.3,113.9,366.1,113.3,365.7,112.2z M362.1,102.6
				c-0.4-0.9,0.2-2,1.4-2.4c1-0.4,2.2,0.2,2.6,1.3c0.4,0.9-0.2,2-1.4,2.4C363.7,104,362.5,103.7,362.1,102.6z M358.1,91.6
				c-0.4-0.9,0.2-2,1.4-2.4c1-0.4,2.2,0.2,2.6,1.3c0.4,0.9-0.2,2-1.4,2.4C359.7,93.1,358.5,92.6,358.1,91.6z M366.5,128.1
				c-0.4-0.9,0.2-2,1.4-2.4c1-0.4,2.2,0.2,2.6,1.3c0.4,0.9-0.2,2-1.4,2.4C368.1,129.5,366.9,129,366.5,128.1z M362.9,118.2
				c-0.4-0.9,0.2-2,1.4-2.4c1-0.4,2.2,0.2,2.6,1.3c0.4,0.9-0.2,2-1.4,2.4C364.5,119.9,363.3,119.3,362.9,118.2z M359.3,108.6
				c-0.4-0.9,0.2-2,1.4-2.4c1-0.4,2.2,0.2,2.6,1.3c0.4,0.9-0.2,2-1.4,2.4C360.9,110.2,359.7,109.7,359.3,108.6z M355.7,98.9
				c-0.4-0.9,0.2-2,1.4-2.4c1-0.4,2.2,0.2,2.6,1.3c0.4,0.9-0.2,2-1.4,2.4C357.3,100.6,356.1,100,355.7,98.9z"/>
			<path class="st0" d="M396.3,216.6c0.8,2.2,3.4,3.3,5.6,2.5l29-8.9c2.4-0.7,3.6-3.1,2.8-5.1v-0.2c-0.8-2.2-3.4-3.3-5.6-2.5
				l-29,8.9c-2.4,0.7-3.6,3.1-2.8,5.1V216.6z"/>
			<polygon class="st0" points="401.5,187.5 411.2,184.6 417.5,201.7 407.8,204.6 			"/>
			<path class="st0" d="M367.7,151.9l1.4,3.5c4.2,11.3,17.7,17.3,30.2,13.5c12.5-3.8,19.1-16,14.9-27.3l-1.4-3.5L367.7,151.9z
				 M392.1,162.3c-0.8-2,0.4-4.4,2.8-5.1c2.2-0.7,4.8,0.4,5.6,2.5c0.8,2-0.4,4.4-2.8,5.1C395.3,165.4,392.9,164.3,392.1,162.3z"/>
		</g>
		<g>
			<g>
				<g>
					<polygon class="st2" points="348.6,115.1 329.9,107.5 329.9,115.7 301.1,112 338.4,125.2 336.1,115 					"/>
				</g>
				<g>
					<polygon class="st2" points="383.4,232.6 373,248.6 382,249.6 375.2,275 393.5,242.6 381.8,243.9 					"/>
				</g>
				<g>
					<polygon class="st2" points="342.4,66.9 332.5,55 329.1,60.9 310.4,48.7 331.3,70.5 333.7,62.5 					"/>
				</g>
				<g>
					<polygon class="st2" points="442.2,159.2 458.5,164 453.5,169.1 473.4,181.6 442.2,170.5 450.1,165.4 					"/>
				</g>
				<g>
					<polygon class="st2" points="426.9,51.6 435.8,38.3 440.2,43.7 458.1,29 439.2,54.1 435.6,46.1 					"/>
				</g>
				<g>
					<g>
						<path class="st2" d="M418.8,98.2c2.9-0.8,5.7,0,6.3,1.7c0.6,1.7-1.3,3.8-4.1,4.6c-2.9,0.8-5.7,0-6.3-1.7
							C414.1,101,415.9,99,418.8,98.2z"/>
						<path class="st2" d="M418.5,83.1L418.5,83.1c0.6-0.2,1.2,0.2,1.2,0.5l5.2,15.8c0.2,0.5-0.2,1.1-0.6,1.1l0,0
							c-0.6,0.2-1.2-0.2-1.2-0.5l-5.2-15.8C417.5,83.8,417.9,83.3,418.5,83.1z"/>
						<path class="st2" d="M434.1,89.6c2.9-0.8,5.7,0,6.3,1.7c0.6,1.7-1.3,3.8-4.1,4.6c-2.9,0.8-5.7,0-6.3-1.7
							C429.4,92.4,431.2,90.4,434.1,89.6z"/>
						<path class="st2" d="M433.6,74.5L433.6,74.5c0.6-0.2,1.2,0.2,1.2,0.5l5.2,15.8c0.2,0.5-0.2,1.1-0.6,1.1l0,0
							c-0.6,0.2-1.2-0.2-1.2-0.5L433,75.6C432.8,75.3,433.2,74.7,433.6,74.5z"/>
						<path class="st2" d="M432.2,73.1l-14.3,6.2c-0.8,0.4-1.2,1.3-1,2l1.2,3.5c0.4,0.9,1.6,1.5,2.6,1.1l14.3-6.2
							c0.8-0.4,1.2-1.3,1-2l-1.2-3.5C434.2,73.3,433.2,72.7,432.2,73.1z"/>
					</g>
				</g>
				<g>
					<g>
						<path class="st2" d="M440.7,245.5c2.9-0.8,5.7,0,6.3,1.7c0.6,1.7-1.3,3.8-4.1,4.6s-5.7,0-6.3-1.7
							C436,248.3,437.9,246.3,440.7,245.5z"/>
						<path class="st2" d="M440.2,230.4L440.2,230.4c0.6-0.2,1.2,0.2,1.2,0.5l5.2,15.8c0.2,0.5-0.2,1.1-0.6,1.1l0,0
							c-0.6,0.2-1.2-0.2-1.2-0.5l-5.2-15.8C439.4,231.2,439.8,230.6,440.2,230.4z"/>
						<path class="st2" d="M456.1,237.1c2.9-0.8,5.7,0,6.3,1.7c0.6,1.7-1.3,3.8-4.1,4.6c-2.9,0.8-5.7,0-6.3-1.7
							C451.4,240,453.2,237.9,456.1,237.1z"/>
						<path class="st2" d="M455.5,221.9L455.5,221.9c0.6-0.2,1.2,0.2,1.2,0.5l5.2,15.8c0.2,0.5-0.2,1.1-0.6,1.1l0,0
							c-0.6,0.2-1.2-0.2-1.2-0.5l-5.2-15.8C454.7,222.6,454.9,222,455.5,221.9z"/>
						<path class="st2" d="M453.9,220.6l-14.3,6.2c-0.8,0.4-1.2,1.3-1,2l1.2,3.5c0.4,0.9,1.6,1.5,2.6,1.1l14.3-6.2
							c0.8-0.4,1.2-1.3,1-2l-1.2-3.5C456.1,220.6,454.9,220,453.9,220.6z"/>
					</g>
				</g>
				<g>
					<g>
						<path class="st2" d="M378.9,47.9c2.9-0.8,5.7-0.1,6.3,1.7c0.6,1.7-1.2,3.8-4.1,4.6c-2.9,0.8-5.7,0.1-6.3-1.7
							C374.2,50.8,376.1,48.7,378.9,47.9z"/>
						<path class="st2" d="M378.2,32.8L378.2,32.8c0.6-0.2,1.2,0.2,1.2,0.5l5.4,15.8c0.2,0.5-0.2,1.1-0.6,1.1l0,0
							c-0.6,0.2-1.2-0.2-1.2-0.5l-5.4-15.8C377.4,33.5,377.8,33,378.2,32.8z"/>
						<path class="st2" d="M384.7,27.2l-6.8,3.1c-0.8,0.4-1.2,1.3-1,2l0.8,2.2c0.4,0.9,1.6,1.5,2.6,0.9l6.8-3.1c0.8-0.4,1.2-1.3,1-2
							l-0.8-2.2C386.9,27.4,385.7,26.8,384.7,27.2z"/>
					</g>
				</g>
				<g>
					<g>
						<path class="st2" d="M360.8,211.6c2.9-0.8,5.7-0.1,6.3,1.7c0.6,1.7-1.2,3.8-4.1,4.6c-2.9,0.8-5.7,0.1-6.3-1.7
							C356.1,214.5,358,212.4,360.8,211.6z"/>
						<path class="st2" d="M360.3,196.6L360.3,196.6c0.6-0.2,1.2,0.2,1.2,0.5l5.4,15.8c0.2,0.5-0.2,1.1-0.6,1.1l0,0
							c-0.6,0.2-1.2-0.2-1.2-0.5l-5.4-15.8C359.5,197.3,359.7,196.7,360.3,196.6z"/>
						<path class="st2" d="M366.7,190.9l-6.8,3.1c-0.8,0.4-1.2,1.3-1,2l0.8,2.2c0.4,0.9,1.6,1.5,2.6,0.9l6.8-3.1
							c0.8-0.4,1.2-1.3,1-2l-0.8-2.2C369,190.9,367.7,190.5,366.7,190.9z"/>
					</g>
				</g>
			</g>
		</g>
	</g>
</g>
<text id="name" transform="matrix(1.1047 0 0 1 38.2275 84.6914)" class="st1 st3 st4">John Doe</text>
<text id="cname" transform="matrix(1.1047 0 0 1 38.2275 276.9131)" class="st1 st3 st5">Company Name</text>
<text id="desig" transform="matrix(1.1047 0 0 1 38.0894 108.186)" class="st2 st3 st6">Profession</text>
<text id="email" transform="matrix(1.1047 0 0 1 89.5967 156.9902)" class="st7 st3 st6">johndoe@email.com</text>
<text id="contact" transform="matrix(1.1047 0 0 1 89.5967 221.9033)" class="st7 st3 st6">9876543210</text>
<g>
	<ellipse class="st2" cx="52.1" cy="215.7" rx="13.9" ry="12.6"/>
	<path class="st0" d="M47.5,225.9c0.4,0.2,1,0.2,1.4,0c0.4,0,0.6,0,1-0.2c0.2,0,0.2-0.2,0.4-0.2c0.4-0.2,0.6-0.4,1-0.5
		c10.3-6.9,6.2-16.2,6.2-16.4c0,0,0,0,0-0.2c-0.4-0.7-1-1.3-1.8-1.8c0-0.4,0-0.7-0.4-0.7c-0.4-0.2-0.8,0-1,0.4l-2.6,6.4
		c-0.2,0.4,0,0.7,0.4,0.9c0.4,0.2,0.8,0,1-0.4c1,0.2,2.2,0,3-0.4c0,2.4-0.6,5.5-3.8,8.4c-0.4-0.9-1-1.5-1.8-2c0-0.4,0-0.7-0.4-0.7
		c-0.4-0.2-0.8,0-1,0.4l-2.6,6.4c-0.2,0.4,0,0.7,0.4,0.9C47.1,226.2,47.3,226.1,47.5,225.9z"/>
</g>
<g>
	<ellipse class="st2" cx="52.1" cy="154.3" rx="13.9" ry="12.6"/>
	<g>
		<ellipse class="st0" cx="52.1" cy="149.9" rx="5.2" ry="5.1"/>
		<path class="st0" d="M54.5,155.6c-0.8,0.5-1.6,0.7-2.6,0.7s-1.8-0.2-2.6-0.7c-2,1.1-3.6,4.2-4.2,7.1h13.5
			C58.4,159.8,56.8,156.7,54.5,155.6z"/>
	</g>
</g>
<path class="st1" d="M217.2,124.6c0,0.4-0.4,0.7-0.8,0.7H39c-0.4,0-0.8-0.4-0.8-0.7l0,0c0-0.4,0.4-0.7,0.8-0.7h177.5
	C217,124.1,217.2,124.2,217.2,124.6L217.2,124.6z"/>
</svg>
