<?xml version="1.0" encoding="utf-8"?>
<!-- Generator: Adobe Illustrator 19.2.0, SVG Export Plug-In . SVG Version: 6.00 Build 0)  -->
<svg version="1.1" id="Layer_1" xmlns="http://www.w3.org/2000/svg" xmlns:xlink="http://www.w3.org/1999/xlink" x="0px" y="0px"
	 viewBox="0 0 500 300" style="enable-background:new 0 0 500 300;" xml:space="preserve">
<style type="text/css">
	.st0{clip-path:url(#SVGID_2_);}
	.st1{fill:#FFFFFF;}
	.st2{fill:url(#SVGID_3_);}
	.st3{fill:url(#SVGID_4_);}
	.st4{fill:url(#SVGID_5_);}
	.st5{fill:url(#SVGID_6_);}
	.st6{fill:url(#SVGID_7_);}
	.st7{fill:url(#SVGID_8_);}
	.st8{fill:url(#SVGID_9_);}
	.st9{fill:url(#SVGID_10_);}
	.st10{font-family:'ArialMT';}
	.st11{font-size:29px;}
	.st12{font-size:15px;}
	.st13{font-size:12px;}
</style>
<g>
	<g>
		<defs>
			<rect id="SVGID_1_" width="500" height="300"/>
		</defs>
		<clipPath id="SVGID_2_">
			<use xlink:href="#SVGID_1_"  style="overflow:visible;"/>
		</clipPath>
		<g class="st0">
			<path class="st1" d="M250.7,281.4c0,0-78.2-95.5,22.7-62.2c100.7,33.3,28.8,99.9,28.8,99.9L250.7,281.4z"/>
			<g>
				
					<linearGradient id="SVGID_3_" gradientUnits="userSpaceOnUse" x1="181.0128" y1="32.4402" x2="358.4075" y2="32.4402" gradientTransform="matrix(1 0 0 -1 0 302)">
					<stop  offset="0" style="stop-color:#B62371"/>
					<stop  offset="1" style="stop-color:#652F8F"/>
				</linearGradient>
				<path class="st2" d="M356.4,258.6c7.5,14.4-5.5,38.8-40.1,47.4c-23.9,6.3-47.7,9.9-68.8,10.2c-20.2,0.4-37.5-2.4-50.2-8.1
					C177,299,174,280.5,197.8,261c29-23.4,80.5-43.2,114.1-37c19.1,3.5,30.1,12.6,39.3,23.7C353.5,251.1,355.3,254.8,356.4,258.6z"
					/>
			</g>
			<g>
				
					<linearGradient id="SVGID_4_" gradientUnits="userSpaceOnUse" x1="399.8678" y1="106.6903" x2="577.2625" y2="106.6903" gradientTransform="matrix(1 0 0 -1 0 302)">
					<stop  offset="0" style="stop-color:#B62371"/>
					<stop  offset="1" style="stop-color:#652F8F"/>
				</linearGradient>
				<path class="st3" d="M575.2,184.3c7.5,14.4-5.5,38.8-40.1,47.4c-23.9,6.3-47.7,9.9-68.8,10.2c-20.2,0.4-37.5-2.4-50.2-8.1
					c-20.1-9.2-23.2-27.7,0.6-47.1c29-23.3,80.5-43.2,114.1-37c19.1,3.5,30.1,12.6,39.3,23.7C572.4,176.9,574.1,180.6,575.2,184.3z"
					/>
			</g>
			<g>
				
					<linearGradient id="SVGID_5_" gradientUnits="userSpaceOnUse" x1="196.6234" y1="109.9024" x2="495.6917" y2="109.9024" gradientTransform="matrix(1 0 0 -1 0 302)">
					<stop  offset="0" style="stop-color:#1D76BB"/>
					<stop  offset="1" style="stop-color:#2A3B8F"/>
				</linearGradient>
				<path class="st4" d="M494.6,146.3c2.1,3.8,0.7,9.8-0.7,9.8c-69.9,0-152.2-26.7-209.8,28.1c-37,37-5.5,93.3,15.1,133.3
					c2.8,5.9,6.9,16.3,4.1,14.8c-75.4-17.8-127.5-117-98.7-194c28.8-77,119.3-99.2,190.6-80c39.8,10.3,76.8,34.1,96.2,72.1
					C494.8,136.5,496.1,142,494.6,146.3z"/>
			</g>
			<g>
				
					<linearGradient id="SVGID_6_" gradientUnits="userSpaceOnUse" x1="265.1425" y1="203.1506" x2="382.3239" y2="203.1506" gradientTransform="matrix(1 0 0 -1 0 302)">
					<stop  offset="0" style="stop-color:#F05B93"/>
					<stop  offset="1" style="stop-color:#D91F5D"/>
				</linearGradient>
				<path class="st5" d="M301.5,11.5c3.9-2.7,9.5-5.7,14.9-4.2c13.7,3,13.7,20.8,17.8,31.1c17.8,41.4,56.2,72.5,46.6,122.9
					c-2.8,11.9-12.3,40-27.5,25.2c-2.8-3-2.8-10.3-5.5-13.3c-26-31.1-78.2-38.5-82.3-87.4c-2.8-23.7,6.9-47.4,22.9-65.3
					C293,16.7,297.3,13.6,301.5,11.5z"/>
			</g>
			<g>
				
					<linearGradient id="SVGID_7_" gradientUnits="userSpaceOnUse" x1="-659.9706" y1="2592.9641" x2="-416.9243" y2="2592.9641" gradientTransform="matrix(-0.9765 0.2156 0.2156 0.9765 -632.8221 -2295.8174)">
					<stop  offset="0" style="stop-color:#F69321"/>
					<stop  offset="1" style="stop-color:#F15B2A"/>
				</linearGradient>
				<path class="st6" d="M350.5,208.6c-19.6-49.5-23.8-104.3-8.7-154.7c15.1-45.9,57.6-78.5,102.8-74.1
					c78.2,5.9,131.6,91.8,135.7,170.3c1.3,53.3-48,88.8-91.8,106.6c-42.5,16.3-93.3,10.3-124.2-28.1
					C359,222.8,354.4,216,350.5,208.6z"/>
			</g>
			<g>
				
					<linearGradient id="SVGID_8_" gradientUnits="userSpaceOnUse" x1="865.15" y1="962.0474" x2="1049.3462" y2="962.0474" gradientTransform="matrix(0.6834 0.7301 0.7301 -0.6834 -1051.9058 95.9415)">
					<stop  offset="0" style="stop-color:#B62371"/>
					<stop  offset="1" style="stop-color:#652F8F"/>
				</linearGradient>
				<path class="st7" d="M371.2,197.8c-4.6,15.8-30,22.2-59.5,0.8c-20.7-14.5-39.3-30.8-54-47.3c-14-15.8-24.1-31.2-28.8-45.1
					c-7.6-22.1,2.9-37.2,32.2-31.7c35.7,7,84.2,33.9,102.9,64.6c10.6,17.4,12,32.3,10.9,47.1C374.3,190.5,373.1,194.4,371.2,197.8z"
					/>
			</g>
			<g>
				
					<linearGradient id="SVGID_9_" gradientUnits="userSpaceOnUse" x1="486.8389" y1="78.9478" x2="664.2336" y2="78.9478" gradientTransform="matrix(1 0 0 -1 0 302)">
					<stop  offset="0" style="stop-color:#D91F5D"/>
					<stop  offset="1" style="stop-color:#9E2064"/>
				</linearGradient>
				<path class="st8" d="M662.2,212.1c7.5,14.4-5.5,38.8-40.1,47.4c-23.9,6.3-47.7,9.9-68.8,10.2c-20.2,0.4-37.5-2.4-50.2-8.1
					c-20.1-9.2-23.2-27.7,0.6-47.1c29-23.3,80.5-43.2,114.1-37c19.1,3.5,30.1,12.6,39.3,23.7C659.3,204.6,661.1,208.3,662.2,212.1z"
					/>
			</g>
			<g>
				
					<linearGradient id="SVGID_10_" gradientUnits="userSpaceOnUse" x1="473.8268" y1="139.9651" x2="651.2215" y2="139.9651" gradientTransform="matrix(1 0 0 -1 0 302)">
					<stop  offset="0" style="stop-color:#B62371"/>
					<stop  offset="1" style="stop-color:#652F8F"/>
				</linearGradient>
				<path class="st9" d="M649.2,151c7.5,14.4-5.5,38.8-40.1,47.4c-23.9,6.3-47.7,9.9-68.8,10.2c-20.2,0.4-37.5-2.4-50.2-8.1
					c-20.1-9.2-23.2-27.7,0.6-47.1c29-23.4,80.5-43.2,114.1-37c19.1,3.5,30.1,12.6,39.3,23.6C646.3,143.6,648.1,147.2,649.2,151z"/>
			</g>
		</g>
	</g>
</g>
<text id="name" transform="matrix(1 0 0 1 25.0601 135.0063)" class="st10 st11">JOHN DOE</text>
<text id="cname" transform="matrix(1 0 0 1 25.0602 49.0378)" class="st10 st11">COMPANY NAME</text>
<text id="desig" transform="matrix(1 0 0 1 25.0606 168.1646)" class="st10 st12">PROFESSION</text>
<text id="contact" transform="matrix(1 0 0 1 27.3357 253.436)" class="st10 st13">9876543210</text>
<text id="email" transform="matrix(1 0 0 1 27.2472 227.5183)" class="st10 st13">JOHN@DOE.COM</text>
</svg>
