<?xml version="1.0" encoding="utf-8"?>
<!-- Generator: Adobe Illustrator 19.2.0, SVG Export Plug-In . SVG Version: 6.00 Build 0)  -->
<svg version="1.1" id="Layer_3" xmlns="http://www.w3.org/2000/svg" xmlns:xlink="http://www.w3.org/1999/xlink" x="0px" y="0px"
	 viewBox="0 0 1920 1080" style="enable-background:new 0 0 1920 1080;" xml:space="preserve">
<g>
	<path d="M1358.5,755.5h-73.9V394.6h73.9V755.5z"/>
	<path d="M1603.1,753.9h-233.5v-74.3l143.9-208.8h-143.9V395h233.5v74.3l-143.9,208.8h143.9V753.9z"/>
	<path d="M1871.3,750.8h-210.2c-13.2,0-24.6-5.2-34.2-15.5c-9.5-10.4-14.3-22.7-14.3-37.1V447.3c0-14.4,4.8-26.8,14.3-37.1
		c9.5-10.4,20.9-15.6,34.2-15.6h210.2v75.2h-184.8V515h184.8v75.2h-184.8v85.3h184.8V750.8z"/>
	<g>
		<path d="M1271.9,394.6h-15.7v0.1H79.9h-1H64.1v359.2h14.7h1h1179.4v-0.1h12.6V394.6z M971.1,509.5c0,10.8-3.2,20.4-9.5,28.9
			c-6.3,8.5-14.4,14.2-24.3,17.3c9.9,3.1,17.9,8.9,24.3,17.3c6.3,8.5,9.5,18.1,9.5,28.9v136.3h-73.9V590.4h-134v147.8H606.8
			l-29.6-73.9H449.6l-29.6,73.9H127.3c-13.2,0-24.6-4.8-34.2-14.3c-7-7-11.4-15-13.3-23.9V448.5c1.9-9,6.3-16.9,13.3-23.9
			c8.3-8.3,18-13,29.1-14.1h215.2v69H152.8v189.4h184.8v68l130.6-326.4h90.7l130.6,326.4V410.5h238.3c11.1,1.1,20.8,5.8,29.1,14.1
			c9.5,9.5,14.3,20.9,14.3,34.2V509.5z M1210.8,738.2H977.5V410.5h238.3c11.1,1.1,20.8,5.8,29.1,14.1c5.1,5.1,8.8,10.7,11.2,16.8
			v265.7c-2.4,6.1-6.1,11.7-11.2,16.8C1235.4,733.4,1224,738.2,1210.8,738.2z"/>
		<polygon points="477.3,595 549.5,595 513.4,504.8 		"/>
		<rect x="763.3" y="479.5" width="134" height="41.6"/>
		<rect x="1051.4" y="479.5" width="134" height="189.4"/>
	</g>
</g>
</svg>
