<?xml version="1.0" ?><svg height="50" preserveAspectRatio="xMidYMid" viewBox="0 0 512 512" width="50" xmlns="http://www.w3.org/2000/svg" xmlns:xlink="http://www.w3.org/1999/xlink"><defs><style>
      .cls-1 {
        fill: #d3d3d3;
        fill-rule: evenodd;
      }
    </style></defs><path class="cls-1" d="M256.000,512.000 C114.615,512.000 0.000,397.385 0.000,256.000 C0.000,114.615 114.615,0.000 256.000,0.000 C397.385,0.000 512.000,114.615 512.000,256.000 C512.000,397.385 397.385,512.000 256.000,512.000 ZM176.000,128.000 C170.359,128.000 165.027,129.152 160.000,130.939 L160.000,208.000 L176.000,208.000 L176.000,128.000 ZM384.000,208.000 L384.000,184.000 L384.000,176.000 C384.000,149.490 362.510,128.000 336.000,128.000 L192.000,128.000 L192.000,208.000 L211.843,208.000 C223.473,197.296 238.948,190.706 256.000,190.706 C273.052,190.706 288.527,197.296 300.157,208.000 L368.000,208.000 L368.000,336.000 C368.000,353.673 353.673,368.000 336.000,368.000 L176.000,368.000 C158.327,368.000 144.000,353.673 144.000,336.000 L144.000,216.000 L144.000,208.000 L144.000,140.457 C134.247,149.243 128.000,161.840 128.000,176.000 L128.000,336.000 C128.000,362.510 149.490,384.000 176.000,384.000 L336.000,384.000 C362.510,384.000 384.000,362.510 384.000,336.000 L384.000,208.000 ZM207.274,264.000 C207.274,290.911 229.089,312.726 256.000,312.726 C282.911,312.726 304.726,290.911 304.726,264.000 C304.726,237.089 282.911,215.274 256.000,215.274 C229.089,215.274 207.274,237.089 207.274,264.000 ZM256.000,231.506 C273.946,231.506 288.495,246.054 288.495,264.000 C288.495,281.946 273.946,296.495 256.000,296.495 C238.054,296.495 223.505,281.946 223.505,264.000 C223.505,246.054 238.054,231.506 256.000,231.506 ZM344.000,192.000 L328.000,192.000 C319.164,192.000 312.000,184.837 312.000,176.000 L312.000,168.000 C312.000,159.164 319.164,152.000 328.000,152.000 L344.000,152.000 C352.837,152.000 360.000,159.164 360.000,168.000 L360.000,176.000 C360.000,184.837 352.837,192.000 344.000,192.000 Z"/></svg>