<?xml version="1.0" ?><svg height="50" preserveAspectRatio="xMidYMid" viewBox="0 0 512 512" width="50" xmlns="http://www.w3.org/2000/svg" xmlns:xlink="http://www.w3.org/1999/xlink"><defs><style>
      .cls-1 {
        fill: #d3d3d3;
        fill-rule: evenodd;
      }
    </style></defs><path class="cls-1" d="M256.000,512.000 C114.615,512.000 0.000,397.385 0.000,256.000 C0.000,114.615 114.615,0.000 256.000,0.000 C397.385,0.000 512.000,114.615 512.000,256.000 C512.000,397.385 397.385,512.000 256.000,512.000 ZM131.192,383.946 L188.450,383.946 L188.450,213.478 L131.192,213.478 L131.192,383.946 ZM159.928,128.053 C142.289,128.053 128.000,141.521 128.000,158.145 C128.000,174.754 142.289,188.204 159.928,188.204 C177.552,188.204 191.841,174.754 191.841,158.145 C191.841,141.521 177.552,128.053 159.928,128.053 ZM384.000,287.037 C384.000,219.713 345.448,208.104 321.731,208.104 C298.034,208.104 284.963,216.379 269.922,236.429 L269.922,213.478 L212.756,213.478 L212.756,383.946 L269.922,383.946 L269.922,291.313 C269.922,271.763 278.881,252.645 300.307,252.645 C321.731,252.645 326.997,271.763 326.997,290.846 L326.997,383.946 L384.000,383.946 L384.000,287.037 Z"/></svg>