<?xml version="1.0" ?><svg height="50" preserveAspectRatio="xMidYMid" viewBox="0 0 512 512" width="50" xmlns="http://www.w3.org/2000/svg" xmlns:xlink="http://www.w3.org/1999/xlink"><defs><style>
      .cls-1 {
        fill: #d3d3d3;
        fill-rule: evenodd;
      }
    </style></defs><path class="cls-1" d="M256.000,512.000 C114.615,512.000 0.000,397.385 0.000,256.000 C0.000,114.615 114.615,0.000 256.000,0.000 C397.385,0.000 512.000,114.615 512.000,256.000 C512.000,397.385 397.385,512.000 256.000,512.000 ZM215.957,128.005 L205.135,166.575 L204.029,166.575 L192.677,128.005 L175.062,128.005 L195.881,186.249 L195.881,224.474 L213.384,224.474 L213.384,184.443 L233.742,128.005 L215.957,128.005 ZM278.044,169.978 C278.044,164.566 275.978,160.126 271.894,156.686 C267.787,153.235 262.505,151.514 256.085,151.514 C249.020,151.514 243.412,153.148 239.214,156.416 C235.039,159.674 232.939,164.076 232.939,169.583 L232.939,206.481 C232.939,212.517 234.983,217.333 239.068,220.918 C243.141,224.493 248.581,226.281 255.373,226.281 C262.438,226.281 267.979,224.541 272.007,221.072 C276.025,217.601 278.044,212.825 278.044,206.731 L278.044,169.978 ZM335.561,153.312 L320.033,153.312 L320.033,207.327 C318.589,208.884 316.975,210.163 315.226,211.152 C313.488,212.162 312.044,212.662 310.892,212.662 C309.448,212.662 308.387,212.277 307.745,211.527 C307.090,210.768 306.763,209.556 306.763,207.866 L306.763,153.312 L291.236,153.312 L291.236,212.796 C291.236,217.025 292.127,220.216 293.955,222.331 C295.783,224.445 298.492,225.503 302.079,225.503 C305.003,225.503 308.004,224.753 311.096,223.234 C314.200,221.725 317.179,219.515 320.033,216.622 L320.033,224.474 L335.561,224.474 L335.561,153.312 ZM382.301,269.734 C382.301,252.549 365.735,238.602 345.333,238.602 C316.196,237.564 286.382,237.112 255.983,237.161 C225.582,237.112 195.768,237.564 166.632,238.602 C146.230,238.602 129.664,252.549 129.664,269.734 C128.446,283.343 127.904,296.963 127.961,310.572 C127.904,324.182 128.446,337.791 129.664,351.411 C129.664,368.596 146.230,382.542 166.632,382.542 C195.768,383.570 225.582,384.032 255.983,383.984 C286.382,384.032 316.196,383.570 345.333,382.542 C365.735,382.542 382.301,368.596 382.301,351.411 C383.520,337.791 384.062,324.182 384.006,310.572 C384.062,296.963 383.520,283.343 382.301,269.734 ZM339.555,358.322 C332.604,358.322 327.132,356.370 323.137,352.449 C319.142,348.537 317.144,343.155 317.144,336.311 L317.144,304.363 C317.144,298.193 319.334,293.157 323.724,289.264 C328.124,285.372 333.778,283.430 340.740,283.430 C347.838,283.430 353.301,285.227 357.113,288.831 C360.940,292.436 362.846,297.616 362.846,304.363 L362.846,322.481 L333.134,322.481 L333.134,335.907 C333.134,339.646 333.632,342.242 334.670,343.692 C335.696,345.144 337.434,345.874 339.917,345.874 C342.489,345.874 344.284,345.250 345.310,344.029 C346.349,342.798 346.856,340.098 346.856,335.907 L346.856,330.958 L362.846,330.958 L362.846,336.311 C362.846,343.607 360.895,349.095 357.002,352.794 C353.109,356.476 347.296,358.322 339.555,358.322 ZM346.856,311.437 L346.856,304.229 C346.856,301.249 346.315,299.115 345.244,297.828 C344.149,296.539 342.444,295.896 340.063,295.896 C337.604,295.896 335.832,296.539 334.748,297.828 C333.664,299.115 333.134,301.249 333.134,304.229 L333.134,311.437 L346.856,311.437 ZM291.224,357.303 C288.177,357.303 285.481,356.774 283.100,355.736 C280.718,354.698 278.496,353.092 276.464,350.920 L276.464,356.399 L260.779,356.399 L260.779,259.920 L276.464,259.920 L276.464,290.975 C278.552,288.802 280.775,287.159 283.133,286.034 C285.492,284.890 287.872,284.333 290.277,284.333 C295.186,284.333 298.954,285.852 301.527,288.899 C304.123,291.926 305.420,296.357 305.420,302.172 L305.420,341.655 C305.420,346.711 304.201,350.584 301.776,353.276 C299.349,355.957 295.828,357.303 291.224,357.303 ZM289.430,302.979 C289.430,300.567 288.878,298.750 287.772,297.501 C286.666,296.251 285.064,295.627 282.953,295.627 C281.848,295.627 280.741,295.867 279.669,296.337 C278.585,296.799 277.514,297.520 276.464,298.500 L276.464,342.857 C277.728,344.010 278.948,344.846 280.143,345.356 C281.317,345.874 282.580,346.115 283.901,346.115 C285.797,346.115 287.197,345.624 288.087,344.626 C288.990,343.616 289.430,341.982 289.430,339.713 L289.430,302.979 ZM230.086,348.537 C227.219,351.430 224.240,353.631 221.137,355.159 C218.045,356.668 215.043,357.427 212.132,357.427 C208.531,357.427 205.834,356.370 204.018,354.246 C202.190,352.122 201.276,348.950 201.276,344.712 L201.276,285.227 L216.815,285.227 L216.815,339.781 C216.815,341.473 217.142,342.694 217.785,343.444 C218.440,344.202 219.490,344.577 220.955,344.577 C222.096,344.577 223.529,344.077 225.288,343.087 C227.026,342.079 228.629,340.809 230.086,339.253 L230.086,285.227 L245.623,285.227 L245.623,356.399 L230.086,356.399 L230.086,348.537 ZM183.390,356.399 L165.887,356.399 L165.887,273.924 L147.787,273.924 L147.787,259.920 L201.491,259.920 L201.491,273.924 L183.390,273.924 L183.390,356.399 ZM255.339,213.939 C253.275,213.939 251.695,213.421 250.589,212.344 C249.472,211.277 248.929,209.768 248.929,207.808 L248.929,169.045 C248.929,167.488 249.517,166.239 250.712,165.287 C251.886,164.326 253.432,163.846 255.339,163.846 C257.394,163.846 259.041,164.326 260.305,165.287 C261.569,166.239 262.211,167.488 262.211,169.045 L262.211,207.808 C262.211,209.711 261.591,211.220 260.350,212.315 C259.109,213.402 257.439,213.939 255.339,213.939 Z"/></svg>