<?xml version="1.0" encoding="utf-8"?>
<!-- Generator: Adobe Illustrator 19.2.0, SVG Export Plug-In . SVG Version: 6.00 Build 0)  -->
<svg version="1.1" id="Layer_1" xmlns="http://www.w3.org/2000/svg" xmlns:xlink="http://www.w3.org/1999/xlink" x="0px" y="0px"
	 viewBox="0 0 500 300" style="enable-background:new 0 0 500 300;" xml:space="preserve">
<style type="text/css">
	.st0{clip-path:url(#SVGID_2_);}
	.st1{opacity:0.5;}
	.st2{fill:#C0BFBF;}
	.st3{opacity:0.1;}
	.st4{fill:#707173;}
</style>
<g>
	<defs>
		<rect id="SVGID_1_" width="500" height="298.7"/>
	</defs>
	<clipPath id="SVGID_2_">
		<use xlink:href="#SVGID_1_"  style="overflow:visible;"/>
	</clipPath>
	<g class="st0">
		<g class="st1">
			<g>
				<polygon class="st2" points="213.3,67.4 213.1,66.3 282.7,54.4 282.9,55.5 				"/>
			</g>
			<g>
				<path class="st2" d="M241.1,271.5l-6.2-79l-76.6-62.4L130,209.9l-1-0.4l28.8-81.3l77.8,63.4l141.8-44l-1.9,1.7L241.1,271.5z
					 M235.9,192.6l6,76.5l130.7-118.9L235.9,192.6z"/>
			</g>
			<g>
				<polygon class="st2" points="434.7,199.3 374.6,149.3 375.3,148.4 435.4,198.4 				"/>
			</g>
			<g>
				<polygon class="st2" points="241.7,373.4 241.3,372.3 398.4,310.3 433,251 434,251.6 399.2,311.2 399,311.3 				"/>
			</g>
			<g>
				<path class="st2" d="M205.8,468.3l-58.4-96H241v-102h1.1v102.1l140.8,21.8l-0.2,1.1l-140.9-21.8L205.8,468.3z M149.4,373.4
					l56.1,92.3l35.1-92.3H149.4z"/>
			</g>
			<g>
				<polygon class="st2" points="45.1,149.5 44.9,148.3 157.8,128.6 158,129.7 				"/>
			</g>
			<g>
				<polygon class="st2" points="148.6,373.5 148.2,373.4 21.1,322.6 44.5,147.9 45.3,148.4 129.6,209.1 234.7,191.7 212.9,68.1 
					157.8,130.2 118.4,28.8 88.1,-4.8 11.6,11 21.2,-81 22.3,-80.9 12.9,9.6 88.5,-6.1 119.4,28.3 158.1,128.1 213.6,65.6 
					236,192.7 235.4,192.8 129.3,210.3 129.1,210.1 45.4,149.9 22.3,321.8 148.3,372.2 241.3,269.7 241.5,269.7 433,250.8 
					434.5,198.4 522.5,175.5 480.6,55.5 392.9,43.4 375.3,150.1 374.6,149.3 282.2,55.2 282.2,-5.4 283.3,-5.4 283.3,54.7 
					374.6,147.7 392,42.1 392.5,42.2 481.4,54.4 524,176.3 435.6,199.3 434,251.9 433.6,251.9 241.8,270.8 				"/>
			</g>
			<g>
				<polygon class="st2" points="45.4,149.2 44.5,148.6 118,29 12.1,10.9 12.3,9.7 119.8,28.1 				"/>
			</g>
			<g>
				<path class="st2" d="M205.7,467.7l-0.2-0.1L74.2,409l74-36.7l0.5,1L76.9,409l128.8,57.4l176.6-72.1l15.8-83.2l-156.6-40.3
					l-0.1,0l0,0L20,323.2L129.3,209l112.2,60.7l193.1-71.2l45.2-141.7l-104.8,92.9l-0.3-0.2L212.3,67l0.5-0.6l68.6-71.3H88L87.8-5
					l-67-76.1L98.4-133L88.9-6h195.2l-70,72.7l160.7,81.5l107.3-95.1l-46.6,146.2l-0.3,0.1l-191.8,70.8l156,40.1l-16.2,84.9
					L205.7,467.7z M129.5,210.4L23.5,321.2l216.4-51.1L129.5,210.4z M22.6-80.9L87.8-6.8l9.3-124L22.6-80.9z"/>
			</g>
			<g>
				<polygon class="st2" points="119,29.1 118.8,28 282.7,-6 282.9,-4.9 				"/>
			</g>
		</g>
		<g class="st3">
			<g>
				<polygon class="st2" points="341.1,81.3 342.1,80.7 375.8,144.9 374.9,145.5 				"/>
			</g>
			<g>
				<path class="st2" d="M164.5,175.6l69.8-32.1L265.9,48L184,46.6l0-1.2l83.5,1.4l-32.1,97l86.7,124.4l-2.2-1.3L164.5,175.6z
					 M234.6,144.7l-67.6,31.1l151.3,88.9L234.6,144.7z"/>
			</g>
			<g>
				<polygon class="st2" points="293.9,341.6 319.6,266.2 320.7,266.6 294.9,342 				"/>
			</g>
			<g>
				<polygon class="st2" points="71.9,209.8 72.7,209.1 180.9,342.5 246.2,356.9 246,358 180.3,343.6 180.2,343.4 				"/>
			</g>
			<g>
				<path class="st2" d="M-26.4,205.9l68.2-88.7l30.8,91.6l92.9-33.6l0.4,1.1l-93,33.6l26.5,145.1l-1.1,0.2L71.8,210L-26.4,205.9z
					 M41.5,119.5l-65.6,85.3l95.6,4L41.5,119.5z"/>
			</g>
			<g>
				<polygon class="st2" points="211.1,-56.5 212,-57 267.2,47.1 266.2,47.7 				"/>
			</g>
			<g>
				<polygon class="st2" points="41.1,118.7 41.1,118.3 45.6,-22.9 212.3,-57.5 212.1,-56.6 184.6,45.9 235,143.2 340.4,81.1 
					265.7,47.6 345,-24.3 365.7,-65.1 326.1,-134.8 413.1,-155.7 413.3,-154.6 327.8,-134 366.9,-65.1 345.8,-23.5 267.7,47.2 
					342.9,80.9 234.5,144.7 234.3,144.2 183.4,46 183.5,45.8 210.8,-56 46.6,-22 42.2,117.9 166.1,175.2 166.2,175.4 246.4,356.8 
					294.6,341.1 344.5,419.7 440,339.1 422.1,249.3 319.2,267.2 319.6,266.2 374.9,144.8 430.1,124.8 430.5,125.9 375.8,145.7 
					321.1,265.7 423,247.9 423.1,248.5 441.2,339.6 344.2,421.4 294.2,342.4 245.8,358.2 245.6,357.7 165.3,176.1 				"/>
			</g>
			<g>
				<polygon class="st2" points="211.4,-56.2 211.7,-57.3 344.8,-24.7 326.4,-134.3 327.5,-134.5 346.2,-23.2 				"/>
			</g>
			<g>
				<path class="st2" d="M-25.8,205.5l0-0.2l10.1-147.8L42,117.9l-0.8,0.8l-56-58.6l-9.9,145L99.1,354.4l81-11.9l-14.9-166.6l0-0.1
					l0,0L44.6-23.8l140,69.5l-18.3,129.9l128.4,165.7l143.9-2.4l-119.1-72.1l0-0.4l21.6-186.2l0.7,0.3l87.5,43.7L365.7-65.2l0.1-0.2
					L413-156l72.8,58.8L367-64.7l64.2,191.2l-89.2-44.6l-21.4,184.2l121.9,73.8l-148.4,2.4l-0.2-0.2L166.4,177.5l14.8,166
					l-82.6,12.1L-25.8,205.5z M183.4,46.3L47.6-21.1l117.8,195.1L183.4,46.3z M413.4-154.3l-46,88.2l116-31.7L413.4-154.3z"/>
			</g>
			<g>
				<polygon class="st2" points="345,-23.7 345.9,-24.3 430.8,125.1 429.8,125.6 				"/>
			</g>
		</g>
		<g>
			<ellipse class="st4" cx="118.8" cy="28.7" rx="2.4" ry="2.5"/>
			<ellipse class="st4" cx="12.1" cy="9.7" rx="2.4" ry="2.5"/>
			<ellipse class="st4" cx="22.4" cy="-81" rx="1.6" ry="1.6"/>
			<ellipse class="st4" cx="98.3" cy="-130.8" rx="2.4" ry="2.5"/>
			<ellipse class="st4" cx="87.7" cy="-6" rx="1.2" ry="1.2"/>
			<ellipse class="st4" cx="158" cy="128.6" rx="2.4" ry="2.5"/>
			<ellipse class="st4" cx="213.2" cy="67.9" rx="3.6" ry="3.7"/>
			<ellipse class="st4" cx="283.2" cy="-6" rx="1.6" ry="1.6"/>
			<ellipse class="st4" cx="282.9" cy="54.4" rx="2.4" ry="2.5"/>
			<ellipse class="st4" cx="374.6" cy="148.2" rx="1.6" ry="1.6"/>
			<ellipse class="st4" cx="392.8" cy="42.8" rx="2.4" ry="2.5"/>
			<ellipse class="st4" cx="481.2" cy="54.4" rx="1.6" ry="1.6"/>
			<ellipse class="st4" cx="435.4" cy="198.3" rx="2.4" ry="2.5"/>
			<ellipse class="st4" cx="524" cy="176.4" rx="2.4" ry="2.5"/>
			<ellipse class="st4" cx="44.9" cy="148.7" rx="4.2" ry="4.4"/>
			<ellipse class="st4" cx="129.1" cy="209.5" rx="1.6" ry="1.6"/>
			<ellipse class="st4" cx="22.4" cy="322.1" rx="1.6" ry="1.6"/>
			<ellipse class="st4" cx="148.3" cy="372.6" rx="2.4" ry="2.5"/>
			<ellipse class="st4" cx="241.1" cy="270.3" rx="5.4" ry="5.6"/>
			<ellipse class="st4" cx="397.7" cy="310.8" rx="2.4" ry="2.5"/>
			<ellipse class="st4" cx="382.9" cy="395.1" rx="3.6" ry="3.7"/>
			<ellipse class="st4" cx="205.4" cy="466.8" rx="2.4" ry="2.5"/>
			<ellipse class="st4" cx="75.5" cy="408.5" rx="3.6" ry="3.7"/>
			<ellipse class="st4" cx="433" cy="251" rx="2.4" ry="2.5"/>
		</g>
	</g>
</g>
</svg>
