<?xml version="1.0" encoding="utf-8"?>
<!-- Generator: Adobe Illustrator 19.2.0, SVG Export Plug-In . SVG Version: 6.00 Build 0)  -->
<svg version="1.1" id="Layer_1" xmlns="http://www.w3.org/2000/svg" xmlns:xlink="http://www.w3.org/1999/xlink" x="0px" y="0px"
	 viewBox="0 0 500 300" style="enable-background:new 0 0 500 300;" xml:space="preserve">
<style type="text/css">
	.st0{opacity:0.54;}
	.st1{opacity:0.45;fill:#969696;enable-background:new    ;}
	.st2{opacity:0.509;fill:#969696;enable-background:new    ;}
	.st3{opacity:0.208;fill:#969696;enable-background:new    ;}
	.st4{opacity:0.417;fill:#969696;enable-background:new    ;}
	.st5{opacity:0.306;fill:#969696;enable-background:new    ;}
	.st6{opacity:0.326;fill:#969696;enable-background:new    ;}
	.st7{opacity:0.465;fill:#969696;enable-background:new    ;}
	.st8{opacity:0.314;fill:#969696;enable-background:new    ;}
	.st9{opacity:0.23;fill:#969696;enable-background:new    ;}
	.st10{opacity:0.28;fill:#969696;enable-background:new    ;}
	.st11{opacity:0.27;fill:#969696;enable-background:new    ;}
	.st12{opacity:0.21;fill:#969696;enable-background:new    ;}
	.st13{opacity:0.346;fill:#969696;enable-background:new    ;}
	.st14{opacity:0.488;fill:#969696;enable-background:new    ;}
	.st15{opacity:0.338;fill:#969696;enable-background:new    ;}
	.st16{opacity:0.319;fill:#969696;enable-background:new    ;}
	.st17{opacity:0.419;fill:#969696;enable-background:new    ;}
	.st18{opacity:0.579;fill:#969696;enable-background:new    ;}
	.st19{opacity:0.498;fill:#969696;enable-background:new    ;}
	.st20{opacity:0.445;fill:#969696;enable-background:new    ;}
	.st21{opacity:0.19;fill:#969696;enable-background:new    ;}
	.st22{opacity:0.31;fill:#969696;enable-background:new    ;}
	.st23{opacity:0.32;fill:#969696;enable-background:new    ;}
	.st24{opacity:0.134;fill:#969696;enable-background:new    ;}
	.st25{opacity:0.396;fill:#969696;enable-background:new    ;}
	.st26{opacity:0.129;fill:#969696;enable-background:new    ;}
	.st27{opacity:0.18;fill:#969696;enable-background:new    ;}
	.st28{opacity:0.37;fill:#969696;enable-background:new    ;}
	.st29{opacity:0.249;fill:#969696;enable-background:new    ;}
	.st30{opacity:0.126;fill:#969696;enable-background:new    ;}
	.st31{opacity:0.155;fill:#969696;enable-background:new    ;}
	.st32{opacity:0.17;fill:#969696;enable-background:new    ;}
	.st33{opacity:0.14;fill:#969696;enable-background:new    ;}
	.st34{opacity:0.26;fill:#969696;enable-background:new    ;}
	.st35{opacity:0.38;fill:#969696;enable-background:new    ;}
	.st36{opacity:0.22;fill:#969696;enable-background:new    ;}
	.st37{opacity:0.194;fill:#969696;enable-background:new    ;}
	.st38{opacity:0.315;fill:#969696;enable-background:new    ;}
	.st39{opacity:0.437;fill:#969696;enable-background:new    ;}
	.st40{opacity:0.378;fill:#969696;enable-background:new    ;}
	.st41{opacity:0.448;fill:#969696;enable-background:new    ;}
	.st42{opacity:0.159;fill:#969696;enable-background:new    ;}
	.st43{opacity:0.6;fill:#969696;enable-background:new    ;}
	.st44{opacity:0.229;fill:#969696;enable-background:new    ;}
	.st45{opacity:0.478;fill:#969696;enable-background:new    ;}
	.st46{opacity:0.195;fill:#969696;enable-background:new    ;}
	.st47{opacity:0.254;fill:#969696;enable-background:new    ;}
	.st48{opacity:0.3;fill:#969696;enable-background:new    ;}
	.st49{opacity:0.25;fill:#969696;enable-background:new    ;}
	.st50{opacity:0.145;fill:#969696;enable-background:new    ;}
	.st51{opacity:0.376;fill:#969696;enable-background:new    ;}
	.st52{opacity:0.198;fill:#969696;enable-background:new    ;}
	.st53{opacity:0.118;fill:#969696;enable-background:new    ;}
	.st54{opacity:0.569;fill:#969696;enable-background:new    ;}
	.st55{opacity:0.279;fill:#969696;enable-background:new    ;}
	.st56{opacity:0.278;fill:#969696;enable-background:new    ;}
	.st57{opacity:0.185;fill:#969696;enable-background:new    ;}
	.st58{opacity:0.13;fill:#969696;enable-background:new    ;}
	.st59{opacity:0.11;fill:#969696;enable-background:new    ;}
	.st60{opacity:0.104;fill:#969696;enable-background:new    ;}
	.st61{opacity:0.266;fill:#969696;enable-background:new    ;}
	.st62{opacity:0.207;fill:#969696;enable-background:new    ;}
	.st63{opacity:0.469;fill:#969696;enable-background:new    ;}
	.st64{opacity:0.339;fill:#969696;enable-background:new    ;}
	.st65{opacity:0.366;fill:#969696;enable-background:new    ;}
	.st66{opacity:0.41;fill:#969696;enable-background:new    ;}
	.st67{opacity:0.12;fill:#969696;enable-background:new    ;}
	.st68{opacity:0.16;fill:#969696;enable-background:new    ;}
	.st69{opacity:0.24;fill:#969696;enable-background:new    ;}
	.st70{opacity:0.389;fill:#969696;enable-background:new    ;}
	.st71{opacity:0.49;fill:#969696;enable-background:new    ;}
	.st72{opacity:0.559;fill:#969696;enable-background:new    ;}
	.st73{opacity:0.189;fill:#969696;enable-background:new    ;}
	.st74{opacity:0.196;fill:#969696;enable-background:new    ;}
	.st75{opacity:0.275;fill:#969696;enable-background:new    ;}
	.st76{opacity:0.39;fill:#969696;enable-background:new    ;}
	.st77{opacity:0.35;fill:#969696;enable-background:new    ;}
	.st78{opacity:0.295;fill:#969696;enable-background:new    ;}
	.st79{opacity:0.406;fill:#969696;enable-background:new    ;}
	.st80{opacity:0.247;fill:#969696;enable-background:new    ;}
	.st81{opacity:0.218;fill:#969696;enable-background:new    ;}
	.st82{opacity:0.308;fill:#969696;enable-background:new    ;}
	.st83{opacity:0.529;fill:#969696;enable-background:new    ;}
	.st84{opacity:0.54;fill:#969696;enable-background:new    ;}
	.st85{opacity:0.168;fill:#969696;enable-background:new    ;}
	.st86{opacity:0.157;fill:#969696;enable-background:new    ;}
	.st87{opacity:0.136;fill:#969696;enable-background:new    ;}
	.st88{opacity:0.294;fill:#969696;enable-background:new    ;}
	.st89{opacity:0.246;fill:#969696;enable-background:new    ;}
	.st90{opacity:0.347;fill:#969696;enable-background:new    ;}
	.st91{opacity:0.518;fill:#969696;enable-background:new    ;}
	.st92{opacity:0.589;fill:#969696;enable-background:new    ;}
	.st93{opacity:0.63;fill:#969696;enable-background:new    ;}
	.st94{opacity:0.179;fill:#969696;enable-background:new    ;}
	.st95{opacity:0.548;fill:#969696;enable-background:new    ;}
	.st96{opacity:0.228;fill:#969696;enable-background:new    ;}
	.st97{opacity:0.235;fill:#969696;enable-background:new    ;}
	.st98{opacity:0.36;fill:#969696;enable-background:new    ;}
	.st99{opacity:0.468;fill:#969696;enable-background:new    ;}
	.st100{opacity:0.499;fill:#969696;enable-background:new    ;}
	.st101{opacity:0.5;fill:#969696;enable-background:new    ;}
	.st102{opacity:0.269;fill:#969696;enable-background:new    ;}
	.st103{opacity:0.316;fill:#969696;enable-background:new    ;}
	.st104{opacity:0.234;fill:#969696;enable-background:new    ;}
	.st105{opacity:0.34;fill:#969696;enable-background:new    ;}
	.st106{opacity:0.184;fill:#969696;enable-background:new    ;}
	.st107{opacity:0.176;fill:#969696;enable-background:new    ;}
	.st108{opacity:0.287;fill:#969696;enable-background:new    ;}
	.st109{opacity:0.47;fill:#969696;enable-background:new    ;}
	.st110{opacity:0.449;fill:#969696;enable-background:new    ;}
	.st111{opacity:0.128;fill:#969696;enable-background:new    ;}
	.st112{opacity:0.2;fill:#969696;enable-background:new    ;}
	.st113{opacity:0.365;fill:#969696;enable-background:new    ;}
	.st114{opacity:0.387;fill:#969696;enable-background:new    ;}
	.st115{opacity:0.388;fill:#969696;enable-background:new    ;}
	.st116{opacity:0.508;fill:#969696;enable-background:new    ;}
	.st117{opacity:0.309;fill:#969696;enable-background:new    ;}
	.st118{opacity:0.149;fill:#969696;enable-background:new    ;}
	.st119{opacity:0.236;fill:#969696;enable-background:new    ;}
	.st120{opacity:0.225;fill:#969696;enable-background:new    ;}
	.st121{opacity:0.15;fill:#969696;enable-background:new    ;}
	.st122{opacity:0.539;fill:#969696;enable-background:new    ;}
	.st123{opacity:0.139;fill:#969696;enable-background:new    ;}
	.st124{opacity:0.409;fill:#969696;enable-background:new    ;}
	.st125{opacity:0.42;fill:#969696;enable-background:new    ;}
	.st126{opacity:0.61;fill:#969696;enable-background:new    ;}
	.st127{opacity:0.368;fill:#969696;enable-background:new    ;}
	.st128{opacity:0.206;fill:#969696;enable-background:new    ;}
	.st129{opacity:0.125;fill:#969696;enable-background:new    ;}
	.st130{opacity:0.186;fill:#969696;enable-background:new    ;}
	.st131{opacity:0.178;fill:#969696;enable-background:new    ;}
	.st132{opacity:0.109;fill:#969696;enable-background:new    ;}
	.st133{opacity:0.239;fill:#969696;enable-background:new    ;}
	.st134{opacity:0.244;fill:#969696;enable-background:new    ;}
	.st135{opacity:0.435;fill:#969696;enable-background:new    ;}
	.st136{opacity:0.156;fill:#969696;enable-background:new    ;}
	.st137{opacity:0.489;fill:#969696;enable-background:new    ;}
	.st138{opacity:0.549;fill:#969696;enable-background:new    ;}
	.st139{opacity:0.227;fill:#969696;enable-background:new    ;}
	.st140{opacity:0.256;fill:#969696;enable-background:new    ;}
	.st141{opacity:0.305;fill:#969696;enable-background:new    ;}
	.st142{opacity:0.165;fill:#969696;enable-background:new    ;}
	.st143{opacity:0.335;fill:#969696;enable-background:new    ;}
	.st144{opacity:0.259;fill:#969696;enable-background:new    ;}
	.st145{opacity:0.51;fill:#969696;enable-background:new    ;}
	.st146{opacity:0.177;fill:#969696;enable-background:new    ;}
	.st147{opacity:0.166;fill:#969696;enable-background:new    ;}
	.st148{opacity:0.276;fill:#969696;enable-background:new    ;}
	.st149{opacity:0.4;fill:#969696;enable-background:new    ;}
	.st150{opacity:0.426;fill:#969696;enable-background:new    ;}
	.st151{opacity:0.507;fill:#969696;enable-background:new    ;}
	.st152{opacity:0.298;fill:#969696;enable-background:new    ;}
	.st153{opacity:0.379;fill:#969696;enable-background:new    ;}
	.st154{opacity:0.459;fill:#969696;enable-background:new    ;}
	.st155{opacity:0.197;fill:#969696;enable-background:new    ;}
	.st156{opacity:0.325;fill:#969696;enable-background:new    ;}
	.st157{opacity:0.33;fill:#969696;enable-background:new    ;}
	.st158{opacity:0.385;fill:#969696;enable-background:new    ;}
	.st159{opacity:0.486;fill:#969696;enable-background:new    ;}
	.st160{opacity:0.116;fill:#969696;enable-background:new    ;}
	.st161{opacity:0.277;fill:#969696;enable-background:new    ;}
	.st162{opacity:0.359;fill:#969696;enable-background:new    ;}
	.st163{opacity:0.416;fill:#969696;enable-background:new    ;}
	.st164{opacity:0.395;fill:#969696;enable-background:new    ;}
	.st165{opacity:0.29;fill:#969696;enable-background:new    ;}
	.st166{opacity:0.336;fill:#969696;enable-background:new    ;}
	.st167{opacity:0.258;fill:#969696;enable-background:new    ;}
	.st168{opacity:0.53;fill:#969696;enable-background:new    ;}
	.st169{opacity:0.408;fill:#969696;enable-background:new    ;}
	.st170{opacity:0.386;fill:#969696;enable-background:new    ;}
	.st171{opacity:0.356;fill:#969696;enable-background:new    ;}
	.st172{opacity:0.127;fill:#969696;enable-background:new    ;}
	.st173{opacity:0.428;fill:#969696;enable-background:new    ;}
	.st174{opacity:0.458;fill:#969696;enable-background:new    ;}
	.st175{opacity:0.199;fill:#969696;enable-background:new    ;}
	.st176{opacity:0.479;fill:#969696;enable-background:new    ;}
	.st177{opacity:0.48;fill:#969696;enable-background:new    ;}
</style>
<g transform="translate(150,530) scale(1,1)" class="st0">
	<g id="all_2">
		<path class="st1" d="M-150.8-530.1h12.9v13.6h-12.9V-530.1z"/>
		<path class="st2" d="M-136.4-530.1h12.9v13.6h-12.9V-530.1z"/>
		<path class="st3" d="M-107.7-530.1h12.9v13.6h-12.9V-530.1z"/>
		<path class="st4" d="M-78.9-530.1H-66v13.6h-12.9V-530.1z"/>
		<path class="st5" d="M-64.6-530.1h12.9v13.6h-12.9V-530.1z"/>
		<path class="st6" d="M-50.2-530.1h12.9v13.6h-12.9V-530.1z"/>
		<path class="st7" d="M-35.8-530.1h12.9v13.6h-12.9V-530.1z"/>
		<path class="st8" d="M-7.1-530.1H5.8v13.6H-7.1V-530.1z"/>
		<path class="st9" d="M64.8-530.1h13v13.6h-13V-530.1z"/>
		<path class="st10" d="M93.6-530.1h12.9v13.6H93.6V-530.1z"/>
		<path class="st11" d="M151-530.1h12.9v13.6H151V-530.1z"/>
		<path class="st12" d="M179.8-530.1h12.9v13.6h-12.9V-530.1z"/>
		<path class="st13" d="M251.5-530.1h12.9v13.6h-12.9V-530.1z"/>
		<path class="st14" d="M280.4-530.1h12.9v13.6h-12.9V-530.1z"/>
		<path class="st15" d="M294.8-530.1h12.9v13.6h-12.9V-530.1z"/>
		<path class="st16" d="M309-530.1h12.9v13.6H309V-530.1z"/>
		<path class="st17" d="M323.5-530.1h12.9v13.6h-12.9V-530.1z"/>
		<path class="st18" d="M-136.4-515h12.9v13.6h-12.9V-515z"/>
		<path class="st19" d="M-93.3-515h12.9v13.6h-12.9V-515z"/>
		<path class="st6" d="M-50.2-515h12.9v13.6h-12.9V-515z"/>
		<path class="st20" d="M-21.4-515h12.9v13.6h-12.9C-21.5-501.4-21.5-515-21.4-515z"/>
		<path class="st10" d="M7.4-515h12.9v13.6H7.4V-515z"/>
		<path class="st21" d="M21.6-515h12.9v13.6H21.6V-515z"/>
		<path class="st22" d="M79.1-515H92v13.6H79.1V-515z"/>
		<path class="st22" d="M107.9-515h12.9v13.6h-12.9V-515z"/>
		<path class="st9" d="M165.4-515h12.9v13.6h-12.9V-515z"/>
		<path class="st23" d="M179.8-515h12.9v13.6h-12.9V-515z"/>
		<path class="st24" d="M194.1-515H207v13.6h-12.9V-515z"/>
		<path class="st25" d="M237.3-515h12.9v13.6h-12.9V-515z"/>
		<path class="st26" d="M309-515h12.9v13.6H309V-515z"/>
		<path class="st27" d="M337.9-515h12.9v13.6h-12.9V-515z"/>
		<path class="st28" d="M-150.8-499.9h12.9v13.6h-12.9V-499.9z"/>
		<path class="st29" d="M-122.1-499.9h12.9v13.6h-12.9V-499.9z"/>
		<path class="st30" d="M-50.2-499.9h12.9v13.6h-12.9V-499.9z"/>
		<path class="st31" d="M-21.4-499.9h12.9v13.6h-12.9C-21.5-486.3-21.5-499.9-21.4-499.9z"/>
		<path class="st32" d="M36.1-499.9h12.9v13.6H36.1V-499.9z"/>
		<path class="st33" d="M64.8-499.9h13v13.6h-13V-499.9z"/>
		<path class="st34" d="M136.6-499.9h12.9v13.6h-12.9V-499.9z"/>
		<path class="st35" d="M165.4-499.9h12.9v13.6h-12.9V-499.9z"/>
		<path class="st36" d="M179.8-499.9h12.9v13.6h-12.9V-499.9z"/>
		<path class="st37" d="M194.1-499.9H207v13.6h-12.9V-499.9z"/>
		<path class="st38" d="M208.5-499.9h12.9v13.6h-12.9V-499.9z"/>
		<path class="st30" d="M237.3-499.9h12.9v13.6h-12.9V-499.9z"/>
		<path class="st39" d="M266-499.9h12.9v13.6H266V-499.9z"/>
		<path class="st40" d="M280.4-499.9h12.9v13.6h-12.9V-499.9z"/>
		<path class="st41" d="M294.8-499.9h12.9v13.6h-12.9V-499.9z"/>
		<path class="st42" d="M323.5-499.9h12.9v13.6h-12.9V-499.9z"/>
		<path class="st43" d="M337.9-499.9h12.9v13.6h-12.9V-499.9z"/>
		<path class="st44" d="M-136.4-484.8h12.9v13.6h-12.9V-484.8z"/>
		<path class="st45" d="M-107.7-484.8h12.9v13.6h-12.9V-484.8z"/>
		<path class="st4" d="M-78.9-484.8H-66v13.6h-12.9V-484.8z"/>
		<path class="st46" d="M-21.4-484.8h12.9v13.6h-12.9C-21.5-471.2-21.5-484.8-21.4-484.8z"/>
		<path class="st47" d="M-7.1-484.8H5.8v13.6H-7.1V-484.8z"/>
		<path class="st35" d="M21.6-484.8h12.9v13.6H21.6V-484.8z"/>
		<path class="st12" d="M50.4-484.8h12.9v13.6H50.4V-484.8z"/>
		<path class="st48" d="M93.6-484.8h12.9v13.6H93.6V-484.8z"/>
		<path class="st22" d="M136.6-484.8h12.9v13.6h-12.9V-484.8z"/>
		<path class="st49" d="M179.8-484.8h12.9v13.6h-12.9V-484.8z"/>
		<path class="st50" d="M222.9-484.8h12.9v13.6h-12.9V-484.8z"/>
		<path class="st51" d="M237.3-484.8h12.9v13.6h-12.9V-484.8z"/>
		<path class="st6" d="M251.5-484.8h12.9v13.6h-12.9V-484.8z"/>
		<path class="st52" d="M280.4-484.8h12.9v13.6h-12.9V-484.8z"/>
		<path class="st53" d="M294.8-484.8h12.9v13.6h-12.9V-484.8z"/>
		<path class="st54" d="M309-484.8h12.9v13.6H309V-484.8z"/>
		<path class="st55" d="M-122.1-469.7h12.9v13.6h-12.9V-469.7z"/>
		<path class="st56" d="M-93.3-469.7h12.9v13.6h-12.9V-469.7z"/>
		<path class="st57" d="M-35.8-469.7h12.9v13.6h-12.9V-469.7z"/>
		<path class="st58" d="M64.8-469.7h13v13.6h-13V-469.7z"/>
		<path class="st9" d="M93.6-469.7h12.9v13.6H93.6V-469.7z"/>
		<path class="st59" d="M136.6-469.7h12.9v13.6h-12.9V-469.7z"/>
		<path class="st23" d="M151-469.7h12.9v13.6H151V-469.7z"/>
		<path class="st22" d="M179.8-469.7h12.9v13.6h-12.9V-469.7z"/>
		<path class="st60" d="M194.1-469.7H207v13.6h-12.9V-469.7z"/>
		<path class="st61" d="M237.3-469.7h12.9v13.6h-12.9V-469.7z"/>
		<path class="st62" d="M266-469.7h12.9v13.6H266V-469.7z"/>
		<path class="st9" d="M337.9-469.7h12.9v13.6h-12.9V-469.7z"/>
		<path class="st23" d="M-150.8-454.6h12.9v13.6h-12.9V-454.6z"/>
		<path class="st63" d="M-136.4-454.6h12.9v13.6h-12.9V-454.6z"/>
		<path class="st64" d="M-122.1-454.6h12.9v13.6h-12.9V-454.6z"/>
		<path class="st61" d="M-64.6-454.6h12.9v13.6h-12.9V-454.6z"/>
		<path class="st65" d="M-50.2-454.6h12.9v13.6h-12.9V-454.6z"/>
		<path class="st57" d="M-35.8-454.6h12.9v13.6h-12.9V-454.6z"/>
		<path class="st66" d="M7.4-454.6h12.9v13.6H7.4V-454.6z"/>
		<path class="st67" d="M64.8-454.6h13v13.6h-13V-454.6z"/>
		<path class="st68" d="M79.1-454.6H92v13.6H79.1V-454.6z"/>
		<path class="st36" d="M107.9-454.6h12.9v13.6h-12.9V-454.6z"/>
		<path class="st69" d="M122.3-454.6h12.9v13.6h-12.9V-454.6z"/>
		<path class="st49" d="M151-454.6h12.9v13.6H151V-454.6z"/>
		<path class="st69" d="M165.4-454.6h12.9v13.6h-12.9V-454.6z"/>
		<path class="st37" d="M194.1-454.6H207v13.6h-12.9V-454.6z"/>
		<path class="st57" d="M208.5-454.6h12.9v13.6h-12.9V-454.6z"/>
		<path class="st30" d="M237.3-454.6h12.9v13.6h-12.9V-454.6z"/>
		<path class="st70" d="M309-454.6h12.9v13.6H309V-454.6z"/>
		<path class="st18" d="M323.5-454.6h12.9v13.6h-12.9V-454.6z"/>
		<path class="st71" d="M337.9-454.6h12.9v13.6h-12.9V-454.6z"/>
		<path class="st34" d="M-150.8-439.6h12.9v13.6h-12.9V-439.6z"/>
		<path class="st72" d="M-136.4-439.6h12.9v13.6h-12.9V-439.6z"/>
		<path class="st73" d="M-122.1-439.6h12.9v13.6h-12.9V-439.6z"/>
		<path class="st74" d="M-50.2-439.6h12.9v13.6h-12.9V-439.6z"/>
		<path class="st75" d="M-21.4-439.6h12.9v13.6h-12.9C-21.5-426-21.5-439.6-21.4-439.6z"/>
		<path class="st60" d="M-7.1-439.6H5.8v13.6H-7.1V-439.6z"/>
		<path class="st32" d="M21.6-439.6h12.9v13.6H21.6V-439.6z"/>
		<path class="st76" d="M36.1-439.6h12.9v13.6H36.1V-439.6z"/>
		<path class="st66" d="M64.8-439.6h13v13.6h-13V-439.6z"/>
		<path class="st12" d="M79.1-439.6H92v13.6H79.1V-439.6z"/>
		<path class="st58" d="M93.6-439.6h12.9v13.6H93.6V-439.6z"/>
		<path class="st32" d="M107.9-439.6h12.9v13.6h-12.9V-439.6z"/>
		<path class="st77" d="M122.3-439.6h12.9v13.6h-12.9V-439.6z"/>
		<path class="st11" d="M151-439.6h12.9v13.6H151V-439.6z"/>
		<path class="st78" d="M222.9-439.6h12.9v13.6h-12.9V-439.6z"/>
		<path class="st79" d="M251.5-439.6h12.9v13.6h-12.9V-439.6z"/>
		<path class="st80" d="M266-439.6h12.9v13.6H266V-439.6z"/>
		<path class="st81" d="M280.4-439.6h12.9v13.6h-12.9V-439.6z"/>
		<path class="st82" d="M294.8-439.6h12.9v13.6h-12.9V-439.6z"/>
		<path class="st83" d="M309-439.6h12.9v13.6H309V-439.6z"/>
		<path class="st84" d="M337.9-439.6h12.9v13.6h-12.9V-439.6z"/>
		<path class="st67" d="M-150.8-424.5h12.9v13.6h-12.9V-424.5z"/>
		<path class="st42" d="M-122.1-424.5h12.9v13.6h-12.9V-424.5z"/>
		<path class="st85" d="M-107.7-424.5h12.9v13.6h-12.9V-424.5z"/>
		<path class="st86" d="M-78.9-424.5H-66v13.6h-12.9V-424.5z"/>
		<path class="st87" d="M-64.6-424.5h12.9v13.6h-12.9V-424.5z"/>
		<path class="st35" d="M36.1-424.5h12.9v13.6H36.1V-424.5z"/>
		<path class="st32" d="M79.1-424.5H92v13.6H79.1V-424.5z"/>
		<path class="st77" d="M93.6-424.5h12.9v13.6H93.6V-424.5z"/>
		<path class="st49" d="M107.9-424.5h12.9v13.6h-12.9V-424.5z"/>
		<path class="st22" d="M165.4-424.5h12.9v13.6h-12.9V-424.5z"/>
		<path class="st88" d="M194.1-424.5H207v13.6h-12.9V-424.5z"/>
		<path class="st89" d="M251.5-424.5h12.9v13.6h-12.9V-424.5z"/>
		<path class="st90" d="M266-424.5h12.9v13.6H266V-424.5z"/>
		<path class="st85" d="M280.4-424.5h12.9v13.6h-12.9V-424.5z"/>
		<path class="st91" d="M294.8-424.5h12.9v13.6h-12.9V-424.5z"/>
		<path class="st92" d="M309-424.5h12.9v13.6H309V-424.5z"/>
		<path class="st70" d="M323.5-424.5h12.9v13.6h-12.9V-424.5z"/>
		<path class="st93" d="M-150.8-409.4h12.9v13.6h-12.9V-409.4z"/>
		<path class="st94" d="M-122.1-409.4h12.9v13.6h-12.9V-409.4z"/>
		<path class="st95" d="M-107.7-409.4h12.9v13.6h-12.9V-409.4z"/>
		<path class="st96" d="M-93.3-409.4h12.9v13.6h-12.9V-409.4z"/>
		<path class="st97" d="M-35.8-409.4h12.9v13.6h-12.9V-409.4z"/>
		<path class="st37" d="M-7.1-409.4H5.8v13.6H-7.1V-409.4z"/>
		<path class="st98" d="M64.8-409.4h13v13.6h-13V-409.4z"/>
		<path class="st28" d="M107.9-409.4h12.9v13.6h-12.9V-409.4z"/>
		<path class="st77" d="M122.3-409.4h12.9v13.6h-12.9V-409.4z"/>
		<path class="st34" d="M165.4-409.4h12.9v13.6h-12.9V-409.4z"/>
		<path class="st6" d="M251.5-409.4h12.9v13.6h-12.9V-409.4z"/>
		<path class="st99" d="M294.8-409.4h12.9v13.6h-12.9V-409.4z"/>
		<path class="st100" d="M309-409.4h12.9v13.6H309V-409.4z"/>
		<path class="st58" d="M337.9-409.4h12.9v13.6h-12.9V-409.4z"/>
		<path class="st101" d="M-150.8-394.3h12.9v13.6h-12.9V-394.3z"/>
		<path class="st102" d="M-136.4-394.3h12.9v13.6h-12.9V-394.3z"/>
		<path class="st54" d="M-122.1-394.3h12.9v13.6h-12.9V-394.3z"/>
		<path class="st15" d="M-93.3-394.3h12.9v13.6h-12.9V-394.3z"/>
		<path class="st103" d="M-50.2-394.3h12.9v13.6h-12.9V-394.3z"/>
		<path class="st104" d="M-7.1-394.3H5.8v13.6H-7.1V-394.3z"/>
		<path class="st67" d="M36.1-394.3h12.9v13.6H36.1V-394.3z"/>
		<path class="st105" d="M50.4-394.3h12.9v13.6H50.4V-394.3z"/>
		<path class="st10" d="M64.8-394.3h13v13.6h-13V-394.3z"/>
		<path class="st33" d="M93.6-394.3h12.9v13.6H93.6V-394.3z"/>
		<path class="st32" d="M165.4-394.3h12.9v13.6h-12.9V-394.3z"/>
		<path class="st22" d="M179.8-394.3h12.9v13.6h-12.9V-394.3z"/>
		<path class="st106" d="M194.1-394.3H207v13.6h-12.9V-394.3z"/>
		<path class="st107" d="M251.5-394.3h12.9v13.6h-12.9V-394.3z"/>
		<path class="st108" d="M266-394.3h12.9v13.6H266V-394.3z"/>
		<path class="st53" d="M280.4-394.3h12.9v13.6h-12.9V-394.3z"/>
		<path class="st14" d="M294.8-394.3h12.9v13.6h-12.9V-394.3z"/>
		<path class="st18" d="M309-394.3h12.9v13.6H309V-394.3z"/>
		<path class="st70" d="M323.5-394.3h12.9v13.6h-12.9V-394.3z"/>
		<path class="st109" d="M-150.8-379.2h12.9v13.6h-12.9V-379.2z"/>
		<path class="st110" d="M-122.1-379.2h12.9v13.6h-12.9V-379.2z"/>
		<path class="st96" d="M-107.7-379.2h12.9v13.6h-12.9V-379.2z"/>
		<path class="st111" d="M-93.3-379.2h12.9v13.6h-12.9V-379.2z"/>
		<path class="st86" d="M-78.9-379.2H-66v13.6h-12.9V-379.2z"/>
		<path class="st5" d="M-64.6-379.2h12.9v13.6h-12.9V-379.2z"/>
		<path class="st57" d="M-35.8-379.2h12.9v13.6h-12.9V-379.2z"/>
		<path class="st58" d="M36.1-379.2h12.9v13.6H36.1V-379.2z"/>
		<path class="st112" d="M64.8-379.2h13v13.6h-13V-379.2z"/>
		<path class="st69" d="M122.3-379.2h12.9v13.6h-12.9V-379.2z"/>
		<path class="st12" d="M151-379.2h12.9v13.6H151V-379.2z"/>
		<path class="st113" d="M222.9-379.2h12.9v13.6h-12.9V-379.2z"/>
		<path class="st114" d="M266-379.2h12.9v13.6H266V-379.2z"/>
		<path class="st115" d="M280.4-379.2h12.9v13.6h-12.9V-379.2z"/>
		<path class="st116" d="M294.8-379.2h12.9v13.6h-12.9V-379.2z"/>
		<path class="st117" d="M323.5-379.2h12.9v13.6h-12.9V-379.2z"/>
		<path class="st29" d="M-136.4-364.1h12.9v13.6h-12.9V-364.1z"/>
		<path class="st118" d="M-122.1-364.1h12.9v13.6h-12.9V-364.1z"/>
		<path class="st119" d="M-64.6-364.1h12.9v13.6h-12.9V-364.1z"/>
		<path class="st51" d="M-50.2-364.1h12.9v13.6h-12.9V-364.1z"/>
		<path class="st120" d="M-35.8-364.1h12.9v13.6h-12.9V-364.1z"/>
		<path class="st121" d="M21.6-364.1h12.9v13.6H21.6V-364.1z"/>
		<path class="st49" d="M36.1-364.1h12.9v13.6H36.1V-364.1z"/>
		<path class="st23" d="M93.6-364.1h12.9v13.6H93.6V-364.1z"/>
		<path class="st122" d="M309-364.1h12.9v13.6H309V-364.1z"/>
		<path class="st123" d="M-136.4-349.1h12.9v13.6h-12.9V-349.1z"/>
		<path class="st124" d="M-122.1-349.1h12.9v13.6h-12.9V-349.1z"/>
		<path class="st116" d="M-93.3-349.1h12.9v13.6h-12.9V-349.1z"/>
		<path class="st90" d="M-78.9-349.1H-66v13.6h-12.9V-349.1z"/>
		<path class="st103" d="M-64.6-349.1h12.9v13.6h-12.9V-349.1z"/>
		<path class="st79" d="M-50.2-349.1h12.9v13.6h-12.9V-349.1z"/>
		<path class="st31" d="M-21.4-349.1h12.9v13.6h-12.9C-21.5-335.5-21.5-349.1-21.4-349.1z"/>
		<path class="st98" d="M21.6-349.1h12.9v13.6H21.6V-349.1z"/>
		<path class="st125" d="M36.1-349.1h12.9v13.6H36.1V-349.1z"/>
		<path class="st59" d="M64.8-349.1h13v13.6h-13V-349.1z"/>
		<path class="st22" d="M93.6-349.1h12.9v13.6H93.6V-349.1z"/>
		<path class="st21" d="M107.9-349.1h12.9v13.6h-12.9V-349.1z"/>
		<path class="st112" d="M122.3-349.1h12.9v13.6h-12.9V-349.1z"/>
		<path class="st105" d="M136.6-349.1h12.9v13.6h-12.9V-349.1z"/>
		<path class="st27" d="M165.4-349.1h12.9v13.6h-12.9V-349.1z"/>
		<path class="st79" d="M251.5-349.1h12.9v13.6h-12.9V-349.1z"/>
		<path class="st98" d="M337.9-349.1h12.9v13.6h-12.9V-349.1z"/>
		<path class="st126" d="M-150.8-334h12.9v13.6h-12.9V-334z"/>
		<path class="st127" d="M-107.7-334h12.9v13.6h-12.9V-334z"/>
		<path class="st95" d="M-93.3-334h12.9v13.6h-12.9V-334z"/>
		<path class="st39" d="M-78.9-334H-66v13.6h-12.9V-334z"/>
		<path class="st128" d="M-50.2-334h12.9v13.6h-12.9V-334z"/>
		<path class="st68" d="M36.1-334h12.9v13.6H36.1V-334z"/>
		<path class="st28" d="M64.8-334h13v13.6h-13V-334z"/>
		<path class="st11" d="M93.6-334h12.9v13.6H93.6V-334z"/>
		<path class="st129" d="M208.5-334h12.9v13.6h-12.9V-334z"/>
		<path class="st107" d="M237.3-334h12.9v13.6h-12.9V-334z"/>
		<path class="st130" d="M251.5-334h12.9v13.6h-12.9V-334z"/>
		<path class="st131" d="M280.4-334h12.9v13.6h-12.9V-334z"/>
		<path class="st85" d="M294.8-334h12.9v13.6h-12.9V-334z"/>
		<path class="st132" d="M323.5-334h12.9v13.6h-12.9V-334z"/>
		<path class="st12" d="M-150.8-318.9h12.9v13.6h-12.9V-318.9z"/>
		<path class="st54" d="M-136.4-318.9h12.9v13.6h-12.9V-318.9z"/>
		<path class="st133" d="M-122.1-318.9h12.9v13.6h-12.9V-318.9z"/>
		<path class="st74" d="M-64.6-318.9h12.9v13.6h-12.9V-318.9z"/>
		<path class="st129" d="M-35.8-318.9h12.9v13.6h-12.9V-318.9z"/>
		<path class="st21" d="M36.1-318.9h12.9v13.6H36.1V-318.9z"/>
		<path class="st22" d="M64.8-318.9h13v13.6h-13V-318.9z"/>
		<path class="st68" d="M79.1-318.9H92v13.6H79.1V-318.9z"/>
		<path class="st58" d="M93.6-318.9h12.9v13.6H93.6V-318.9z"/>
		<path class="st9" d="M107.9-318.9h12.9v13.6h-12.9V-318.9z"/>
		<path class="st11" d="M165.4-318.9h12.9v13.6h-12.9V-318.9z"/>
		<path class="st21" d="M179.8-318.9h12.9v13.6h-12.9V-318.9z"/>
		<path class="st134" d="M194.1-318.9H207v13.6h-12.9V-318.9z"/>
		<path class="st135" d="M208.5-318.9h12.9v13.6h-12.9V-318.9z"/>
		<path class="st25" d="M237.3-318.9h12.9v13.6h-12.9V-318.9z"/>
		<path class="st136" d="M251.5-318.9h12.9v13.6h-12.9V-318.9z"/>
		<path class="st81" d="M294.8-318.9h12.9v13.6h-12.9V-318.9z"/>
		<path class="st137" d="M309-318.9h12.9v13.6H309V-318.9z"/>
		<path class="st43" d="M337.9-318.9h12.9v13.6h-12.9V-318.9z"/>
		<path class="st138" d="M-136.4-303.8h12.9v13.6h-12.9V-303.8z"/>
		<path class="st111" d="M-107.7-303.8h12.9v13.6h-12.9V-303.8z"/>
		<path class="st139" d="M-78.9-303.8H-66v13.6h-12.9V-303.8z"/>
		<path class="st140" d="M-64.6-303.8h12.9v13.6h-12.9V-303.8z"/>
		<path class="st78" d="M-35.8-303.8h12.9v13.6h-12.9V-303.8z"/>
		<path class="st141" d="M-21.4-303.8h12.9v13.6h-12.9C-21.5-290.2-21.5-303.8-21.4-303.8z"/>
		<path class="st23" d="M7.4-303.8h12.9v13.6H7.4V-303.8z"/>
		<path class="st23" d="M21.6-303.8h12.9v13.6H21.6V-303.8z"/>
		<path class="st48" d="M50.4-303.8h12.9v13.6H50.4V-303.8z"/>
		<path class="st10" d="M64.8-303.8h13v13.6h-13V-303.8z"/>
		<path class="st12" d="M93.6-303.8h12.9v13.6H93.6V-303.8z"/>
		<path class="st68" d="M107.9-303.8h12.9v13.6h-12.9V-303.8z"/>
		<path class="st142" d="M208.5-303.8h12.9v13.6h-12.9V-303.8z"/>
		<path class="st143" d="M222.9-303.8h12.9v13.6h-12.9V-303.8z"/>
		<path class="st119" d="M237.3-303.8h12.9v13.6h-12.9V-303.8z"/>
		<path class="st56" d="M294.8-303.8h12.9v13.6h-12.9V-303.8z"/>
		<path class="st124" d="M309-303.8h12.9v13.6H309V-303.8z"/>
		<path class="st144" d="M323.5-303.8h12.9v13.6h-12.9V-303.8z"/>
		<path class="st93" d="M337.9-303.8h12.9v13.6h-12.9V-303.8z"/>
		<path class="st145" d="M-150.8-288.7h12.9v13.6h-12.9V-288.7z"/>
		<path class="st42" d="M-122.1-288.7h12.9v13.6h-12.9V-288.7z"/>
		<path class="st82" d="M-93.3-288.7h12.9v13.6h-12.9V-288.7z"/>
		<path class="st146" d="M-78.9-288.7H-66v13.6h-12.9V-288.7z"/>
		<path class="st147" d="M-64.6-288.7h12.9v13.6h-12.9V-288.7z"/>
		<path class="st148" d="M-50.2-288.7h12.9v13.6h-12.9V-288.7z"/>
		<path class="st149" d="M7.4-288.7h12.9v13.6H7.4V-288.7z"/>
		<path class="st98" d="M21.6-288.7h12.9v13.6H21.6V-288.7z"/>
		<path class="st21" d="M64.8-288.7h13v13.6h-13V-288.7z"/>
		<path class="st77" d="M107.9-288.7h12.9v13.6h-12.9V-288.7z"/>
		<path class="st35" d="M122.3-288.7h12.9v13.6h-12.9V-288.7z"/>
		<path class="st32" d="M179.8-288.7h12.9v13.6h-12.9V-288.7z"/>
		<path class="st142" d="M222.9-288.7h12.9v13.6h-12.9V-288.7z"/>
		<path class="st150" d="M237.3-288.7h12.9v13.6h-12.9V-288.7z"/>
		<path class="st151" d="M266-288.7h12.9v13.6H266V-288.7z"/>
		<path class="st15" d="M280.4-288.7h12.9v13.6h-12.9V-288.7z"/>
		<path class="st152" d="M294.8-288.7h12.9v13.6h-12.9V-288.7z"/>
		<path class="st153" d="M309-288.7h12.9v13.6H309V-288.7z"/>
		<path class="st18" d="M323.5-288.7h12.9v13.6h-12.9V-288.7z"/>
		<path class="st59" d="M337.9-288.7h12.9v13.6h-12.9V-288.7z"/>
		<path class="st154" d="M-136.4-273.6h12.9v13.6h-12.9V-273.6z"/>
		<path class="st155" d="M-78.9-273.6H-66v13.6h-12.9V-273.6z"/>
		<path class="st119" d="M-64.6-273.6h12.9v13.6h-12.9V-273.6z"/>
		<path class="st141" d="M-35.8-273.6h12.9v13.6h-12.9V-273.6z"/>
		<path class="st156" d="M-21.4-273.6h12.9v13.6h-12.9C-21.5-260-21.5-273.6-21.4-273.6z"/>
		<path class="st98" d="M7.4-273.6h12.9v13.6H7.4V-273.6z"/>
		<path class="st35" d="M21.6-273.6h12.9v13.6H21.6V-273.6z"/>
		<path class="st67" d="M36.1-273.6h12.9v13.6H36.1V-273.6z"/>
		<path class="st35" d="M50.4-273.6h12.9v13.6H50.4V-273.6z"/>
		<path class="st35" d="M64.8-273.6h13v13.6h-13V-273.6z"/>
		<path class="st157" d="M93.6-273.6h12.9v13.6H93.6V-273.6z"/>
		<path class="st48" d="M107.9-273.6h12.9v13.6h-12.9V-273.6z"/>
		<path class="st112" d="M136.6-273.6h12.9v13.6h-12.9V-273.6z"/>
		<path class="st33" d="M151-273.6h12.9v13.6H151V-273.6z"/>
		<path class="st158" d="M208.5-273.6h12.9v13.6h-12.9V-273.6z"/>
		<path class="st159" d="M237.3-273.6h12.9v13.6h-12.9V-273.6z"/>
		<path class="st160" d="M251.5-273.6h12.9v13.6h-12.9V-273.6z"/>
		<path class="st161" d="M266-273.6h12.9v13.6H266V-273.6z"/>
		<path class="st85" d="M280.4-273.6h12.9v13.6h-12.9V-273.6z"/>
		<path class="st18" d="M323.5-273.6h12.9v13.6h-12.9V-273.6z"/>
		<path class="st68" d="M337.9-273.6h12.9v13.6h-12.9V-273.6z"/>
		<path class="st10" d="M-150.8-258.6h12.9v13.6h-12.9V-258.6z"/>
		<path class="st162" d="M-122.1-258.6h12.9v13.6h-12.9V-258.6z"/>
		<path class="st131" d="M-107.7-258.6h12.9v13.6h-12.9V-258.6z"/>
		<path class="st111" d="M-93.3-258.6h12.9v13.6h-12.9V-258.6z"/>
		<path class="st62" d="M-78.9-258.6H-66v13.6h-12.9V-258.6z"/>
		<path class="st163" d="M-64.6-258.6h12.9v13.6h-12.9V-258.6z"/>
		<path class="st164" d="M-35.8-258.6h12.9v13.6h-12.9V-258.6z"/>
		<path class="st142" d="M-21.4-258.6h12.9v13.6h-12.9C-21.5-245-21.5-258.6-21.4-258.6z"/>
		<path class="st59" d="M7.4-258.6h12.9v13.6H7.4V-258.6z"/>
		<path class="st165" d="M21.6-258.6h12.9v13.6H21.6V-258.6z"/>
		<path class="st112" d="M50.4-258.6h12.9v13.6H50.4V-258.6z"/>
		<path class="st21" d="M122.3-258.6h12.9v13.6h-12.9V-258.6z"/>
		<path class="st34" d="M151-258.6h12.9v13.6H151V-258.6z"/>
		<path class="st60" d="M194.1-258.6H207v13.6h-12.9V-258.6z"/>
		<path class="st156" d="M208.5-258.6h12.9v13.6h-12.9V-258.6z"/>
		<path class="st166" d="M237.3-258.6h12.9v13.6h-12.9V-258.6z"/>
		<path class="st30" d="M251.5-258.6h12.9v13.6h-12.9V-258.6z"/>
		<path class="st167" d="M294.8-258.6h12.9v13.6h-12.9V-258.6z"/>
		<path class="st138" d="M309-258.6h12.9v13.6H309V-258.6z"/>
		<path class="st42" d="M323.5-258.6h12.9v13.6h-12.9V-258.6z"/>
		<path class="st168" d="M-150.8-243.5h12.9v13.6h-12.9V-243.5z"/>
		<path class="st169" d="M-107.7-243.5h12.9v13.6h-12.9V-243.5z"/>
		<path class="st128" d="M-64.6-243.5h12.9v13.6h-12.9V-243.5z"/>
		<path class="st170" d="M-50.2-243.5h12.9v13.6h-12.9V-243.5z"/>
		<path class="st78" d="M-35.8-243.5h12.9v13.6h-12.9V-243.5z"/>
		<path class="st125" d="M21.6-243.5h12.9v13.6H21.6V-243.5z"/>
		<path class="st27" d="M79.1-243.5H92v13.6H79.1V-243.5z"/>
		<path class="st66" d="M107.9-243.5h12.9v13.6h-12.9V-243.5z"/>
		<path class="st105" d="M136.6-243.5h12.9v13.6h-12.9V-243.5z"/>
		<path class="st60" d="M194.1-243.5H207v13.6h-12.9V-243.5z"/>
		<path class="st57" d="M208.5-243.5h12.9v13.6h-12.9V-243.5z"/>
		<path class="st5" d="M237.3-243.5h12.9v13.6h-12.9V-243.5z"/>
		<path class="st171" d="M251.5-243.5h12.9v13.6h-12.9V-243.5z"/>
		<path class="st172" d="M266-243.5h12.9v13.6H266V-243.5z"/>
		<path class="st173" d="M280.4-243.5h12.9v13.6h-12.9V-243.5z"/>
		<path class="st174" d="M294.8-243.5h12.9v13.6h-12.9V-243.5z"/>
		<path class="st175" d="M309-243.5h12.9v13.6H309V-243.5z"/>
		<path class="st176" d="M323.5-243.5h12.9v13.6h-12.9V-243.5z"/>
		<path class="st177" d="M337.9-243.5h12.9v13.6h-12.9V-243.5z"/>
	</g>
</g>
</svg>
