<?xml version="1.0" encoding="utf-8"?>
<!-- Generator: Adobe Illustrator 19.2.0, SVG Export Plug-In . SVG Version: 6.00 Build 0)  -->
<svg version="1.1" id="Layer_1" xmlns="http://www.w3.org/2000/svg" xmlns:xlink="http://www.w3.org/1999/xlink" x="0px" y="0px"
	 viewBox="0 0 500 300" style="enable-background:new 0 0 500 300;" xml:space="preserve">
<style type="text/css">
	.st0{opacity:0.59;}
	.st1{opacity:0.4;}
	.st2{fill:url(#SVGID_1_);}
	.st3{fill:url(#SVGID_2_);}
	.st4{fill:url(#SVGID_3_);}
	.st5{fill:url(#SVGID_4_);}
	.st6{fill:url(#SVGID_5_);}
	.st7{fill:url(#SVGID_6_);}
	.st8{opacity:0.5;}
	.st9{fill:url(#SVGID_7_);}
	.st10{fill:url(#SVGID_8_);}
	.st11{fill:url(#SVGID_9_);}
	.st12{fill:url(#SVGID_10_);}
	.st13{fill:url(#SVGID_11_);}
	.st14{fill:url(#SVGID_12_);}
	.st15{fill:url(#SVGID_13_);}
	.st16{fill:url(#SVGID_14_);}
	.st17{fill:url(#SVGID_15_);}
	.st18{fill:url(#SVGID_16_);}
	.st19{fill:url(#SVGID_17_);}
	.st20{fill:url(#SVGID_18_);}
	.st21{fill:url(#SVGID_19_);}
	.st22{fill:url(#SVGID_20_);}
	.st23{fill:url(#SVGID_21_);}
	.st24{fill:url(#SVGID_22_);}
	.st25{fill:url(#SVGID_23_);}
	.st26{fill:url(#SVGID_24_);}
	.st27{fill:url(#SVGID_25_);}
	.st28{fill:url(#SVGID_26_);}
	.st29{fill:url(#SVGID_27_);}
	.st30{fill:url(#SVGID_28_);}
	.st31{fill:url(#SVGID_29_);}
	.st32{fill:url(#SVGID_30_);}
	.st33{fill:url(#SVGID_31_);}
	.st34{fill:url(#SVGID_32_);}
	.st35{fill:url(#SVGID_33_);}
	.st36{fill:url(#SVGID_34_);}
	.st37{fill:url(#SVGID_35_);}
	.st38{fill:url(#SVGID_36_);}
	.st39{fill:url(#SVGID_37_);}
</style>
<g class="st0">
	<g>
		<g>
			<g class="st1">
				
					<linearGradient id="SVGID_1_" gradientUnits="userSpaceOnUse" x1="16.5149" y1="-213.2934" x2="-201.9876" y2="-44.6024" gradientTransform="matrix(0.9439 0.3303 -0.3303 0.9439 16.6528 242.5983)">
					<stop  offset="0" style="stop-color:#FFFFFF"/>
					<stop  offset="0.7368" style="stop-color:#B2B2B2"/>
					<stop  offset="1" style="stop-color:#848586"/>
				</linearGradient>
				<path class="st2" d="M7.1,45.3c-2.5,1.2-4.8,2.4-7.1,3.7v65.9c10.1-2.5,21.4-6.7,33.9-12.9C66.8,85.8,95.4,51.1,111.4,29
					C84.5,27.9,40,29.1,7.1,45.3z"/>
				
					<linearGradient id="SVGID_2_" gradientUnits="userSpaceOnUse" x1="40.565" y1="-115.5681" x2="-134.4135" y2="19.5209" gradientTransform="matrix(0.9439 0.3303 -0.3303 0.9439 16.6528 242.5983)">
					<stop  offset="0" style="stop-color:#FFFFFF"/>
					<stop  offset="0.7368" style="stop-color:#B2B2B2"/>
					<stop  offset="1" style="stop-color:#848586"/>
				</linearGradient>
				<path class="st3" d="M35.5,130.5c-13.3-4.7-25.1-7.6-35.5-9v62.3c4.7,2.1,9.7,4.1,15.1,6c34.4,12.3,78.8,8.4,105.4,4.3
					C102.2,174,69.9,142.8,35.5,130.5z"/>
				
					<linearGradient id="SVGID_3_" gradientUnits="userSpaceOnUse" x1="-3.5679" y1="17.3862" x2="-83.1214" y2="78.8041" gradientTransform="matrix(0.9439 0.3303 -0.3303 0.9439 16.6528 242.5983)">
					<stop  offset="0" style="stop-color:#FFFFFF"/>
					<stop  offset="0.7368" style="stop-color:#B2B2B2"/>
					<stop  offset="1" style="stop-color:#848586"/>
				</linearGradient>
				<path class="st4" d="M12.6,296.7c-0.4-23.6-3.2-52.5-12.6-77v77H12.6z"/>
			</g>
			<g>
				<linearGradient id="SVGID_4_" gradientUnits="userSpaceOnUse" x1="11.3171" y1="39.3695" x2="-132.3645" y2="150.2963">
					<stop  offset="0" style="stop-color:#FFFFFF"/>
					<stop  offset="0.7368" style="stop-color:#B2B2B2"/>
					<stop  offset="1" style="stop-color:#848586"/>
				</linearGradient>
				<path class="st5" d="M0,32.8v30.6C6.5,50.8,11.1,37.7,14,28C9.9,29.2,5.1,30.9,0,32.8z"/>
				<linearGradient id="SVGID_5_" gradientUnits="userSpaceOnUse" x1="33.7997" y1="112.6553" x2="-80.7898" y2="201.1221">
					<stop  offset="0" style="stop-color:#FFFFFF"/>
					<stop  offset="0.7368" style="stop-color:#B2B2B2"/>
					<stop  offset="1" style="stop-color:#848586"/>
				</linearGradient>
				<path class="st6" d="M0,107.9v39.3c20.5-2.9,41.4-12.6,54.5-19.6C41.4,120.5,20.5,110.8,0,107.9z"/>
				<linearGradient id="SVGID_6_" gradientUnits="userSpaceOnUse" x1="10.2157" y1="206.937" x2="-41.7266" y2="247.0381">
					<stop  offset="0" style="stop-color:#FFFFFF"/>
					<stop  offset="0.7368" style="stop-color:#B2B2B2"/>
					<stop  offset="1" style="stop-color:#848586"/>
				</linearGradient>
				<path class="st7" d="M0,191.7v30.6c5.1,2,9.9,3.6,14,4.9C11.1,217.4,6.5,204.3,0,191.7z"/>
			</g>
		</g>
		<g class="st8">
			<g class="st1">
				
					<linearGradient id="SVGID_7_" gradientUnits="userSpaceOnUse" x1="-1088.8981" y1="219.784" x2="-1544.6931" y2="571.6725" gradientTransform="matrix(-1 -9.800000e-003 9.800000e-003 -1 -1272.2861 609.1548)">
					<stop  offset="0" style="stop-color:#FFFFFF"/>
					<stop  offset="0.7368" style="stop-color:#B2B2B2"/>
					<stop  offset="1" style="stop-color:#848586"/>
				</linearGradient>
				<path class="st9" d="M95.9,296.7c14.3-45.5,7.2-84.8-7.1-108.6c-18.5-30.6-42.1-41-59.7-39.9c-9.9,0.6-19.2,3.7-29.1,8.2v140.2
					H95.9z"/>
				
					<linearGradient id="SVGID_8_" gradientUnits="userSpaceOnUse" x1="-1255.8254" y1="524.5461" x2="-1411.092" y2="644.417" gradientTransform="matrix(-1 -9.800000e-003 9.800000e-003 -1 -1272.2861 609.1548)">
					<stop  offset="0" style="stop-color:#FFFFFF"/>
					<stop  offset="0.7368" style="stop-color:#B2B2B2"/>
					<stop  offset="1" style="stop-color:#848586"/>
				</linearGradient>
				<path class="st10" d="M0,0v4c13.8,24.5,19.5,46.1,19.4,64.3c-0.2,24.2-10.2,43.8-17.7,59.6c1.9,9.7,11.7,14.9,29.2,13.5
					c16.8-1.4,42.9-12.2,53.8-41.4C92.9,77.7,86.2,40.8,61,0H0z"/>
				
					<linearGradient id="SVGID_9_" gradientUnits="userSpaceOnUse" x1="-1267.7024" y1="552.1363" x2="-1655.3126" y2="851.3839" gradientTransform="matrix(-1 -9.800000e-003 9.800000e-003 -1 -1272.2861 609.1548)">
					<stop  offset="0" style="stop-color:#FFFFFF"/>
					<stop  offset="0.7368" style="stop-color:#B2B2B2"/>
					<stop  offset="1" style="stop-color:#848586"/>
				</linearGradient>
				<path class="st11" d="M0.3,1.2C0.2,1.2,0.1,1.1,0,1v5.2c37.1,53.4,11.2,94,3.1,107c3.1-2.5,16.7-8.5,38.1-19.5
					c16-8.3,32.1-22.3,57.9-29.5c-13.2-7.5-26-15-38-22.4C36.6,26.7,16.3,13,0.3,1.2z"/>
				
					<linearGradient id="SVGID_10_" gradientUnits="userSpaceOnUse" x1="-1409.7191" y1="370.0146" x2="-1792.0201" y2="665.1633" gradientTransform="matrix(-1 -9.800000e-003 9.800000e-003 -1 -1272.2861 609.1548)">
					<stop  offset="0" style="stop-color:#FFFFFF"/>
					<stop  offset="0.7368" style="stop-color:#B2B2B2"/>
					<stop  offset="1" style="stop-color:#848586"/>
				</linearGradient>
				<path class="st12" d="M477.2,219.2c-36.5-18.1-77.2-39.2-119.4-61.6c-38.4-20.4-75.5-40.5-110.9-58.3
					c-28.5-14.3-53.5-26.2-77.8-33.4c-16.9-5-34.8-7.3-50.4-5.6c-7.1,0.8-13.5,2.1-19.4,3.7C148.3,92,205,120.4,265.4,146.2
					C341.5,178.8,415.1,203.6,477.2,219.2z"/>
				
					<linearGradient id="SVGID_11_" gradientUnits="userSpaceOnUse" x1="-1340.9064" y1="427.0893" x2="-1889.3873" y2="850.5343" gradientTransform="matrix(-1 -9.800000e-003 9.800000e-003 -1 -1272.2861 609.1548)">
					<stop  offset="0" style="stop-color:#FFFFFF"/>
					<stop  offset="0.7368" style="stop-color:#B2B2B2"/>
					<stop  offset="1" style="stop-color:#848586"/>
				</linearGradient>
				<path class="st13" d="M177.3,90.4c-70.8-4-112.7-3.1-133.9,7.1c-18.5,8.9-30.7,20.3-43.4,30.7V152c5.5,3,13.5,6,24.3,8.8
					c37.5,9.8,105.9,20.5,189.6,7.1c66.2-10.6,118.8-42.2,154-74.4c9.1-8.3,17.5-16.5,25.4-24.3c-8.3,3.9-17.6,7.5-27.9,10.6
					C315.1,94.9,240.6,93.9,177.3,90.4z"/>
				
					<linearGradient id="SVGID_12_" gradientUnits="userSpaceOnUse" x1="-1252.2675" y1="244.8768" x2="-1718.5381" y2="604.8527" gradientTransform="matrix(-1 -9.800000e-003 9.800000e-003 -1 -1272.2861 609.1548)">
					<stop  offset="0" style="stop-color:#FFFFFF"/>
					<stop  offset="0.7368" style="stop-color:#B2B2B2"/>
					<stop  offset="1" style="stop-color:#848586"/>
				</linearGradient>
				<path class="st14" d="M355.5,296.7c-37.7-27.9-102.9-58.1-184.1-82.6c-68.2-20.6-115.4-39.8-153.6-49.6
					c-6.2-1.6-12.1-2.8-17.9-3.8v136H355.5z"/>
			</g>
			<g>
				
					<linearGradient id="SVGID_13_" gradientUnits="userSpaceOnUse" x1="-1120.9651" y1="63.2686" x2="-1490.4962" y2="348.5586" gradientTransform="matrix(-0.9471 0.321 -0.321 -0.9471 -1178.2891 833.4533)">
					<stop  offset="0" style="stop-color:#FFFFFF"/>
					<stop  offset="0.7368" style="stop-color:#B2B2B2"/>
					<stop  offset="1" style="stop-color:#848586"/>
				</linearGradient>
				<path class="st15" d="M0,171.5v72.4c4.9-10.1,7.8-19.6,8.9-28C11.4,194,6.8,179.7,0,171.5z"/>
				
					<linearGradient id="SVGID_14_" gradientUnits="userSpaceOnUse" x1="-1351.6357" y1="241.3902" x2="-1497.0018" y2="353.6175" gradientTransform="matrix(-0.9471 0.321 -0.321 -0.9471 -1178.2891 833.4533)">
					<stop  offset="0" style="stop-color:#FFFFFF"/>
					<stop  offset="0.7368" style="stop-color:#B2B2B2"/>
					<stop  offset="1" style="stop-color:#848586"/>
				</linearGradient>
				<path class="st16" d="M71.4,71.9c-12.4-5.6-24.3-5.6-31.3,2C24.7,90.5,13.3,110.5,0,128.5v37.2c8.7,5.1,22.7,8.2,43,8.3
					c32.1,0,67.1-39.6,69.6-71C101.1,91.2,86.1,78.6,71.4,71.9z"/>
				
					<linearGradient id="SVGID_15_" gradientUnits="userSpaceOnUse" x1="-1328.7885" y1="327.0521" x2="-1472.3533" y2="437.8888" gradientTransform="matrix(-0.9471 0.321 -0.321 -0.9471 -1178.2891 833.4533)">
					<stop  offset="0" style="stop-color:#FFFFFF"/>
					<stop  offset="0.7368" style="stop-color:#B2B2B2"/>
					<stop  offset="1" style="stop-color:#848586"/>
				</linearGradient>
				<path class="st17" d="M15.3,26.1c2.1,4.5,3.9,8.9,5.4,13.3c-0.1-0.3-0.2-0.6-0.2-0.9C19.3,34.4,17.6,30.3,15.3,26.1z"/>
				
					<linearGradient id="SVGID_16_" gradientUnits="userSpaceOnUse" x1="-1316.517" y1="342.27" x2="-1460.812" y2="453.6704" gradientTransform="matrix(-0.9471 0.321 -0.321 -0.9471 -1178.2891 833.4533)">
					<stop  offset="0" style="stop-color:#FFFFFF"/>
					<stop  offset="0.7368" style="stop-color:#B2B2B2"/>
					<stop  offset="1" style="stop-color:#848586"/>
				</linearGradient>
				<path class="st18" d="M0,0v4.3c6.2,7.3,11.5,14.6,15.3,21.8C11.2,17.3,6,8.5,0.1,0H0z"/>
				
					<linearGradient id="SVGID_17_" gradientUnits="userSpaceOnUse" x1="-1343.2926" y1="309.4672" x2="-1485.4186" y2="419.1929" gradientTransform="matrix(-0.9471 0.321 -0.321 -0.9471 -1178.2891 833.4533)">
					<stop  offset="0" style="stop-color:#FFFFFF"/>
					<stop  offset="0.7368" style="stop-color:#B2B2B2"/>
					<stop  offset="1" style="stop-color:#848586"/>
				</linearGradient>
				<path class="st19" d="M22.2,44c-0.4-1.5-0.9-3-1.5-4.6C32.2,80.5,8.9,105.2,0,117.9v3.1C10,116.4,37.1,95.4,22.2,44z"/>
				
					<linearGradient id="SVGID_18_" gradientUnits="userSpaceOnUse" x1="-1402.2897" y1="228.4926" x2="-1617.3453" y2="394.5226" gradientTransform="matrix(-0.9471 0.321 -0.321 -0.9471 -1178.2891 833.4533)">
					<stop  offset="0" style="stop-color:#FFFFFF"/>
					<stop  offset="0.7368" style="stop-color:#B2B2B2"/>
					<stop  offset="1" style="stop-color:#848586"/>
				</linearGradient>
				<path class="st20" d="M42.8,57.1c-18.2,8.7-20,24.1-27.1,37.1c-4.8,9-10.3,16.8-15.7,23.2v11c12.8-0.5,41.7-5.7,89.7-15.2
					c58.9-11.8,115.8-31.1,155.2-29.1C172.5,75.9,69,44.7,42.8,57.1z"/>
				
					<linearGradient id="SVGID_19_" gradientUnits="userSpaceOnUse" x1="-1387.0295" y1="155.7316" x2="-1585.5679" y2="309.0096" gradientTransform="matrix(-0.9471 0.321 -0.321 -0.9471 -1178.2891 833.4533)">
					<stop  offset="0" style="stop-color:#FFFFFF"/>
					<stop  offset="0.7368" style="stop-color:#B2B2B2"/>
					<stop  offset="1" style="stop-color:#848586"/>
				</linearGradient>
				<path class="st21" d="M89.2,140.4c-37.5-8.9-62-13.6-79.1-11.6c-3.5,0.4-6.8,1.1-10.1,2v58.3c0.9,0.3,1.7,0.6,2.6,0.9
					c35.4,11.6,88.8,20,142.8,19.9c53.1-0.2,102.1-10,132.7-20.9C234.5,179.5,158.8,157,89.2,140.4z"/>
			</g>
		</g>
	</g>
	<g>
		<g>
			<g class="st1">
				
					<linearGradient id="SVGID_20_" gradientUnits="userSpaceOnUse" x1="-2205.657" y1="671.2797" x2="-2403.3489" y2="823.9044" gradientTransform="matrix(-0.9439 -0.3303 0.3303 -0.9439 -2308.426 -40.7263)">
					<stop  offset="0" style="stop-color:#FFFFFF"/>
					<stop  offset="0.7368" style="stop-color:#B2B2B2"/>
					<stop  offset="1" style="stop-color:#848586"/>
				</linearGradient>
				<path class="st22" d="M0,0v97.2c1.4,1.8,3,3.4,4.6,4.9c27.1-1.5,56.1-29.4,77.6-91.9c1.1-3.3,2.2-6.7,3.1-10.2H0z"/>
				
					<linearGradient id="SVGID_21_" gradientUnits="userSpaceOnUse" x1="-2269.4724" y1="638.6412" x2="-2576.9807" y2="876.0475" gradientTransform="matrix(-0.9439 -0.3303 0.3303 -0.9439 -2308.426 -40.7263)">
					<stop  offset="0" style="stop-color:#FFFFFF"/>
					<stop  offset="0.7368" style="stop-color:#B2B2B2"/>
					<stop  offset="1" style="stop-color:#848586"/>
				</linearGradient>
				<path class="st23" d="M30.8,125.9C29.2,98.3,53.1,65.7,111.6,37c46.3-22.7,109-24.5,146.9-22.9c-22.4,31.2-62.8,80-109.2,102.8
					C90.8,145.6,51,144.4,30.8,125.9z"/>
				
					<linearGradient id="SVGID_22_" gradientUnits="userSpaceOnUse" x1="-2333.2573" y1="531.5998" x2="-2579.4111" y2="721.6385" gradientTransform="matrix(-0.9439 -0.3303 0.3303 -0.9439 -2308.426 -40.7263)">
					<stop  offset="0" style="stop-color:#FFFFFF"/>
					<stop  offset="0.7368" style="stop-color:#B2B2B2"/>
					<stop  offset="1" style="stop-color:#848586"/>
				</linearGradient>
				<path class="st24" d="M32.7,161.7c18.1-20.7,57.5-26.4,118.9-4.6c48.5,17.3,94,61.3,119.8,89.7c-37.5,5.9-100,11.3-148.5-6
					C61.5,218.9,34.2,189.3,32.7,161.7z"/>
				
					<linearGradient id="SVGID_23_" gradientUnits="userSpaceOnUse" x1="-2284.2964" y1="481.2173" x2="-2394.3401" y2="566.1745" gradientTransform="matrix(-0.9439 -0.3303 0.3303 -0.9439 -2308.426 -40.7263)">
					<stop  offset="0" style="stop-color:#FFFFFF"/>
					<stop  offset="0.7368" style="stop-color:#B2B2B2"/>
					<stop  offset="1" style="stop-color:#848586"/>
				</linearGradient>
				<path class="st25" d="M106.4,296.7c-2.7-9-5.9-17.7-9.8-26c-28.2-59.7-60.1-84-87.2-82.4c-4,4.5-7.1,10-9.3,16.4v54.2
					c2.7,11.5,6.8,24.1,12.6,37.8H106.4z"/>
			</g>
			<g>
				
					<linearGradient id="SVGID_24_" gradientUnits="userSpaceOnUse" x1="-2247.7913" y1="-71.838" x2="-2378.2405" y2="28.8729" gradientTransform="matrix(-1 0 0 -1 -2291.7734 201.874)">
					<stop  offset="0" style="stop-color:#FFFFFF"/>
					<stop  offset="0.7368" style="stop-color:#B2B2B2"/>
					<stop  offset="1" style="stop-color:#848586"/>
				</linearGradient>
				<path class="st26" d="M13.2,296.7c5.9-17,10.4-35.6,10.4-53.2c0-38.8-9.7-61.7-23.5-70.9v124.1H13.2z"/>
				
					<linearGradient id="SVGID_25_" gradientUnits="userSpaceOnUse" x1="-2264.9663" y1="127.9601" x2="-2395.1821" y2="228.4911" gradientTransform="matrix(-1 0 0 -1 -2291.7734 201.874)">
					<stop  offset="0" style="stop-color:#FFFFFF"/>
					<stop  offset="0.7368" style="stop-color:#B2B2B2"/>
					<stop  offset="1" style="stop-color:#848586"/>
				</linearGradient>
				<path class="st27" d="M0,0v106.3c13.8-9.2,23.5-32.1,23.5-70.9c0-11.6-2-23.7-5-35.4H0z"/>
				
					<linearGradient id="SVGID_26_" gradientUnits="userSpaceOnUse" x1="-2312.3506" y1="99.3574" x2="-2513.9414" y2="254.9921" gradientTransform="matrix(-1 0 0 -1 -2291.7734 201.874)">
					<stop  offset="0" style="stop-color:#FFFFFF"/>
					<stop  offset="0.7368" style="stop-color:#B2B2B2"/>
					<stop  offset="1" style="stop-color:#848586"/>
				</linearGradient>
				<path class="st28" d="M130.2,0c-23.8,7.6-60,22.2-82.8,45.5c-29.9,30.5-37.8,55.8-31,72.4c16.3,6.9,41.1-1.1,71.1-31.6
					c23.4-23.9,37.9-62.2,45.2-86.3H130.2z"/>
				
					<linearGradient id="SVGID_27_" gradientUnits="userSpaceOnUse" x1="-2353.5208" y1="29.8009" x2="-2514.418" y2="154.0188" gradientTransform="matrix(-1 0 0 -1 -2291.7734 201.874)">
					<stop  offset="0" style="stop-color:#FFFFFF"/>
					<stop  offset="0.7368" style="stop-color:#B2B2B2"/>
					<stop  offset="1" style="stop-color:#848586"/>
				</linearGradient>
				<path class="st29" d="M25.1,139.5c6.7-16.7,29.8-28.9,72.2-28.9c33.5,0,70.8,17.1,92.6,28.9c-21.8,11.8-59.1,28.9-92.6,28.9
					C54.9,168.4,31.9,156.1,25.1,139.5z"/>
				
					<linearGradient id="SVGID_28_" gradientUnits="userSpaceOnUse" x1="-2345.4907" y1="-34.6746" x2="-2417.4758" y2="20.9002" gradientTransform="matrix(-1 0 0 -1 -2291.7734 201.874)">
					<stop  offset="0" style="stop-color:#FFFFFF"/>
					<stop  offset="0.7368" style="stop-color:#B2B2B2"/>
					<stop  offset="1" style="stop-color:#848586"/>
				</linearGradient>
				<path class="st30" d="M16.4,161c16.3-6.9,41.1,1.1,71.1,31.6c23.7,24.2,38.2,63.1,45.5,87.2c-23.6-7.4-61.8-22.2-85.5-46.3
					C17.4,202.9,9.5,177.7,16.4,161z"/>
			</g>
		</g>
		<g class="st8">
			<g class="st1">
				
					<linearGradient id="SVGID_29_" gradientUnits="userSpaceOnUse" x1="1526.4637" y1="375.9485" x2="979.8643" y2="797.9409" gradientTransform="matrix(1 9.800000e-003 -9.800000e-003 1 -1019.4873 -407.2817)">
					<stop  offset="0" style="stop-color:#FFFFFF"/>
					<stop  offset="0.7368" style="stop-color:#B2B2B2"/>
					<stop  offset="1" style="stop-color:#848586"/>
				</linearGradient>
				<path class="st31" d="M500,85.3c-56.9-18.7-115.8-31.4-167.6-36.9C202.8,34.7,128.1,51.8,92.8,63C60.1,73.4,52.9,79.8,60,77.4
					c69.3-9.6,229.2-8.1,345.8,73.4c34.2,23.9,63,51.7,94.2,78.8V85.3z"/>
				
					<linearGradient id="SVGID_30_" gradientUnits="userSpaceOnUse" x1="1421.2908" y1="398.9996" x2="1035.8495" y2="696.5728" gradientTransform="matrix(1 9.800000e-003 -9.800000e-003 1 -1019.4873 -407.2817)">
					<stop  offset="0" style="stop-color:#FFFFFF"/>
					<stop  offset="0.7368" style="stop-color:#B2B2B2"/>
					<stop  offset="1" style="stop-color:#848586"/>
				</linearGradient>
				<path class="st32" d="M415.5,0h-62.4c-0.6,0.9-1.1,1.8-1.7,2.7c9.9,0.7,20,1.7,30.3,2.8c24.4,2.8,41.4,6.8,51.6,9.9
					c4.7,1.4,3.5,0.9-0.8-1.9C426.6,9.7,420.9,5.1,415.5,0z"/>
				
					<linearGradient id="SVGID_31_" gradientUnits="userSpaceOnUse" x1="1394.1774" y1="363.584" x2="1006.7576" y2="662.6846" gradientTransform="matrix(1 9.800000e-003 -9.800000e-003 1 -1019.4873 -407.2817)">
					<stop  offset="0" style="stop-color:#FFFFFF"/>
					<stop  offset="0.7368" style="stop-color:#B2B2B2"/>
					<stop  offset="1" style="stop-color:#848586"/>
				</linearGradient>
				<path class="st33" d="M73.1,60.5c27.2,5,75.3,5.1,137.8,14.3c59.5,8.9,121.4,25,149.8,42.1c-1-0.8-2-1.8-3.1-2.9
					c-9-9.1-17.7-22.6-21.6-38.9c-5.6-23.3,1-48.8,15.5-72.4C186.1-9.5,83.3,35.9,73.1,60.5z"/>
				
					<linearGradient id="SVGID_32_" gradientUnits="userSpaceOnUse" x1="1661.6732" y1="-19.7665" x2="608.8178" y2="793.072" gradientTransform="matrix(1 9.800000e-003 -9.800000e-003 1 -1019.4873 -407.2817)">
					<stop  offset="0" style="stop-color:#FFFFFF"/>
					<stop  offset="0.7368" style="stop-color:#B2B2B2"/>
					<stop  offset="1" style="stop-color:#848586"/>
				</linearGradient>
				<path class="st34" d="M0,0v45.4c2.1,0.7,4.3,1.3,6.6,1.8c39.5-8.4,88-19.4,146.5-34.6c14.3-3.7,29.4-8,45.7-12.6H0z"/>
				
					<linearGradient id="SVGID_33_" gradientUnits="userSpaceOnUse" x1="1091.9048" y1="407.4349" x2="430.3701" y2="918.1611" gradientTransform="matrix(1 9.800000e-003 -9.800000e-003 1 -1019.4873 -407.2817)">
					<stop  offset="0" style="stop-color:#FFFFFF"/>
					<stop  offset="0.7368" style="stop-color:#B2B2B2"/>
					<stop  offset="1" style="stop-color:#848586"/>
				</linearGradient>
				<path class="st35" d="M0,0v82.7c27.2-6.9,54.6-13,77-21.4c16.7-6.3,31.1-14.9,36.5-27.6c3.8-8.9,3.4-20.1-3-33.7H0z"/>
			</g>
			<g>
				
					<linearGradient id="SVGID_34_" gradientUnits="userSpaceOnUse" x1="1066.9692" y1="977.0342" x2="722.0328" y2="1243.3363" gradientTransform="matrix(0.9471 -0.321 0.321 0.9471 -1113.4843 -631.5803)">
					<stop  offset="0" style="stop-color:#FFFFFF"/>
					<stop  offset="0.7368" style="stop-color:#B2B2B2"/>
					<stop  offset="1" style="stop-color:#848586"/>
				</linearGradient>
				<path class="st36" d="M71.1,0C41.1,7.3,17,17,0,27.5v60.8c47-9.8,115.6-13.4,198.1-13.2c42.8,0.1,78.9-4.8,98-18
					c20.3-14,23.4-36,17.2-57.1H71.1z"/>
				
					<linearGradient id="SVGID_35_" gradientUnits="userSpaceOnUse" x1="1061.8903" y1="1076.1403" x2="853.5396" y2="1236.9937" gradientTransform="matrix(0.9471 -0.321 0.321 0.9471 -1113.4843 -631.5803)">
					<stop  offset="0" style="stop-color:#FFFFFF"/>
					<stop  offset="0.7368" style="stop-color:#B2B2B2"/>
					<stop  offset="1" style="stop-color:#848586"/>
				</linearGradient>
				<path class="st37" d="M4.9,80.8c14,3.4,92.7-20.3,231.9,4.7c57,10.3,105.1,27,131.4,42.3c18.8,11,16.9,18.6,11.4,17.9
					C370,118.4,318,68.9,231.2,54.5C106.7,33.9,28.5,66.4,4.9,80.8z"/>
				
					<linearGradient id="SVGID_36_" gradientUnits="userSpaceOnUse" x1="1158.4489" y1="891.4344" x2="692.1131" y2="1251.4607" gradientTransform="matrix(0.9471 -0.321 0.321 0.9471 -1113.4843 -631.5803)">
					<stop  offset="0" style="stop-color:#FFFFFF"/>
					<stop  offset="0.7368" style="stop-color:#B2B2B2"/>
					<stop  offset="1" style="stop-color:#848586"/>
				</linearGradient>
				<path class="st38" d="M21.8,0C3.4,10.6,9.6,20.8,0,29.9v39.7c45.5-8.5,116-23.2,212.6-44.5c30.7-6.8,64.2-15.8,98.5-25.1H21.8z"
					/>
				
					<linearGradient id="SVGID_37_" gradientUnits="userSpaceOnUse" x1="1057.7102" y1="804.2206" x2="540.2712" y2="1203.7002" gradientTransform="matrix(0.9471 -0.321 0.321 0.9471 -1113.4843 -631.5803)">
					<stop  offset="0" style="stop-color:#FFFFFF"/>
					<stop  offset="0.7368" style="stop-color:#B2B2B2"/>
					<stop  offset="1" style="stop-color:#848586"/>
				</linearGradient>
				<path class="st39" d="M0,0v19.8C4.6,13.7,9.4,7.1,14.5,0H0z"/>
			</g>
		</g>
	</g>
</g>
</svg>
