<?xml version="1.0" encoding="utf-8"?>
<!-- Generator: Adobe Illustrator 19.2.0, SVG Export Plug-In . SVG Version: 6.00 Build 0)  -->
<svg version="1.1" id="Front_Art" xmlns="http://www.w3.org/2000/svg" xmlns:xlink="http://www.w3.org/1999/xlink" x="0px" y="0px"
	 viewBox="0 0 500 300" style="enable-background:new 0 0 500 300;" xml:space="preserve">
<style type="text/css">
	.st0{fill:none;}
	.st1{fill:none;stroke:#000000;stroke-width:0.3;stroke-linejoin:round;}
	.st2{fill:url(#SVGID_1_);}
	.st3{opacity:0.2;fill:url(#SVGID_2_);enable-background:new    ;}
	.st4{fill:none;stroke:#00AEEF;stroke-width:0.4034;}
	.st5{fill:none;stroke:#00AEEF;stroke-width:0.4791;}
	.st6{fill:none;stroke:#FFFFFF;stroke-width:0.9582;}
	.st7{fill:#00AEEF;}
	.st8{fill:none;stroke:#58595B;stroke-width:0.5;}
	.st9{fill:none;stroke:#58595B;stroke-width:0.5;stroke-dasharray:1,1;}
	.st10{fill:#FFFFFF;}
	.st11{font-family:'ArialMT';}
	.st12{font-size:25.286px;}
	.st13{font-size:28.8983px;}
	.st14{font-size:14.4491px;}
	.st15{font-size:12.643px;}
</style>
<pattern  y="300" width="72" height="72" patternUnits="userSpaceOnUse" id="Diagonal_Lines" viewBox="79.6 -151.6 72 72" style="overflow:visible;">
	<g>
		<rect x="79.6" y="-151.6" class="st0" width="72" height="72"/>
		<g>
			<rect x="79.6" y="-151.6" class="st0" width="72" height="72"/>
			<g>
				<line class="st1" x1="144.1" y1="-162.1" x2="162.1" y2="-144.1"/>
				<line class="st1" x1="144.1" y1="-168.1" x2="168.1" y2="-144.1"/>
				<line class="st1" x1="144.1" y1="-174.1" x2="174.1" y2="-144.1"/>
				<line class="st1" x1="144.1" y1="-180.1" x2="180.1" y2="-144.1"/>
				<line class="st1" x1="144.1" y1="-186.1" x2="186.1" y2="-144.1"/>
				<line class="st1" x1="144.1" y1="-192.1" x2="192.1" y2="-144.1"/>
				<line class="st1" x1="144.1" y1="-198.1" x2="198.1" y2="-144.1"/>
				<line class="st1" x1="144.1" y1="-204.1" x2="204.1" y2="-144.1"/>
				<line class="st1" x1="144.1" y1="-210.1" x2="210.1" y2="-144.1"/>
				<line class="st1" x1="144.1" y1="-216.1" x2="216.1" y2="-144.1"/>
				<line class="st1" x1="144.1" y1="-222.1" x2="222.1" y2="-144.1"/>
				<line class="st1" x1="144.1" y1="-228.1" x2="228.1" y2="-144.1"/>
				<line class="st1" x1="150.1" y1="-228.1" x2="228.1" y2="-150.1"/>
			</g>
			<g>
				<line class="st1" x1="72.1" y1="-162.1" x2="90.1" y2="-144.1"/>
				<line class="st1" x1="72.1" y1="-168.1" x2="96.1" y2="-144.1"/>
				<line class="st1" x1="72.1" y1="-174.1" x2="102.1" y2="-144.1"/>
				<line class="st1" x1="72.1" y1="-180.1" x2="108.1" y2="-144.1"/>
				<line class="st1" x1="72.1" y1="-186.1" x2="114.1" y2="-144.1"/>
				<line class="st1" x1="72.1" y1="-192.1" x2="120.1" y2="-144.1"/>
				<line class="st1" x1="72.1" y1="-198.1" x2="126.1" y2="-144.1"/>
				<line class="st1" x1="72.1" y1="-204.1" x2="132.1" y2="-144.1"/>
				<line class="st1" x1="72.1" y1="-210.1" x2="138.1" y2="-144.1"/>
				<line class="st1" x1="72.1" y1="-216.1" x2="144.1" y2="-144.1"/>
				<line class="st1" x1="72.1" y1="-222.1" x2="150.1" y2="-144.1"/>
				<line class="st1" x1="72.1" y1="-228.1" x2="156.1" y2="-144.1"/>
				<line class="st1" x1="78.1" y1="-228.1" x2="156.1" y2="-150.1"/>
			</g>
			<g>
				<line class="st1" x1="0.1" y1="-228.1" x2="84.1" y2="-144.1"/>
				<line class="st1" x1="6.1" y1="-228.1" x2="84.1" y2="-150.1"/>
			</g>
			<g>
				<line class="st1" x1="144.1" y1="-90.1" x2="162.1" y2="-72.1"/>
				<line class="st1" x1="144.1" y1="-96.1" x2="168.1" y2="-72.1"/>
				<line class="st1" x1="144.1" y1="-102.1" x2="174.1" y2="-72.1"/>
				<line class="st1" x1="144.1" y1="-108.1" x2="180.1" y2="-72.1"/>
				<line class="st1" x1="144.1" y1="-114.1" x2="186.1" y2="-72.1"/>
				<line class="st1" x1="144.1" y1="-120.1" x2="192.1" y2="-72.1"/>
				<line class="st1" x1="144.1" y1="-126.1" x2="198.1" y2="-72.1"/>
				<line class="st1" x1="144.1" y1="-132.1" x2="204.1" y2="-72.1"/>
				<line class="st1" x1="144.1" y1="-138.1" x2="210.1" y2="-72.1"/>
				<line class="st1" x1="144.1" y1="-144.1" x2="216.1" y2="-72.1"/>
				<line class="st1" x1="144.1" y1="-150.1" x2="222.1" y2="-72.1"/>
				<line class="st1" x1="144.1" y1="-156.1" x2="228.1" y2="-72.1"/>
				<line class="st1" x1="150.1" y1="-156.1" x2="228.1" y2="-78.1"/>
			</g>
			<g>
				<line class="st1" x1="72.1" y1="-90.1" x2="90.1" y2="-72.1"/>
				<line class="st1" x1="72.1" y1="-96.1" x2="96.1" y2="-72.1"/>
				<line class="st1" x1="72.1" y1="-102.1" x2="102.1" y2="-72.1"/>
				<line class="st1" x1="72.1" y1="-108.1" x2="108.1" y2="-72.1"/>
				<line class="st1" x1="72.1" y1="-114.1" x2="114.1" y2="-72.1"/>
				<line class="st1" x1="72.1" y1="-120.1" x2="120.1" y2="-72.1"/>
				<line class="st1" x1="72.1" y1="-126.1" x2="126.1" y2="-72.1"/>
				<line class="st1" x1="72.1" y1="-132.1" x2="132.1" y2="-72.1"/>
				<line class="st1" x1="72.1" y1="-138.1" x2="138.1" y2="-72.1"/>
				<line class="st1" x1="72.1" y1="-144.1" x2="144.1" y2="-72.1"/>
				<line class="st1" x1="72.1" y1="-150.1" x2="150.1" y2="-72.1"/>
				<line class="st1" x1="72.1" y1="-156.1" x2="156.1" y2="-72.1"/>
				<line class="st1" x1="78.1" y1="-156.1" x2="156.1" y2="-78.1"/>
				<line class="st1" x1="84.1" y1="-156.1" x2="156.1" y2="-84.1"/>
				<line class="st1" x1="90.1" y1="-156.1" x2="156.1" y2="-90.1"/>
				<line class="st1" x1="96.1" y1="-156.1" x2="156.1" y2="-96.1"/>
				<line class="st1" x1="102.1" y1="-156.1" x2="156.1" y2="-102.1"/>
				<line class="st1" x1="108.1" y1="-156.1" x2="156.1" y2="-108.1"/>
				<line class="st1" x1="114.1" y1="-156.1" x2="156.1" y2="-114.1"/>
				<line class="st1" x1="120.1" y1="-156.1" x2="156.1" y2="-120.1"/>
				<line class="st1" x1="126.1" y1="-156.1" x2="156.1" y2="-126.1"/>
				<line class="st1" x1="132.1" y1="-156.1" x2="156.1" y2="-132.1"/>
				<line class="st1" x1="138.1" y1="-156.1" x2="156.1" y2="-138.1"/>
				<line class="st1" x1="144.1" y1="-156.1" x2="156.1" y2="-144.1"/>
			</g>
			<g>
				<line class="st1" x1="0.1" y1="-156.1" x2="84.1" y2="-72.1"/>
				<line class="st1" x1="6.1" y1="-156.1" x2="84.1" y2="-78.1"/>
				<line class="st1" x1="12.1" y1="-156.1" x2="84.1" y2="-84.1"/>
				<line class="st1" x1="18.1" y1="-156.1" x2="84.1" y2="-90.1"/>
				<line class="st1" x1="24.1" y1="-156.1" x2="84.1" y2="-96.1"/>
				<line class="st1" x1="30.1" y1="-156.1" x2="84.1" y2="-102.1"/>
				<line class="st1" x1="36.1" y1="-156.1" x2="84.1" y2="-108.1"/>
				<line class="st1" x1="42.1" y1="-156.1" x2="84.1" y2="-114.1"/>
				<line class="st1" x1="48.1" y1="-156.1" x2="84.1" y2="-120.1"/>
				<line class="st1" x1="54.1" y1="-156.1" x2="84.1" y2="-126.1"/>
				<line class="st1" x1="60.1" y1="-156.1" x2="84.1" y2="-132.1"/>
				<line class="st1" x1="66.1" y1="-156.1" x2="84.1" y2="-138.1"/>
				<line class="st1" x1="72.1" y1="-156.1" x2="84.1" y2="-144.1"/>
			</g>
			<g>
				<line class="st1" x1="144.1" y1="-84.1" x2="228.1" y2="-0.1"/>
				<line class="st1" x1="150.1" y1="-84.1" x2="228.1" y2="-6.1"/>
			</g>
			<g>
				<line class="st1" x1="72.1" y1="-84.1" x2="156.1" y2="-0.1"/>
				<line class="st1" x1="78.1" y1="-84.1" x2="156.1" y2="-6.1"/>
				<line class="st1" x1="84.1" y1="-84.1" x2="156.1" y2="-12.1"/>
				<line class="st1" x1="90.1" y1="-84.1" x2="156.1" y2="-18.1"/>
				<line class="st1" x1="96.1" y1="-84.1" x2="156.1" y2="-24.1"/>
				<line class="st1" x1="102.1" y1="-84.1" x2="156.1" y2="-30.1"/>
				<line class="st1" x1="108.1" y1="-84.1" x2="156.1" y2="-36.1"/>
				<line class="st1" x1="114.1" y1="-84.1" x2="156.1" y2="-42.1"/>
				<line class="st1" x1="120.1" y1="-84.1" x2="156.1" y2="-48.1"/>
				<line class="st1" x1="126.1" y1="-84.1" x2="156.1" y2="-54.1"/>
				<line class="st1" x1="132.1" y1="-84.1" x2="156.1" y2="-60.1"/>
				<line class="st1" x1="138.1" y1="-84.1" x2="156.1" y2="-66.1"/>
				<line class="st1" x1="144.1" y1="-84.1" x2="156.1" y2="-72.1"/>
			</g>
			<g>
				<line class="st1" x1="0.1" y1="-84.1" x2="84.1" y2="-0.1"/>
				<line class="st1" x1="6.1" y1="-84.1" x2="84.1" y2="-6.1"/>
				<line class="st1" x1="12.1" y1="-84.1" x2="84.1" y2="-12.1"/>
				<line class="st1" x1="18.1" y1="-84.1" x2="84.1" y2="-18.1"/>
				<line class="st1" x1="24.1" y1="-84.1" x2="84.1" y2="-24.1"/>
				<line class="st1" x1="30.1" y1="-84.1" x2="84.1" y2="-30.1"/>
				<line class="st1" x1="36.1" y1="-84.1" x2="84.1" y2="-36.1"/>
				<line class="st1" x1="42.1" y1="-84.1" x2="84.1" y2="-42.1"/>
				<line class="st1" x1="48.1" y1="-84.1" x2="84.1" y2="-48.1"/>
				<line class="st1" x1="54.1" y1="-84.1" x2="84.1" y2="-54.1"/>
				<line class="st1" x1="60.1" y1="-84.1" x2="84.1" y2="-60.1"/>
				<line class="st1" x1="66.1" y1="-84.1" x2="84.1" y2="-66.1"/>
				<line class="st1" x1="72.1" y1="-84.1" x2="84.1" y2="-72.1"/>
			</g>
		</g>
	</g>
</pattern>
<radialGradient id="SVGID_1_" cx="136.1176" cy="138.4743" r="141.7258" gradientTransform="matrix(3.0743 0 0 -1.6582 -168.2672 379.6206)" gradientUnits="userSpaceOnUse">
	<stop  offset="0" style="stop-color:#4E504F"/>
	<stop  offset="1" style="stop-color:#000000"/>
</radialGradient>
<rect class="st2" width="500.4" height="300"/>
<pattern  id="SVGID_2_" xlink:href="#Diagonal_Lines" patternTransform="matrix(1 0 0 -1 -78.6 -15196.8125)">
</pattern>
<rect class="st3" width="500.4" height="300"/>
<line class="st4" x1="109.2" y1="68.3" x2="109.2" y2="112.3"/>
<path class="st5" d="M76.5,113.2c-12.9,0-23.2-10.3-23.2-22.8c0-12.6,10.5-22.8,23.2-22.8c12.9,0,23.2,10.3,23.2,22.8
	C99.7,103.1,89.2,113.2,76.5,113.2L76.5,113.2z"/>
<ellipse class="st6" cx="76.5" cy="90.5" rx="20.6" ry="20.2"/>
<g>
	<polygon class="st7" points="61.6,91.4 66.4,91.4 66.4,85.6 	"/>
	<polygon class="st7" points="86.6,91.4 91.2,91.4 86.6,85.6 	"/>
	<path class="st7" d="M67.3,84.7l5.3,6.7h1.5c0.2,0.4,0.2,0.5,0.2,0.9c0,2.2-3.3,4-7.4,4c-1.8,0-3.7-0.4-5-1.1c0,0.2-0.2,0,0,0
		c-0.4-0.2-0.7-0.5-1.1-0.7c0.7,2.5,2,4.9,3.9,6.9c2.9-0.7,6.4-1.3,10.1-1.4V84.5h-7.5V84.7z"/>
	<polygon class="st7" points="67.1,91.4 71.7,91.4 67.1,85.6 	"/>
	<path class="st7" d="M66.2,84.5L66.2,84.5L66.2,84.5c0,0-0.2-0.4-0.2-0.5c0-0.4,0.4-0.7,0.7-0.7h8.5v-0.5c0-0.5,0.6-0.9,1.1-0.9
		h0.4c0.6,0,1.1,0.4,1.1,0.9v0.5h8.5c0.4,0,0.7,0.4,0.7,0.7c0,0.2-0.2,0.5-0.4,0.5l0,0l0.2-0.2l5.5,6.9h0.2c0-0.2,0-0.5,0-0.7
		c0-8.7-7.2-15.5-15.8-15.5c-8.8,0-15.8,7-15.8,15.5c0,0.2,0,0.5,0,0.7l0,0L66.2,84.5z"/>
	<path class="st7" d="M78.3,92.3c0-0.4,0-0.5,0.2-0.9h1.7l5.3-6.7h-7.9v15.4c3.7,0.2,7.2,0.5,10.1,1.4c1.8-2,3.3-4.3,3.9-7
		c-1.3,1.3-3.7,2-6.3,2C81.7,96.4,78.3,94.6,78.3,92.3z"/>
	<polygon class="st7" points="81.3,91.4 85.9,91.4 85.9,85.6 	"/>
</g>
<line class="st8" x1="47.3" y1="165.8" x2="451.5" y2="165.8"/>
<line class="st8" x1="47.3" y1="237" x2="451.5" y2="237"/>
<line class="st9" x1="250.1" y1="172.1" x2="250.1" y2="229.7"/>
<text id="name" transform="matrix(1.0182 0 0 1 119.8618 88.5488)" class="st10 st11 st12">Marcus Johnson</text>
<text id="cname" transform="matrix(1.0182 0 0 1 166.9063 44.3164)" class="st10 st11 st13">Company Name</text>
<text transform="matrix(1.0182 0 0 1 318.875 186.7627)" class="st10 st11 st14">Contact</text>
<text transform="matrix(1.0182 0 0 1 124.6069 186.7637)" class="st10 st11 st14">Email</text>
<text id="contact" transform="matrix(1.0182 0 0 1 307.46 220.9902)" class="st10 st11 st14">9876543210</text>
<text id="email" transform="matrix(1.0182 0 0 1 73.6377 220.9902)" class="st10 st11 st14">marcus@cards.com</text>
<text id="desig" transform="matrix(1.0182 0 0 1 119.8613 108.7373)" class="st10 st11 st15">Designation</text>
</svg>
