<?xml version="1.0" encoding="utf-8"?>
<!-- Generator: Adobe Illustrator 19.2.0, SVG Export Plug-In . SVG Version: 6.00 Build 0)  -->
<svg version="1.1" id="Layer_1" xmlns="http://www.w3.org/2000/svg" xmlns:xlink="http://www.w3.org/1999/xlink" x="0px" y="0px"
	 viewBox="0 0 500 300" style="enable-background:new 0 0 500 300;" xml:space="preserve">
<style type="text/css">
	.st0{fill:#F58220;}
	.st1{fill:#FFFFFF;}
	.st2{font-family:'ArialNarrow';}
	.st3{font-size:32.0062px;}
	.st4{font-size:30.1235px;}
	.st5{font-size:18.8272px;}
	.st6{font-size:16.9444px;}
</style>
<rect x="-5" y="-5" width="505" height="305"/>
<rect x="241.7" y="139.8" class="st0" width="2.4" height="140.1"/>
<g>
	<path class="st0" d="M75.1,150.1c0,9.2-7.5,16.6-16.6,16.6s-16.6-7.3-16.6-16.6c0-9,7.3-16.6,16.6-16.6
		C67.6,133.8,75.1,141.1,75.1,150.1z"/>
	<path class="st1" d="M63.6,153.3h-3.7c0-0.4,0.2-0.6,0.2-0.8c2.8-1.3,4.3-4.9,4.3-7.2c0-2.8-2.6-5.5-6-5.5c-3.4,0-6,2.8-6,5.5
		c0,2.3,1.7,5.8,4.3,7.2c0.2,0.2,0.2,0.4,0.2,0.8h-3.7c-1.3,0-2.2,1.3-2.2,2.8v4.5h15v-4.5C65.9,154.7,64.8,153.3,63.6,153.3z"/>
</g>
<text id="name" transform="matrix(0.9934 0 0 1 81.2285 162.5352)" class="st1 st2 st3">John Doe</text>
<text id="cname" transform="matrix(0.9934 0 0 1 292.1895 37.936)" class="st1 st2 st4">Company Name</text>
<text id="desig" transform="matrix(0.9934 0 0 1 82.7715 182.6348)" class="st0 st2 st5">Designation</text>
<text transform="matrix(0.9934 0 0 1 265.1514 194.71)" class="st0 st2 st6">Email</text>
<text transform="matrix(0.9934 0 0 1 265.1514 236.9746)" class="st0 st2 st6">Phone</text>
<text id="contact" transform="matrix(0.9934 0 0 1 348.0371 236.9746)" class="st1 st2 st6">9876543210</text>
<text id="email" transform="matrix(0.9934 0 0 1 348.0371 194.709)" class="st1 st2 st6">john@doe.com</text>
</svg>
