<?xml version="1.0" encoding="utf-8"?>
<!-- Generator: Adobe Illustrator 19.2.0, SVG Export Plug-In . SVG Version: 6.00 Build 0)  -->
<svg version="1.1" id="footer" xmlns="http://www.w3.org/2000/svg" xmlns:xlink="http://www.w3.org/1999/xlink" x="0px" y="0px"
	 viewBox="0 0 500 200" style="enable-background:new 0 0 500 200;" xml:space="preserve">
<style type="text/css">
	.st0{fill:#BFBFBF;}
	.st1{fill:#EBEBEC;}
	.st2{fill:#E6E7E8;}
	.st3{fill:#848484;}
	.st4{fill:#42A5F5;}
	.st5{fill:#FFFFFF;}
</style>
<g>
	<polygon class="st0" points="0,200 0,161.1 118.2,161.1 130,176 148.9,200 	"/>
	<polygon class="st1" points="214,200 191.7,176 251.2,176 273.5,200 	"/>
	<polygon class="st2" points="154.5,200 132.2,176 191.7,176 214,200 	"/>
	<polygon class="st3" points="148.9,200 118.2,161.1 154.5,200 	"/>
</g>
<g>
	<path class="st1" d="M500,199.7V86.3l-43.5-43.6c-2.5-2.5-6.5-2.5-9,0L297.7,192.4c-2,2-2.4,4.9-1.2,7.3L500,199.7L500,199.7z"/>
	<path class="st2" d="M500,199.7v-74.3l-43.9-43.9c-2.3-2.3-6-2.3-8.3,0L329.5,199.7H500z"/>
	<path id="accent" class="st4" d="M500,199.7v-46.5l-44.7-44.7c-1.9-1.9-4.9-1.9-6.8,0l-91.2,91.2H500z"/>
	<path class="st5" d="M500,199.7v-5.2l-45.4-45.4c-1.5-1.5-3.9-1.5-5.4,0l-50.6,50.6H500z"/>
</g>
</svg>
