<?xml version="1.0" encoding="utf-8"?>
<!-- Generator: Adobe Illustrator 19.2.0, SVG Export Plug-In . SVG Version: 6.00 Build 0)  -->
<svg version="1.1" id="footer" xmlns="http://www.w3.org/2000/svg" xmlns:xlink="http://www.w3.org/1999/xlink" x="0px" y="0px"
	 viewBox="0 0 500 200" style="enable-background:new 0 0 500 200;" xml:space="preserve">
<style type="text/css">
	.st0{fill:#D1D3D4;}
	.st1{fill:#42A5F5;}
	.st2{opacity:0.17;}
	.st3{opacity:0.5;enable-background:new    ;}
</style>
<g>
	<polygon class="st0" points="180.9,91 -0.6,91 -0.6,118.2 204.8,118.2 	"/>
	<polygon class="st1" id="accent" points="481.9,180.6 362.3,180.6 307.4,118.2 204.8,118.2 259.9,180.6 259.6,180.6 204.6,118.2 102.1,118.2 
		157.2,180.6 -0.6,180.6 -0.6,200 251.7,200 379.4,200 500,200 500,199.6 	"/>
	<polygon class="st2" points="259.9,180.6 204.8,118.2 -0.6,118.2 -0.6,180.6 233.3,180.6 	"/>
	<polygon class="st3" points="259.9,180.6 233.3,180.6 251.7,200 379.4,200 362.3,180.6 	"/>
</g>
</svg>
