<?xml version="1.0" encoding="utf-8"?>
<!-- Generator: Adobe Illustrator 19.2.0, SVG Export Plug-In . SVG Version: 6.00 Build 0)  -->
<svg version="1.1" id="Layer_1" xmlns="http://www.w3.org/2000/svg" xmlns:xlink="http://www.w3.org/1999/xlink" x="0px" y="0px"
	 viewBox="0 0 383 133" style="enable-background:new 0 0 383 133;" xml:space="preserve">
<style type="text/css">
	.st0{display:none;}
	.st1{display:inline;}
	.st2{fill:#FFFFFF;}
	.st3{display:none;stroke:#FFFFFF;stroke-width:2;stroke-miterlimit:10;}
	.st4{font-family:'COM4t-Nuvu';}
	.st5{font-size:50px;}
	.st6{font-family:'Reef-Bold';}
	.st7{font-size:84px;}
</style>
<g class="st0">
	<path class="st1" d="M32,214h287V109H32V214z M233,174h69v15h-69V174z M60.2,176.8c0.7-8.2,8.3-9.6,9.8-10c1.5-0.5,6.9-2,7.7-3.7
		c0.3-0.6,0.3-1.6,0.2-2.8c-2.1-2.6-3.5-5.8-4.3-7.9c-1.1,0.8-1.5-0.2-1.5-0.2c-3.5-5.1-1.3-7.1-0.8-7.5c0.5-0.4,0.9,0.3,0.9,0.3
		l0,0.1c-0.7-13.5,10.9-14.4,12.2-14.5c0,0,0.1,0,0.9,0c0.8,0,0.9,0,0.9,0c1.4,0.1,12.9,1,12.2,14.5l0-0.1c0,0,0.5-0.7,0.9-0.3
		c0.5,0.4,2.6,2.4-0.8,7.5c0,0-0.4,1-1.5,0.2c-0.8,2.1-2.2,5.3-4.3,7.9c-0.1,1.2-0.1,2.2,0.2,2.8c0.7,1.7,6.2,3.2,7.7,3.7
		c1.5,0.5,9,1.9,9.8,10l1.2,9c0,0-2.7,3.8-7,3.1c0,0-9,4-18.5,3.9c-0.2,0-0.7,0-0.7,0s-0.5,0-0.7,0c-9.5,0.1-18.5-3.9-18.5-3.9
		c-4.3,0.7-7-3.1-7-3.1L60.2,176.8z"/>
	<rect x="32" y="36" class="st1" width="287" height="38"/>
</g>
<g>
	<path class="st2" d="M11.3,90.4l112.6,22.5l6-51.1L15.7,61.2L11.3,90.4z M77.8,87.2l37.1,4.6L114,99l-37-5.7L77.8,87.2z M19.5,80.9
		c0.5-2.3,2.5-2.5,2.9-2.6c0.4-0.1,1.9-0.4,2.1-0.9c0.1-0.2,0.1-0.5,0.2-0.8c-0.4-0.8-0.7-1.8-0.8-2.4c-0.3,0.2-0.4-0.1-0.4-0.1
		c-0.7-1.6,0-2.1,0.1-2.2c0.1-0.1,0.2,0.1,0.2,0.1l0,0c0.4-4,3.5-4.1,3.8-4.1c0,0,0,0,0.2,0c0.2,0,0.2,0,0.2,0
		c0.4,0,3.5,0.5,2.7,4.6l0,0c0,0,0.2-0.2,0.3-0.1c0.1,0.1,0.6,0.8-0.6,2.3c0,0-0.2,0.3-0.4,0c-0.3,0.6-0.8,1.6-1.5,2.3
		c-0.1,0.4-0.1,0.7-0.1,0.9c0.1,0.5,1.6,1.2,2,1.4c0.4,0.2,2.5,0.9,2.3,3.5l-0.1,2.9c0,0-0.9,1.1-2.1,0.7c0,0-2.7,0.9-5.3,0.4
		c0,0-0.2,0-0.2,0s-0.1,0-0.2,0c-2.5-0.4-4.6-1.9-4.6-1.9c-1.1,0-1.6-1.2-1.6-1.2L19.5,80.9z"/>
	<polygon class="st2" points="18.6,41.2 17.1,51.7 131.9,45.4 134,27.3 	"/>
</g>
<text transform="matrix(1 0 0 1 111.5017 154.5)" class="st3 st4 st5">CARDIZE</text>
<text transform="matrix(1 0 0 1 143 98.9984)" class="st2 st6 st7">Cardise</text>
</svg>
