<?xml version="1.0" encoding="utf-8"?>
<!-- Generator: Adobe Illustrator 19.2.0, SVG Export Plug-In . SVG Version: 6.00 Build 0)  -->
<svg version="1.1" xmlns="http://www.w3.org/2000/svg" xmlns:xlink="http://www.w3.org/1999/xlink" x="0px" y="0px"
	 viewBox="0 0 179.5 179.5" style="enable-background:new 0 0 179.5 179.5;" xml:space="preserve">
<style type="text/css">
	.st0{clip-path:url(#SVGID_2_);fill:#55A2FF;}
	.st1{clip-path:url(#SVGID_2_);}
	.st2{fill:#F4E3D6;}
	.st3{fill:#F3D1BB;}
	.st4{fill:#683C11;}
	.st5{fill:#7F0015;}
</style>
<g id="Background">
</g>
<g id="Objects">
	<g>
		<g>
			<g>
				<defs>
					<circle id="SVGID_1_" cx="89.7" cy="89.7" r="89.7"/>
				</defs>
				<clipPath id="SVGID_2_">
					<use xlink:href="#SVGID_1_"  style="overflow:visible;"/>
				</clipPath>
				<circle class="st0" cx="89.7" cy="89.7" r="89.7"/>
				<g class="st1">
					<g>
						<path class="st2" d="M106.4,124.8c-3.7-5.4-5.9-10.6-5.7-17.2c0-1.4-1.2-2.1-2.3-1.9c-0.1-0.2-0.3-0.3-0.5-0.4
							c-5.6-3.5-12.8-2.7-18.7-0.5c-0.5,0.2-0.8,0.6-0.9,1c-0.7,0.1-1.3,0.7-1.1,1.7c1.8,7.8-1,13-4.6,19.5
							c-1.9,3.5-2.6,7.3-1.4,11.2c2.6,8.9,11.9,13,20.6,12.5c8.5-0.5,16.9-4.7,18.2-13.9C110.6,132.2,108.9,128.5,106.4,124.8z"/>
						<path class="st3" d="M122,70.9c0.5-4.2,0.6-8.3,0.1-12.1c-2.6-20-29.3-17.8-43.9-17.7c-8.8,0.1-14.1,4.4-16.5,12.8
							c-1.6,5.8-2.3,11.8-2.2,17.9c-1.4-0.2-2.9,0.2-3.9,1.3c-1.6,1.7-1.6,4.2-1.4,6.4c0.3,2.1,1.1,4.4,3,5.5
							c1.1,0.6,2.3,0.8,3.4,0.5c0.1,0.3,0.1,0.6,0.2,1c0,0.2,0.1,0.4,0.2,0.5c1.1,5.7,3.2,11.1,6.8,15.9c9.2,12.5,26.2,16,38.4,5.7
							c6.5-5.5,10.3-13.2,12.5-21.3c0.2-0.7,0.3-1.3,0.5-2c0.2,0.1,0.4,0.1,0.7,0.1C126.3,85,127.5,72.5,122,70.9z"/>
						<path class="st4" d="M134.6,51C134.6,51,134.5,51,134.6,51c-0.1,0.1-0.2,0.2-0.2,0.2c-4.8,5.7-1.8-0.4-1.5-2
							c0.4-2.6-0.1-5.3-0.6-7.8c-0.1-0.4-0.6-0.3-0.7,0.1c-0.8,6.9-8.1,7.5-13,4.4c-1.9-1.2-4.1-2.9-5.8-4.4
							c1.2-0.4,1.8-0.9,2.6-2.1c0.2-0.3-0.1-0.7-0.5-0.6c-5.6,1-9.5-2.2-14.7-3.4c-3.4-0.8-6.7-0.9-10.1-0.4c0.7-1.2,0.7-2,0.4-3.5
							c-0.1-0.4-0.6-0.4-0.8-0.1c-1.8,3.2-7.4,1.7-10.3,1.8c-2.4,0.1-4.8,0.4-7.1,1.3c-2,0.7-5.5,2.4-6.4,4.7
							c-0.6-1.7-1.2-3.3-1.5-5c-0.1-0.4-0.6-0.4-0.8-0.1c-1.7,2.5-2.6,5.6-1.7,8.5c-3.2,1.6-5.4,3.7-7.1,6.8
							c-0.2,0.4,0.2,0.8,0.6,0.6c0.4-0.2,3.7-2,4.2-0.8c0.1,0.3-1.4,2.3-1.5,2.6c-0.8,1.6-1.4,3.4-1.9,5.1
							c-1.1,3.8-1.5,7.7-1.8,11.6c0,0.4,0.6,0.6,0.8,0.2c0.3-0.7,0.8-1.3,1.3-1.8c-0.8,1.9-1.2,4.1-0.9,6.2c0,0-0.1,0.1-0.1,0.1
							c-0.3,0.2,0.1,0.6,0.4,0.5c1.2-0.7,2.9-2.1,4.1,0.1c0.3,0.5,0.3,1.4,0.4,2c0.3,1.7,0.4,3.4,0.5,5.1c0,0.4,0.5,0.4,0.6,0.2
							c1,0.2,2.2,0.5,2.9-0.3c0.7-0.8,0.4-2.9,0.3-3.8c0-1.1-1-6.8,0.5-2.8c0.1,0.2,0.5,0.3,0.6,0c0.6-3.1,0.9-6.3,0.7-9.4
							c0-0.4,0-0.7,0-1.1c0-0.2-0.1-0.4-0.2-0.5c-0.2-1.5-0.4-2.9-0.7-4.4c0.6,0.8,1.1,1.7,1.4,2.7c0.1,0.4,0.6,0.3,0.7,0
							c0.8-2.2,1.2-4.4,1-6.7c0.2,0.2,0.3,0.4,0.5,0.6c2.9,3.9,7.4,6.3,12.2,7c0.3,0.1,0.6-0.3,0.4-0.6c-0.6-0.6-1.1-1.4-1.4-2.1
							c-0.1-0.4-0.2-0.9-0.2-1.3c8.6,7.8,21.1,11.7,32.5,9.4c0.4-0.1,0.3-0.7-0.1-0.7l-1.7-0.6c1.5,0.3,3.1,0.5,4.7,0.5
							c0.2,2.5,0,4.9-0.5,7.4c-0.1,0.4,0.4,0.8,0.8,0.4c0.3-0.2,0.5-0.5,0.8-0.7c0,1.3-0.3,2.6-0.8,3.9c-0.3,1-0.9,2.1-0.8,3.1
							c0.1,0.5,0.4,1,0.8,1.2c0,0,0,0.1,0.1,0.1c0.9,0.5,2,0.6,3,0.7c0.2,0,0.5-0.1,0.5-0.4c0.1-2.4,0.3-4.8,0.7-7.2
							c0.1-0.6,0.1-1.8,0.5-2.4c1.6-2.5,2.5-1.1,4-0.4c0.2,0.1,0.4-0.2,0.2-0.3c0,0,0,0,0,0c0,0,0.1-0.1,0.1-0.1
							c0.1-2.2-0.1-4.8-0.8-6.9c5.8-2.2,10.5-7,11.4-13.8c0,0,0,0,0-0.1C135.5,51.1,134.9,50.5,134.6,51z"/>
					</g>
					<path class="st5" d="M149.4,189c0.1-0.2,0.2-0.4,0.2-0.7c-0.5-9.6-1.5-19.3-2.7-28.8c-1.2-9-2.3-18.3-5.3-26.9
						c-0.2-0.6-0.7-0.8-1.2-0.6c-0.1,0-0.1-0.1-0.2-0.1c-7-2-14.1-3.7-21.1-5.7c-3.8-1.1-10.9-5-14.6-3c-0.2,0.1-0.3,0.2-0.3,0.4
						c-8.2,6.7-20.9,8-29,0.6c0,0,0,0,0,0c-0.3-0.4-0.6-0.8-0.9-1.2c-0.3-0.4-0.7-0.5-1-0.3c-0.6-0.1-1.2,0-1.7,0.1
						c-0.4,0.1-0.9,0.3-1.3,0.5c-4,0.4-8.2,2.6-11.7,3.8c-6.1,2.1-12.2,3.6-18.5,5.1c-0.3,0.1-0.5,0.3-0.6,0.5
						c-0.1,0-0.2,0.1-0.3,0.2c-0.3,0.3-0.5,0.7-0.7,1c-1.9,2.2-2.8,5.1-3.7,7.9c-1.5,4.5-2.9,9.1-4.2,13.6c-2.5,8.8-4.1,17.7-4,26.9
						c-1.5,4.8-0.4,11.6,2,15.8c2.7,4.8,7.9,7.7,13,9.4c13.7,4.7,29.9,4,44.2,4.2c15.3,0.3,31.2,1.3,46.2-2.7
						C140,206.9,156.7,200.2,149.4,189z"/>
				</g>
			</g>
		</g>
	</g>
</g>
</svg>
