<?xml version="1.0" encoding="utf-8"?>
<!-- Generator: Adobe Illustrator 19.2.0, SVG Export Plug-In . SVG Version: 6.00 Build 0)  -->
<svg version="1.1" id="Layer_1" xmlns="http://www.w3.org/2000/svg" xmlns:xlink="http://www.w3.org/1999/xlink" x="0px" y="0px"
	 viewBox="0 0 500 300" style="enable-background:new 0 0 500 300;" xml:space="preserve">
<style type="text/css">
	.st0{fill:#07182C;}
	.st1{fill:url(#SVGID_1_);}
	.st2{fill:url(#SVGID_2_);}
	.st3{opacity:0.6;}
	.st4{fill:#FFFFFF;fill-opacity:0;}
	.st5{opacity:6.250000e-002;fill:#F3F3F3;enable-background:new    ;}
	.st6{opacity:0.125;fill:#E6E6E6;enable-background:new    ;}
	.st7{opacity:0.1875;fill:#DADADA;enable-background:new    ;}
	.st8{opacity:0.25;fill:#CECECE;enable-background:new    ;}
	.st9{opacity:0.3125;fill:#C1C1C1;enable-background:new    ;}
	.st10{opacity:0.375;fill:#B5B5B5;enable-background:new    ;}
	.st11{opacity:0.4375;fill:#A9A9A9;enable-background:new    ;}
	.st12{opacity:0.5;fill:#9D9D9D;enable-background:new    ;}
	.st13{opacity:0.5625;fill:#909090;enable-background:new    ;}
	.st14{opacity:0.625;fill:#848484;enable-background:new    ;}
	.st15{opacity:0.6875;fill:#787878;enable-background:new    ;}
	.st16{opacity:0.75;fill:#6B6B6B;enable-background:new    ;}
	.st17{opacity:0.8125;fill:#5F5F5F;enable-background:new    ;}
	.st18{opacity:0.875;fill:#535353;enable-background:new    ;}
	.st19{opacity:0.9375;fill:#464646;enable-background:new    ;}
	.st20{fill:#3A3A3A;}
	.st21{fill:#0D8FA7;}
	.st22{fill:#FFFFFF;}
	.st23{fill:#2DB4BF;}
	.st24{fill:#282828;}
	.st25{font-family:'ArialMT';}
	.st26{font-size:11.901px;}
	.st27{fill:#323232;}
	.st28{font-size:29.7525px;}
</style>
<rect class="st0" width="500" height="299.9"/>
<g>
	
		<radialGradient id="SVGID_1_" cx="129.0873" cy="1802.9467" r="16.5601" gradientTransform="matrix(4.7261 8.8038 0.299 -0.5564 -995.4359 18.5365)" gradientUnits="userSpaceOnUse">
		<stop  offset="0" style="stop-color:#000000"/>
		<stop  offset="0.1316" style="stop-color:#323232"/>
		<stop  offset="0.336" style="stop-color:#7A7A7A"/>
		<stop  offset="0.5198" style="stop-color:#B3B3B3"/>
		<stop  offset="0.6762" style="stop-color:#DCDCDC"/>
		<stop  offset="0.7991" style="stop-color:#F6F6F6"/>
		<stop  offset="0.8732" style="stop-color:#FFFFFF"/>
	</radialGradient>
	<path class="st1" d="M231.9,297.5c-2.9,5.4-40.2-55.9-83.3-136.3S72.8,11.3,75.2,6.5c2.9-5.4,40.2,55.9,83.3,136.3
		S234.8,292.8,231.9,297.5z"/>
	
		<radialGradient id="SVGID_2_" cx="436.6281" cy="277.4687" r="74.0423" gradientTransform="matrix(3.1946 0 0 -5.9505 -1279.3484 1797.0496)" gradientUnits="userSpaceOnUse">
		<stop  offset="0.1268" style="stop-color:#FFFFFF"/>
		<stop  offset="0.2731" style="stop-color:#FCFCFC"/>
		<stop  offset="0.3743" style="stop-color:#F3F3F3"/>
		<stop  offset="0.4619" style="stop-color:#E4E4E4"/>
		<stop  offset="0.5419" style="stop-color:#CECECE"/>
		<stop  offset="0.6165" style="stop-color:#B2B2B2"/>
		<stop  offset="0.6873" style="stop-color:#8F8F8F"/>
		<stop  offset="0.7551" style="stop-color:#666666"/>
		<stop  offset="0.8192" style="stop-color:#373737"/>
		<stop  offset="0.8806" style="stop-color:#030303"/>
		<stop  offset="0.8834" style="stop-color:#000000"/>
	</radialGradient>
	<polygon class="st2" points="233.7,299.9 0,299.9 0,0 72.8,0 95,41.1 181.8,202.3 183,205.3 	"/>
</g>
<g>
	<g class="st3">
		<path class="st4" d="M0,290.4L0,290.4c166.1-76.2,361.9-67.8,500-46.4v46.4H0z"/>
		<path class="st5" d="M0,291L0,291c166.1-76.2,361.9-67.8,500-46.4V291H0z"/>
		<path class="st6" d="M0,291.6L0,291.6c166.1-76.2,361.9-67.8,500-46.4v46.4H0z"/>
		<path class="st7" d="M0,292.2L0,292.2c166.1-76.2,361.9-67.8,500-46.4v46.4H0z"/>
		<path class="st8" d="M0,292.8L0,292.8c166.1-76.2,361.9-67.8,500-46.4v46.4H0z"/>
		<path class="st9" d="M0,293.4L0,293.4c166.1-76.2,361.9-67.8,500-46.4v46.4H0z"/>
		<path class="st10" d="M0,294L0,294c166.1-76.2,361.9-67.8,500-46.4V294C500,294,0,294,0,294z"/>
		<path class="st11" d="M0,294.5L0,294.5c166.1-76.2,361.9-67.8,500-46.4v46.4H0z"/>
		<path class="st12" d="M0,295.1L0,295.1c166.1-76.2,361.9-67.8,500-46.4v46.4H0z"/>
		<path class="st13" d="M0,295.7L0,295.7c166.1-76.2,361.9-67.8,500-46.4v46.4H0z"/>
		<path class="st14" d="M0,296.3L0,296.3c166.1-76.2,361.9-67.8,500-46.4v46.4H0z"/>
		<path class="st15" d="M0,296.9L0,296.9c166.1-76.2,361.9-67.8,500-46.4v46.4H0z"/>
		<path class="st16" d="M0,297.5L0,297.5c166.1-76.2,361.9-67.8,500-46.4v46.4H0z"/>
		<path class="st17" d="M0,298.1L0,298.1c166.1-76.2,361.9-67.8,500-46.4v46.4H0z"/>
		<path class="st18" d="M0,298.7L0,298.7c166.1-76.2,361.9-67.8,500-46.4v46.4H0z"/>
		<path class="st19" d="M0,299.3L0,299.3c166.1-76.2,361.9-67.8,500-46.4v46.4H0z"/>
		<path class="st20" d="M0,299.9L0,299.9c166.1-76.2,361.9-67.8,500-46.4v46.4C500,299.9,0,299.9,0,299.9z"/>
	</g>
	<path class="st21" d="M0,299.9L0,299.9c166.1-76.2,361.9-67.8,500-46.4v46.4C500,299.9,0,299.9,0,299.9z"/>
	<g>
		<path class="st22" d="M500,254.7v-0.6c-138.1-22-333.9-30.3-500,45.8v0.6h8.2C172.5,227.9,364.2,233.3,500,254.7z"/>
	</g>
	<g>
		<path class="st23" d="M0,275.5v-13.7c170.7-57.1,361.9-36.9,500-17.3v2.4C361.9,227.3,170.7,218.4,0,275.5z"/>
	</g>
</g>
<g>
	<g>
		<path class="st22" d="M454.5,132.7h-4.1c-2.3,0-4.1,1.8-4.1,4.2v14.9c0,2.4,1.7,4.2,4.1,4.2h4.1c2.3,0,4.1-1.8,4.1-4.2v-14.9
			C458.6,134.5,456.9,132.7,454.5,132.7z M450.5,134.5h4.1c0,0,0.6,0,0.6,0.6c0,0,0,0.6-0.6,0.6h-4.1
			C449.9,135.1,449.9,135.1,450.5,134.5C449.9,134.5,449.9,134.5,450.5,134.5z M452.2,154.7c-0.6,0-0.6-0.6-0.6-0.6
			c0-0.6,0.6-0.6,0.6-0.6c0.6,0,1.2,0.6,1.2,0.6C453.4,154.7,452.8,154.7,452.2,154.7z M457.5,152.3h-9.9v-16.1h9.9V152.3z"/>
		<rect x="448.1" y="137.5" class="st22" width="7.6" height="13.7"/>
	</g>
	<g>
		<path class="st22" d="M466.8,159.5h-29.7v-30.3h29.7V159.5z M438.8,157.7h26.8v-26.8h-26.8V157.7z"/>
	</g>
</g>
<g>
	<g>
		<g>
			<path class="st22" d="M452.8,95.8C452.8,96.4,452.2,96.4,452.8,95.8L452.8,95.8C452.2,96.4,452.2,96.4,452.8,95.8l-2.3-2.4
				l-7.6,7.1h18.6l-6.4-7.1L452.8,95.8z"/>
		</g>
		<g>
			<polygon class="st22" points="442.3,86.3 442.3,100 449.3,93.4 			"/>
		</g>
		<g>
			<polygon class="st22" points="461.5,85.7 442.9,85.7 452.2,95.2 			"/>
		</g>
		<g>
			<polygon class="st22" points="455.1,93.4 462.1,100.6 462.1,86.3 			"/>
		</g>
	</g>
	<g>
		<path class="st22" d="M466.8,108.3h-29.7V78h29.7V108.3z M438.8,107.1h26.8V79.7h-26.8V107.1z"/>
	</g>
</g>
<g>
	<g>
		<ellipse class="st24" cx="79.3" cy="142.2" rx="19.2" ry="19.6"/>
		<path class="st22" d="M85.7,145.8h-4.1c0-0.6,0-0.6,0-0.6c2.9-1.8,4.7-6,4.7-8.3c0-3-2.9-6.5-7-6.5c-3.5,0-7,3-7,6.5
			c0,2.4,1.7,7.1,4.7,8.3v0.6h-4.1c-1.2,0-2.3,1.8-2.3,3.6v5.4h16.9v-5.4C88,147.6,86.8,145.8,85.7,145.8z"/>
	</g>
</g>
<text id="contact" transform="matrix(0.9793 0 0 1 299.8516 97.1406)" class="st22 st25 st26">9876543210</text>
<text id="email" transform="matrix(0.9793 0 0 1 299.8516 150.0234)" class="st22 st25 st26">john@email.com</text>
<text id="name" transform="matrix(0.9793 0 0 1 23.2031 184.4531)" class="st27 st25 st28">John Doe</text>
<text id="cname" transform="matrix(0.9793 0 0 1 256.5313 38.957)" class="st22 st25 st28">Company Name</text>
<text id="desig" transform="matrix(0.9793 0 0 1 54.1836 206.9531)" class="st27 st25 st26">Profession</text>
</svg>
