<?xml version="1.0" encoding="utf-8"?>
<!-- Generator: Adobe Illustrator 19.2.0, SVG Export Plug-In . SVG Version: 6.00 Build 0)  -->
<svg version="1.1" id="Front" xmlns="http://www.w3.org/2000/svg" xmlns:xlink="http://www.w3.org/1999/xlink" x="0px" y="0px"
	 viewBox="0 0 500 300" style="enable-background:new 0 0 500 300;" xml:space="preserve">
<style type="text/css">
	.st0{fill:#0072BC;}
	.st1{fill:#007DC5;}
	.st2{fill:#034EA2;}
	.st3{fill:#0066B3;}
	.st4{fill:#0089CF;}
	.st5{fill:#005BAA;}
	.st6{fill:#0095DA;}
	.st7{opacity:0.5;}
	.st8{opacity:0.55;enable-background:new    ;}
	.st9{fill:#FFFFFF;}
	.st10{font-family:'ArialMT';}
	.st11{font-size:12.963px;}
	.st12{fill:#FFF200;}
	.st13{font-size:22.1291px;}
	.st14{font-size:47.4194px;}
	.st15{font-size:33.3333px;}
</style>
<g id="Background_1_">
	<g id="_x30_1_1_">
		<polygon class="st0" points="213,0 0,213 0,266.3 266.3,0 		"/>
		<polygon class="st1" points="266.3,0 0,266.3 0,300 19.6,300 319.6,0 		"/>
		<polygon class="st2" points="0,0 0,106.3 106.3,0 		"/>
		<polygon class="st3" points="159.6,0 0,159.6 0,213 213,0 		"/>
		<polygon class="st4" points="319.6,0 19.6,300 73,300 373,0 		"/>
		<polygon class="st5" points="106.3,0 0,106.3 0,159.6 159.6,0 		"/>
		<polygon class="st4" points="426.3,0 126.3,300 179.6,300 479.6,0 		"/>
		<polygon class="st6" points="373,0 73,300 126.3,300 426.3,0 		"/>
		<polygon class="st2" points="500,193 393,300 500,300 		"/>
		<polygon class="st3" points="500,86.3 286.3,300 339.6,300 500,139.6 		"/>
		<polygon class="st5" points="500,139.6 339.6,300 393,300 500,193 		"/>
		<polygon class="st1" points="500,0 479.6,0 179.6,300 233,300 500,33 		"/>
		<polygon class="st0" points="500,33 233,300 286.3,300 500,86.3 		"/>
	</g>
	<g id="_x30_2_1_" class="st7">
		<polygon class="st0" points="213,300 0,87 0,33.7 266.3,300 		"/>
		<polygon class="st1" points="266.3,300 0,33.7 0,0 19.6,0 319.6,300 		"/>
		<polygon class="st2" points="0,300 0,193.7 106.3,300 		"/>
		<polygon class="st3" points="159.6,300 0,140.4 0,87 213,300 		"/>
		<polygon class="st4" points="319.6,300 19.6,0 73,0 373,300 		"/>
		<polygon class="st5" points="106.3,300 0,193.7 0,140.4 159.6,300 		"/>
		<polygon class="st4" points="426.3,300 126.3,0 179.6,0 479.6,300 		"/>
		<polygon class="st6" points="373,300 73,0 126.3,0 426.3,300 		"/>
		<polygon class="st2" points="500,107 393,0 500,0 		"/>
		<polygon class="st3" points="500,213.7 286.3,0 339.6,0 500,160.4 		"/>
		<polygon class="st5" points="500,160.4 339.6,0 393,0 500,107 		"/>
		<polygon class="st1" points="500,300 479.6,300 179.6,0 233,0 500,267 		"/>
		<polygon class="st0" points="500,267 233,0 286.3,0 500,213.7 		"/>
	</g>
	<rect id="_x30_3" y="177.4" class="st8" width="500" height="122.6"/>
</g>
<text id="contact" transform="matrix(1 0 0 1 31.3501 260.9844)" class="st9 st10 st11">9876543210</text>
<text id="email" transform="matrix(1 0 0 1 366.5 260.9844)" class="st9 st10 st11">john@doe.com</text>
<g id="Icons">
	<path id="Phone" class="st12" d="M75.6,228.3l0.6-0.2c1.1-0.4,2-0.4,2.8,0.2s1.3,1.5,1.9,2.8c0.4,0.9,0.4,1.7,0.2,2.2
		c-0.2,0.6-0.7,0.9-1.7,1.1l-0.6,0.2c0-1.1-0.2-1.9-0.4-2.6C77.6,230.6,76.7,229.4,75.6,228.3z M69.6,208.7l0.7-0.2
		c0.9-0.4,1.5-0.4,1.9,0c0.4,0.2,0.9,0.9,1.1,1.9c0.9,2.8,0.4,4.4-1.7,5.2l-0.6,0.2c0.2-1.5,0.2-3.1-0.4-4.6
		C70.4,210.2,70,209.4,69.6,208.7z M65.2,211.9c0.9-1.1,2.2-2.2,3.7-3c0.4,0.7,0.7,1.5,1.1,2.4c0.4,1.3,0.6,3,0.4,4.6l-0.4,0.2
		c-1.3,0.6-1.3,2.8,0,6.9c1.5,4.3,2.8,6.3,4.3,5.7l0.4-0.2c1.3,1.1,2.2,2.4,2.6,3.9c0.2,0.7,0.4,1.7,0.4,2.6c-1.7,0.2-3.1,0.2-4.8,0
		c-1.3-1.5-2.4-3.1-3.3-5s-1.9-3.7-2.4-5.7c-0.7-2-1.3-4.3-1.5-6.3C65.2,215.9,65.2,213.9,65.2,211.9z"/>
</g>
<path id="Email" class="st12" d="M392.8,209.8h31.5v23.7h-31.5V209.8z M404.1,221.7l-10.6-10.6V232L404.1,221.7z M394.1,210.7
	l13.9,13.9c0.2,0.2,0.4,0.2,0.6,0.2c0.2,0,0.4,0,0.6-0.2l13.9-13.9H394.1z M412.4,222.2l-2.8,2.8c-0.4,0.4-0.7,0.6-1.1,0.6
	c-0.4,0-0.7-0.2-1.1-0.6l-2.8-2.8l-10.6,10.6H423L412.4,222.2z M413,221.7l10.6,10.6v-20.9L413,221.7z"/>
<g>
	<text id="desig" transform="matrix(1 0 0 1 253.3047 150)" class="st9 st10 st13">designation</text>
</g>
<g>
	<text id="name" transform="matrix(1 0 0 1 198.6396 124.4287)" class="st9 st10 st14">John Doe</text>
</g>
<g>
	<text id="cname" transform="matrix(1 0 0 1 129.2495 42.2461)" class="st9 st10 st15">Company Name</text>
</g>
<g id="Logo">
	<path class="st9" d="M123.5,115v-12.8h8.5v4.3l8.7-8.7l6.1-6.1l22.8,22.8V88.1c0-3.3-2.8-6.1-6.1-6.1h-43.3c-3.3,0-6.1,2.8-6.1,6.1
		v36.3L123.5,115z"/>
	<path class="st12" d="M146.9,103.7l-31.5,31.5c1.1,1.5,2.8,2.4,4.8,2.4h19.6v-9.4c0-0.9,0.7-1.5,1.5-1.5h11.1
		c0.7,0,1.5,0.7,1.5,1.5v9.4h9.6c3.3,0,6.1-2.8,6.1-6.1v-4.8L146.9,103.7z"/>
</g>
</svg>
