<?xml version="1.0" encoding="utf-8"?>
<!-- Generator: Adobe Illustrator 19.2.0, SVG Export Plug-In . SVG Version: 6.00 Build 0)  -->
<svg version="1.1" id="Front" xmlns="http://www.w3.org/2000/svg" xmlns:xlink="http://www.w3.org/1999/xlink" x="0px" y="0px"
	 viewBox="0 0 500 300" style="enable-background:new 0 0 500 300;" xml:space="preserve">
<style type="text/css">
	.st0{fill:#00A77E;}
	.st1{fill:#29292A;}
	.st2{fill:#FFFFFF;}
	.st3{font-family:'ArialNarrow';}
	.st4{font-size:16px;}
	.st5{fill:#FFFFFF;enable-background:new    ;}
	.st6{font-size:15px;}
	.st7{font-size:22.2222px;}
	.st8{font-size:27.7778px;}
	.st9{font-family:'ArialMT';}
	.st10{font-size:14.8148px;}
</style>
<g id="Background">
	<g id="Green_Bg">
		<g>
			<rect class="st0" width="500" height="300"/>
		</g>
	</g>
	<g id="Bkac_Bg">
		<g>
			<rect y="210.7" class="st1" width="500" height="89.3"/>
		</g>
	</g>
	<g id="White_Bg">
		<g>
			<rect y="179.1" class="st2" width="500" height="31.5"/>
		</g>
	</g>
</g>
<text id="contact" transform="matrix(1 0 0 1 131.8193 270.7402)" class="st2 st3 st4">9876543210</text>
<g id="Phone">
	<g>
		<path class="st2" d="M160.6,233.8v-0.4c-1.8,0.9-3.6,1.3-5.4,1.3c-0.9,0-2.2,0-3.1-0.4v0.9c0,1.3,0.4,2.2,0.9,2.2
			c0.4,0.4,1.3,0.4,2.7,0.4c1.8,0,3.1-0.4,4-0.9C160.1,236,160.6,235.1,160.6,233.8z M160.6,232L160.6,232c0-2.2,2.7-3.1,8-3.1
			c5.4,0,8,0.9,8,2.7v0.4c1.8,0.9,3.6,1.3,5.4,1.3c0.9,0,2.2,0,3.1-0.4c-0.4-2.2-0.9-4-1.8-5.4c-2.2-0.9-4.5-1.3-7.2-1.8
			c-2.7-0.4-4.9-0.4-7.6-0.4c-2.7,0-4.9,0-7.6,0.4c-2.2,0.4-4.9,0.9-7.2,1.8c-0.9,1.8-1.8,3.6-1.8,5.4c0.9,0.4,2.2,0.4,3.1,0.4
			C157,233.3,158.8,232.9,160.6,232z M176.7,232.9v0.9c0,1.3,0.4,2.2,1.3,2.7c0.9,0.4,2.2,0.9,4,0.9c1.3,0,2.2,0,2.7-0.4
			c0.4-0.4,0.9-1.3,0.9-2.2v-0.9c-0.9,0.4-1.8,0.4-3.1,0.4C180.2,234.2,178.4,233.8,176.7,232.9z M179.8,242.3l-4.5-7.6v-3.1h-4v2.2
			h-5.4v-2.2h-4v3.1l-4.5,7.2c-1.3,1.8-1.8,3.6-1.8,5.4v4h25.9v-3.6c0-1.3,0-2.2-0.4-2.7C181.1,244.1,180.7,243.2,179.8,242.3z
			 M165.9,243.6h-2.2v-1.3h2.2V243.6z M165.9,240.9h-2.2v-1.3h2.2V240.9z M165.9,238.3h-2.2v-1.3h2.2V238.3z M169.5,243.6h-2.2v-1.3
			h2.2V243.6z M169.5,240.9h-2.2v-1.3h2.2V240.9z M169.5,238.3h-2.2v-1.3h2.2V238.3z M173.5,243.6h-2.2v-1.3h2.2V243.6z
			 M173.5,240.9h-2.2v-1.3h2.2V240.9z M173.5,238.3h-2.2v-1.3h2.2V238.3z"/>
	</g>
</g>
<g id="Web">
	<g>
		<path class="st2" d="M323.2,247.2v-25.6h-34.1v25.6h15v2h-6.5v2h17.1v-2h-6.5v-2H323.2z M293.1,243.2v-17.1h25.6v17.1H293.1z"/>
	</g>
</g>
<text id="admin_x40_businesscardjournal.com_businesscardjournal.com" image-rendering="email" transform="matrix(1 0 0 1 253.1523 270.5176)" class="st5 st3 st6">johndoe@email.com</text>
<text id="cname" transform="matrix(1 0 0 1 178.6138 203.7754)" class="st0 st3 st7">COMPANY NAME</text>
<text id="name" transform="matrix(1 0 0 1 194.353 126.6553)" class="st2 st3 st8">JOHN DOE</text>
<g id="Logo_1_">
	<g id="Logo">
		<g>
			<path class="st2" d="M235.2,74.6c0-6.7-5-12-11.5-12.6v14.4h11.5V74.6z M209.8,88.7h25.4v-9.8h-25.4V88.7z M209.8,74.6v1.9h11.5
				V62C214.8,62.8,209.8,68.1,209.8,74.6z M222.4,37.8L222.4,37.8L222.4,37.8L222.4,37.8l67.4,50.9h5.2l-72.6-60.6l-72.6,60.6h5.2
				L222.4,37.8z M309.4,55.2L309.4,55.2L309.4,55.2L309.4,55.2l44.3,33.3h3.3l-47.6-39.8l-28.7,23.9l2.6,2L309.4,55.2z M273.9,44.8
				h-13v11.3l13,10.7V44.8z M123.5,93.1v2.6h260v-2.6H123.5z"/>
		</g>
	</g>
</g>
<text id="desig" transform="matrix(1 0 0 1 214.4067 143.8809)" class="st2 st9 st10">Designation</text>
</svg>
