<?xml version="1.0" encoding="utf-8"?>
<!-- Generator: Adobe Illustrator 19.2.0, SVG Export Plug-In . SVG Version: 6.00 Build 0)  -->
<svg version="1.1" id="Front" xmlns="http://www.w3.org/2000/svg" xmlns:xlink="http://www.w3.org/1999/xlink" x="0px" y="0px"
	 viewBox="0 0 500 300" style="enable-background:new 0 0 500 300;" xml:space="preserve">
<style type="text/css">
	.st0{fill:#FFFEF2;}
	.st1{fill:#29292A;}
	.st2{fill:#BDBDB0;}
	.st3{fill:#E6E7E8;}
	.st4{font-family:'ArialNarrow';}
	.st5{font-size:16px;}
	.st6{font-size:15px;}
	.st7{font-size:30px;}
	.st8{font-size:29.6296px;}
</style>
<g id="Background">
	<g id="Bg">
		<g>
			<rect class="st0" width="500" height="300"/>
		</g>
	</g>
	<g id="Black_Bg_2_">
		<g>
			<rect y="180.4" class="st1" width="500" height="119.6"/>
		</g>
	</g>
	<g id="Buildings_by_artshare.ru">
		<g>
			<path class="st2" d="M75.6,172h3.3v-1.9h23.3v1.9h3.3V168h-30V172z M75.6,162h3.3v-1.9h23.3v1.9h3.3V158h-30V162z M75.6,167h3.3
				v-1.9h23.3v1.9h3.3V163h-30V167z M75.6,177h3.3v-1.9h23.3v1.9h3.3V173h-30V177z M54.6,168.3h20v-3h-20V168.3z M54.6,172.2h20v-3
				h-20V172.2z M75.6,180.4h29.8V178H75.6V180.4z M54.6,176.1h20v-3h-20V176.1z M54.6,161.5v3h20v-3H54.6z M106.1,177.4h2v-2h2.4v2
				h1.7v-2h2.4v2h1.7v-2h2.2v2h1.9v-2h2.4v2h2v-3.9h-18.5v3.9H106.1z M75.6,157h3.3v-1.9h23.3v1.9h3.3v-4.3h-30V157z M106.1,163.3h2
				v-2h2.4v2h1.7v-2h2.4v2h1.7v-2h2.2v2h1.9v-2h2.4v2h2v-3.7h-18.5v3.7H106.1z M106.1,168h2v-2h2.4v2h1.7v-2h2.4v2h1.7v-2h2.2v2h1.9
				v-2h2.4v2h2v-3.7h-18.5v3.7H106.1z M106.1,154.3h2V152h2.4v2.2h1.7V152h2.4v2.2h1.7V152h2.2v2.2h1.9V152h2.4v2.2h2v-3.7h-18.5
				v3.7H106.1z M106.1,158.9h2v-2h2.4v2h1.7v-2h2.4v2h1.7v-2h2.2v2h1.9v-2h2.4v2h2v-3.7h-18.5v3.7H106.1z M106.1,172.6h2v-2.2h2.4
				v2.2h1.7v-2.2h2.4v2.2h1.7v-2.2h2.2v2.2h1.9v-2.2h2.4v2.2h2v-3.7h-18.5v3.7H106.1z M111.5,133.9H100v5.7h-7.2v-15.2h-10v27.2
				h22.6V140h6.1C111.5,140,111.5,133.9,111.5,133.9z M106.1,180.4h18.5v-2h-18.5C106.1,178.3,106.1,180.4,106.1,180.4z M74.6,134.3
				h-20v3h20V134.3z M74.6,118.7h-20v3h20V118.7z M74.6,110.9h-20v3h20V110.9z M74.6,114.8h-20v3h20V114.8z M74.6,122.6h-20v3h20
				V122.6z M106.1,149.6h2v-2.2h2.4v2.2h1.7v-2.2h2.4v2.2h1.7v-2.2h2.2v2.2h1.9v-2.2h2.4v2.2h2v-3.7h-18.5v3.7H106.1z M74.6,107h-20
				v3h20V107z M153.5,100.9l-6.7-4.6v37h6.7V100.9z M74.6,126.5h-20v3h20V126.5z M74.6,102.6h-20v3.5h20V102.6z M74.6,145.9h-20v3
				h20V145.9z M74.6,157.6h-20v3h20V157.6z M74.6,130.4h-20v3h20V130.4z M41.3,164.4L41.3,164.4v15.9h12.4v-31.7H41.1v15.7H41.3z
				 M74.6,153.7h-20v3h20V153.7z M33.7,180.4h6.5v-15h-6.5V180.4z M74.6,149.8h-20v3h20V149.8z M74.6,138.1h-20v3h20V138.1z
				 M74.6,142h-20v3h20V142z M54.6,180.4h20V177h-20V180.4z M145.9,95.9L118.5,107v32.8h7v23.7h18v-30.2h2.4V95.9z M163.9,140.4h5.7
				v-6.1h-5.7V140.4z M163.9,153.9h5.7V148h-5.7V153.9z M163.9,147h5.7v-5.9h-5.7V147z M163.9,167.4h5.7v-5.9h-5.7V167.4z
				 M163.9,160.6h5.7v-5.9h-5.7V160.6z M157.2,147h5.7v-5.9h-5.7V147z M157.2,140.4h5.7v-6.1h-5.7V140.4z M163.9,180.4h5.7v-5.6
				h-5.7V180.4z M157.2,153.9h5.7V148h-5.7V153.9z M163.9,174.1h5.7v-5.9h-5.7V174.1z M170.4,140.4h5.6v-6.1h-5.6V140.4z
				 M170.4,180.4h5.6v-5.6h-5.6V180.4z M170.4,153.9h5.6V148h-5.6V153.9z M466.5,175.4v-11.1h-8v-21.1h-9.8v-7.2H443v-20.6h-17.4
				V93.7h-25.2v28.9H390v-17h-21.3v43.3h-3.5v-23.7h-8.7v23.7h-2.8v-30.6h-17.8V153h-7.4v-9.1h-10.2v18.5H312v-37h-19.4v-7.8h-2.4
				v-1.9H288v1.9h-2.2v-1.9h-2.2v1.9h-3.3V75.2h-2v-2.4h-0.9v-3.5h-3.1v3.5h-3.3v2.4h-4.4V73h-5v2.2h-5.2v33.5h-11.3V76.3h-3v-7.4
				h-3V57.8h-2.2l-0.4-13.3h-1.7V32.8H233v11.7h-2.2l-0.4,13.3h-2.2v11.1h-3v7.4h-3v33.9h-16.7V150h-2v-31.3h-12.6v22.6h-14.8v39.1
				H312l0,0h154.6v-5H466.5z M179.6,176.9H178V175h1.7V176.9z M179.6,173.3H178v-1.9h1.7V173.3z M179.6,170.4H178v-1.9h1.7V170.4z
				 M179.6,167H178v-1.9h1.7V167z M179.6,163.5H178v-1.9h1.7V163.5z M179.6,159.1H178v-1.9h1.7V159.1z M179.6,155.6H178v-1.9h1.7
				V155.6z M179.6,152.6H178v-1.9h1.7V152.6z M179.6,149.3H178v-1.9h1.7V149.3z M179.6,145.7H178v-1.9h1.7V145.7z M183,176.9h-1.7
				V175h1.7V176.9z M183,173.3h-1.7v-1.9h1.7V173.3z M183,170.4h-1.7v-1.9h1.7V170.4z M183,167h-1.7v-1.9h1.7V167z M183,163.5h-1.7
				v-1.9h1.7V163.5z M183,159.1h-1.7v-1.9h1.7V159.1z M183,155.6h-1.7v-1.9h1.7V155.6z M183,152.6h-1.7v-1.9h1.7V152.6z M183,149.3
				h-1.7v-1.9h1.7V149.3z M183,145.7h-1.7v-1.9h1.7V145.7z M186.5,176.9h-1.7V175h1.7V176.9z M186.5,173.3h-1.7v-1.9h1.7V173.3z
				 M186.5,170.4h-1.7v-1.9h1.7V170.4z M186.5,167h-1.7v-1.9h1.7V167z M186.5,163.5h-1.7v-1.9h1.7V163.5z M186.5,159.1h-1.7v-1.9
				h1.7V159.1z M186.5,155.6h-1.7v-1.9h1.7V155.6z M186.5,152.6h-1.7v-1.9h1.7V152.6z M186.5,149.3h-1.7v-1.9h1.7V149.3z
				 M186.5,145.7h-1.7v-1.9h1.7V145.7z M189.8,176.9h-1.7V175h1.7V176.9z M189.8,173.3h-1.7v-1.9h1.7V173.3z M189.8,170.4h-1.7v-1.9
				h1.7V170.4z M189.8,167h-1.7v-1.9h1.7V167z M189.8,163.5h-1.7v-1.9h1.7V163.5z M189.8,159.1h-1.7v-1.9h1.7V159.1z M189.8,155.6
				h-1.7v-1.9h1.7V155.6z M189.8,152.6h-1.7v-1.9h1.7V152.6z M189.8,149.3h-1.7v-1.9h1.7V149.3z M189.8,145.7h-1.7v-1.9h1.7V145.7z
				 M229.8,166.3h-2.4v-2.2h2.4V166.3z M229.8,161.9h-2.4v-2.2h2.4V161.9z M229.8,158.1h-2.4v-2.2h2.4V158.1z M229.8,154.1h-2.4
				v-2.2h2.4V154.1z M229.8,149.8h-2.4v-2.2h2.4V149.8z M229.8,144.3h-2.4V142h2.4V144.3z M229.8,139.8h-2.4v-2.2h2.4V139.8z
				 M229.8,136.3h-2.4v-2.2h2.4V136.3z M229.8,132.2h-2.4V130h2.4V132.2z M229.8,127.8h-2.4v-2.2h2.4V127.8z M229.8,123h-2.4v-2.2
				h2.4V123z M229.8,118.5h-2.4v-2.2h2.4V118.5z M229.8,114.8h-2.4v-2.2h2.4V114.8z M229.8,110.9h-2.4v-2.2h2.4V110.9z M229.8,106.5
				h-2.4v-2.2h2.4V106.5z M229.8,100.9h-2.4v-2.2h2.4V100.9z M229.8,96.5h-2.4v-2h2.4V96.5z M229.8,93h-2.4v-2.2h2.4V93z
				 M229.8,88.9h-2.4v-2.2h2.4V88.9z M229.8,84.4h-2.4v-2.2h2.4V84.4z M234.4,166.3H232v-2.2h2.4V166.3z M234.4,161.9H232v-2.2h2.4
				V161.9z M234.4,158.1H232v-2.2h2.4V158.1z M234.4,154.1H232v-2.2h2.4V154.1z M234.4,149.8H232v-2.2h2.4V149.8z M234.4,144.3H232
				V142h2.4V144.3z M234.4,139.8H232v-2.2h2.4V139.8z M234.4,136.3H232v-2.2h2.4V136.3z M234.4,132.2H232V130h2.4V132.2z
				 M234.4,127.8H232v-2.2h2.4V127.8z M234.4,123H232v-2.2h2.4V123z M234.4,118.5H232v-2.2h2.4V118.5z M234.4,114.8H232v-2.2h2.4
				V114.8z M234.4,110.9H232v-2.2h2.4V110.9z M234.4,106.5H232v-2.2h2.4V106.5z M234.4,100.9H232v-2.2h2.4V100.9z M234.4,96.5H232
				v-2h2.4V96.5z M234.4,93H232v-2.2h2.4V93z M234.4,88.9H232v-2.2h2.4V88.9z M234.4,84.4H232v-2.2h2.4V84.4z M239.8,166.3h-2.4
				v-2.2h2.4V166.3z M239.8,161.9h-2.4v-2.2h2.4V161.9z M239.8,158.1h-2.4v-2.2h2.4V158.1z M239.8,154.1h-2.4v-2.2h2.4V154.1z
				 M239.8,149.8h-2.4v-2.2h2.4V149.8z M239.8,144.3h-2.4V142h2.4V144.3z M239.8,139.8h-2.4v-2.2h2.4V139.8z M239.8,136.3h-2.4v-2.2
				h2.4V136.3z M239.8,132.2h-2.4V130h2.4V132.2z M239.8,127.8h-2.4v-2.2h2.4V127.8z M239.8,123h-2.4v-2.2h2.4V123z M239.8,118.5
				h-2.4v-2.2h2.4V118.5z M239.8,114.8h-2.4v-2.2h2.4V114.8z M239.8,110.9h-2.4v-2.2h2.4V110.9z M239.8,106.5h-2.4v-2.2h2.4V106.5z
				 M239.8,100.9h-2.4v-2.2h2.4V100.9z M239.8,96.5h-2.4v-2h2.4V96.5z M239.8,93h-2.4v-2.2h2.4V93z M239.8,88.9h-2.4v-2.2h2.4V88.9z
				 M239.8,84.4h-2.4v-2.2h2.4V84.4z M260.6,166.9h-1.1V82.8h1.1V166.9z M263.3,166.9h-1.1V82.8h1.1V166.9z M265.9,166.9h-1.1V82.8
				h1.1V166.9z M268.7,166.9h-1.1V82.8h1.1V166.9z M271.5,166.9h-1.1V82.8h1.1V166.9z M274.3,166.9h-1.1V82.8h1.1V166.9z
				 M276.9,166.9h-0.9V82.8h1.1v84.1H276.9z M296.1,169.4h-2v-2.2h2V169.4z M296.1,165h-2v-2h2V165z M296.1,161.5h-2v-2.2h2V161.5z
				 M296.1,157.4h-2v-2.2h2V157.4z M296.1,153h-2v-2.2h2V153z M296.1,147.4h-2v-2.2h2V147.4z M296.1,143h-2v-2.2h2V143z
				 M296.1,139.3h-2V137h2V139.3z M296.1,135.2h-2V133h2V135.2z M296.1,130.7h-2v-2.2h2V130.7z M300.4,169.4h-2.2v-2.2h2v2.2H300.4z
				 M300.4,165h-2.2v-2h2v2H300.4z M300.4,161.5h-2.2v-2.2h2v2.2H300.4z M300.4,157.4h-2.2v-2.2h2v2.2H300.4z M300.4,153h-2.2v-2.2
				h2v2.2H300.4z M300.4,147.4h-2.2v-2.2h2v2.2H300.4z M300.4,143h-2.2v-2.2h2v2.2H300.4z M300.4,139.3h-2.2V137h2v2.2H300.4z
				 M300.4,135.2h-2.2V133h2v2.2H300.4z M300.4,130.7h-2.2v-2.2h2v2.2H300.4z M304.8,169.4h-2v-2.2h2V169.4z M304.8,165h-2v-2h2V165
				z M304.8,161.5h-2v-2.2h2V161.5z M304.8,157.4h-2v-2.2h2V157.4z M304.8,153h-2v-2.2h2V153z M304.8,147.4h-2v-2.2h2V147.4z
				 M304.8,143h-2v-2.2h2V143z M304.8,139.3h-2V137h2V139.3z M304.8,135.2h-2V133h2V135.2z M304.8,130.7h-2v-2.2h2V130.7z
				 M308.9,169.4h-2v-2.2h2V169.4z M308.9,165h-2v-2h2V165z M308.9,161.5h-2v-2.2h2V161.5z M308.9,157.4h-2v-2.2h2V157.4z
				 M308.9,153h-2v-2.2h2V153z M308.9,147.4h-2v-2.2h2V147.4z M308.9,143h-2v-2.2h2V143z M308.9,139.3h-2V137h2V139.3z M308.9,135.2
				h-2V133h2V135.2z M308.9,130.7h-2v-2.2h2V130.7z M320.4,174.1h-1.1V173h1.1V174.1z M320.4,172h-1.1v-1.1h1.1V172z M320.4,169.8
				h-1.1v-1.1h1.1V169.8z M320.4,167.8h-1.1v-1.1h1.1V167.8z M320.4,165.6h-1.1v-1.1h1.1V165.6z M320.4,163.5h-1.1v-1.1h1.1V163.5z
				 M320.4,161.3h-1.1v-1.1h1.1V161.3z M320.4,159.3h-1.1v-1.1h1.1V159.3z M320.4,157h-1.1v-1.1h1.1V157z M320.4,155h-1.1v-1.3h1.1
				V155z M320.4,152.8h-1.1v-1.1h1.1V152.8z M320.4,150.7h-1.1v-1.1h1.1V150.7z M320.4,148.5h-1.1v-1.1h1.1V148.5z M320.4,146.5
				h-1.1v-1.1h1.1V146.5z M321.9,174.1h-1.1V173h1.1V174.1z M321.9,172h-1.1v-1.1h1.1V172z M321.9,169.8h-1.1v-1.1h1.1V169.8z
				 M321.9,167.8h-1.1v-1.1h1.1V167.8z M321.9,165.6h-1.1v-1.1h1.1V165.6z M321.9,163.5h-1.1v-1.1h1.1V163.5z M321.9,161.3h-1.1
				v-1.1h1.1V161.3z M321.9,159.3h-1.1v-1.1h1.1V159.3z M321.9,157h-1.1v-1.1h1.1V157z M321.9,155h-1.1v-1.3h1.1V155z M321.9,152.8
				h-1.1v-1.1h1.1V152.8z M321.9,150.7h-1.1v-1.1h1.1V150.7z M321.9,148.5h-1.1v-1.1h1.1V148.5z M321.9,146.5h-1.1v-1.1h1.1V146.5z
				 M323.3,174.1h-1.1V173h1.1V174.1z M323.3,172h-1.1v-1.1h1.1V172z M323.3,169.8h-1.1v-1.1h1.1V169.8z M323.3,167.8h-1.1v-1.1h1.1
				V167.8z M323.3,165.6h-1.1v-1.1h1.1V165.6z M323.3,163.5h-1.1v-1.1h1.1V163.5z M323.3,161.3h-1.1v-1.1h1.1V161.3z M323.3,159.3
				h-1.1v-1.1h1.1V159.3z M323.3,157h-1.1v-1.1h1.1V157z M323.3,155h-1.1v-1.3h1.1V155z M323.3,152.8h-1.1v-1.1h1.1V152.8z
				 M323.3,150.7h-1.1v-1.1h1.1V150.7z M323.3,148.5h-1.1v-1.1h1.1V148.5z M323.3,146.5h-1.1v-1.1h1.1V146.5z M324.8,174.1h-1.1V173
				h1.1V174.1z M324.8,172h-1.1v-1.1h1.1V172z M324.8,169.8h-1.1v-1.1h1.1V169.8z M324.8,167.8h-1.1v-1.1h1.1V167.8z M324.8,165.6
				h-1.1v-1.1h1.1V165.6z M324.8,163.5h-1.1v-1.1h1.1V163.5z M324.8,161.3h-1.1v-1.1h1.1V161.3z M324.8,159.3h-1.1v-1.1h1.1V159.3z
				 M324.8,157h-1.1v-1.1h1.1V157z M324.8,155h-1.1v-1.3h1.1V155z M324.8,152.8h-1.1v-1.1h1.1V152.8z M324.8,150.7h-1.1v-1.1h1.1
				V150.7z M324.8,148.5h-1.1v-1.1h1.1V148.5z M324.8,146.5h-1.1v-1.1h1.1V146.5z M326.1,174.1H325V173h1.1V174.1z M326.1,172H325
				v-1.1h1.1V172z M326.1,169.8H325v-1.1h1.1V169.8z M326.1,167.8H325v-1.1h1.1V167.8z M326.1,165.6H325v-1.1h1.1V165.6z
				 M326.1,163.5H325v-1.1h1.1V163.5z M326.1,161.3H325v-1.1h1.1V161.3z M326.1,159.3H325v-1.1h1.1V159.3z M326.1,157H325v-1.1h1.1
				V157z M326.1,155H325v-1.3h1.1V155z M326.1,152.8H325v-1.1h1.1V152.8z M326.1,150.7H325v-1.1h1.1V150.7z M326.1,148.5H325v-1.1
				h1.1V148.5z M326.1,146.5H325v-1.1h1.1V146.5z M327.6,174.1h-1.1V173h1.1V174.1z M327.6,172h-1.1v-1.1h1.1V172z M327.6,169.8
				h-1.1v-1.1h1.1V169.8z M327.6,167.8h-1.1v-1.1h1.1V167.8z M327.6,165.6h-1.1v-1.1h1.1V165.6z M327.6,163.5h-1.1v-1.1h1.1V163.5z
				 M327.6,161.3h-1.1v-1.1h1.1V161.3z M327.6,159.3h-1.1v-1.1h1.1V159.3z M327.6,157h-1.1v-1.1h1.1V157z M327.6,155h-1.1v-1.3h1.1
				V155z M327.6,152.8h-1.1v-1.1h1.1V152.8z M327.6,150.7h-1.1v-1.1h1.1V150.7z M327.6,148.5h-1.1v-1.1h1.1V148.5z M327.6,146.5
				h-1.1v-1.1h1.1V146.5z M339.4,170.7h-1.9v-2h1.9V170.7z M339.4,167h-1.9v-2h1.9V167z M339.4,163.3h-1.9v-2h1.9V163.3z
				 M339.4,159.6h-1.9v-2h1.9V159.6z M339.4,155.9h-1.9v-2h1.9V155.9z M339.4,152.2h-1.9v-2h1.9V152.2z M339.4,148.5h-1.9v-2h1.9
				V148.5z M339.4,144.8h-1.9v-2h1.9V144.8z M339.4,141.1h-1.9v-2h1.9V141.1z M339.4,137.4h-1.9v-2h1.9V137.4z M339.4,133.7h-1.9v-2
				h1.9V133.7z M339.4,130h-1.9v-2h1.9V130z M339.4,126.3h-1.9v-2h1.9V126.3z M339.4,122.6h-1.9v-2h1.9V122.6z M342,170.7h-1.9v-2
				h1.9V170.7z M342,167h-1.9v-2h1.9V167z M342,163.3h-1.9v-2h1.9V163.3z M342,159.6h-1.9v-2h1.9V159.6z M342,155.9h-1.9v-2h1.9
				V155.9z M342,152.2h-1.9v-2h1.9V152.2z M342,148.5h-1.9v-2h1.9V148.5z M342,144.8h-1.9v-2h1.9V144.8z M342,141.1h-1.9v-2h1.9
				V141.1z M342,137.4h-1.9v-2h1.9V137.4z M342,133.7h-1.9v-2h1.9V133.7z M342,130h-1.9v-2h1.9V130z M342,126.3h-1.9v-2h1.9V126.3z
				 M342,122.6h-1.9v-2h1.9V122.6z M344.6,170.7h-1.9v-2h1.9V170.7z M344.6,167h-1.9v-2h1.9V167z M344.6,163.3h-1.9v-2h1.9V163.3z
				 M344.6,159.6h-1.9v-2h1.9V159.6z M344.6,155.9h-1.9v-2h1.9V155.9z M344.6,152.2h-1.9v-2h1.9V152.2z M344.6,148.5h-1.9v-2h1.9
				V148.5z M344.6,144.8h-1.9v-2h1.9V144.8z M344.6,141.1h-1.9v-2h1.9V141.1z M344.6,137.4h-1.9v-2h1.9V137.4z M344.6,133.7h-1.9v-2
				h1.9V133.7z M344.6,130h-1.9v-2h1.9V130z M344.6,126.3h-1.9v-2h1.9V126.3z M344.6,122.6h-1.9v-2h1.9V122.6z M347,170.7h-1.9v-2
				h1.9V170.7z M347,167h-1.9v-2h1.9V167z M347,163.3h-1.9v-2h1.9V163.3z M347,159.6h-1.9v-2h1.9V159.6z M347,155.9h-1.9v-2h1.9
				V155.9z M347,152.2h-1.9v-2h1.9V152.2z M347,148.5h-1.9v-2h1.9V148.5z M347,144.8h-1.9v-2h1.9V144.8z M347,141.1h-1.9v-2h1.9
				V141.1z M347,137.4h-1.9v-2h1.9V137.4z M347,133.7h-1.9v-2h1.9V133.7z M347,130h-1.9v-2h1.9V130z M347,126.3h-1.9v-2h1.9V126.3z
				 M347,122.6h-1.9v-2h1.9V122.6z M349.6,170.7h-1.9v-2h1.9V170.7z M349.6,167h-1.9v-2h1.9V167z M349.6,163.3h-1.9v-2h1.9V163.3z
				 M349.6,159.6h-1.9v-2h1.9V159.6z M349.6,155.9h-1.9v-2h1.9V155.9z M349.6,152.2h-1.9v-2h1.9V152.2z M349.6,148.5h-1.9v-2h1.9
				V148.5z M349.6,144.8h-1.9v-2h1.9V144.8z M349.6,141.1h-1.9v-2h1.9V141.1z M349.6,137.4h-1.9v-2h1.9V137.4z M349.6,133.7h-1.9v-2
				h1.9V133.7z M349.6,130h-1.9v-2h1.9V130z M349.6,126.3h-1.9v-2h1.9V126.3z M349.6,122.6h-1.9v-2h1.9V122.6z M352.2,170.7h-1.9v-2
				h1.9V170.7z M352.2,167h-1.9v-2h1.9V167z M352.2,163.3h-1.9v-2h1.9V163.3z M352.2,159.6h-1.9v-2h1.9V159.6z M352.2,155.9h-1.9v-2
				h1.9V155.9z M352.2,152.2h-1.9v-2h1.9V152.2z M352.2,148.5h-1.9v-2h1.9V148.5z M352.2,144.8h-1.9v-2h1.9V144.8z M352.2,141.1
				h-1.9v-2h1.9V141.1z M352.2,137.4h-1.9v-2h1.9V137.4z M352.2,133.7h-1.9v-2h1.9V133.7z M352.2,130h-1.9v-2h1.9V130z M352.2,126.3
				h-1.9v-2h1.9V126.3z M352.2,122.6h-1.9v-2h1.9V122.6z M373,168.1h-2.2v-2.4h2.2V168.1z M373,163.7h-2.2v-2.4h2.2V163.7z
				 M373,159.3h-2.2v-2.4h2.2V159.3z M373,154.8h-2.2v-2.4h2.2V154.8z M373,150.6h-2.2v-2.4h2.2V150.6z M373,146.1h-2.2v-2.4h2.2
				V146.1z M373,141.7h-2.2v-2.4h2.2V141.7z M373,137.2h-2.2v-2.4h2.2V137.2z M373,132.8h-2.2v-2.4h2.2V132.8z M373,128.3h-2.2v-2.4
				h2.2V128.3z M373,123.9h-2.2v-2.4h2.2V123.9z M373,119.6h-2.2v-2.4h2.2V119.6z M373,115.2h-2.2v-2.4h2.2V115.2z M373,110.7h-2.2
				v-2.4h2.2V110.7z M376.1,168.1h-2.2v-2.4h2.2V168.1z M376.1,163.7h-2.2v-2.4h2.2V163.7z M376.1,159.3h-2.2v-2.4h2.2V159.3z
				 M376.1,154.8h-2.2v-2.4h2.2V154.8z M376.1,150.6h-2.2v-2.4h2.2V150.6z M376.1,146.1h-2.2v-2.4h2.2V146.1z M376.1,141.7h-2.2
				v-2.4h2.2V141.7z M376.1,137.2h-2.2v-2.4h2.2V137.2z M376.1,132.8h-2.2v-2.4h2.2V132.8z M376.1,128.3h-2.2v-2.4h2.2V128.3z
				 M376.1,123.9h-2.2v-2.4h2.2V123.9z M376.1,119.6h-2.2v-2.4h2.2V119.6z M376.1,115.2h-2.2v-2.4h2.2V115.2z M376.1,110.7h-2.2
				v-2.4h2.2V110.7z M379.1,168.1h-2.2v-2.4h2.2V168.1z M379.1,163.7h-2.2v-2.4h2.2V163.7z M379.1,159.3h-2.2v-2.4h2.2V159.3z
				 M379.1,154.8h-2.2v-2.4h2.2V154.8z M379.1,150.6h-2.2v-2.4h2.2V150.6z M379.1,146.1h-2.2v-2.4h2.2V146.1z M379.1,141.7h-2.2
				v-2.4h2.2V141.7z M379.1,137.2h-2.2v-2.4h2.2V137.2z M379.1,132.8h-2.2v-2.4h2.2V132.8z M379.1,128.3h-2.2v-2.4h2.2V128.3z
				 M379.1,123.9h-2.2v-2.4h2.2V123.9z M379.1,119.6h-2.2v-2.4h2.2V119.6z M379.1,115.2h-2.2v-2.4h2.2V115.2z M379.1,110.7h-2.2
				v-2.4h2.2V110.7z M382.2,168.1H380v-2.4h2.2V168.1z M382.2,163.7H380v-2.4h2.2V163.7z M382.2,159.3H380v-2.4h2.2V159.3z
				 M382.2,154.8H380v-2.4h2.2V154.8z M382.2,150.6H380v-2.4h2.2V150.6z M382.2,146.1H380v-2.4h2.2V146.1z M382.2,141.7H380v-2.4
				h2.2V141.7z M382.2,137.2H380v-2.4h2.2V137.2z M382.2,132.8H380v-2.4h2.2V132.8z M382.2,128.3H380v-2.4h2.2V128.3z M382.2,123.9
				H380v-2.4h2.2V123.9z M382.2,119.6H380v-2.4h2.2V119.6z M382.2,115.2H380v-2.4h2.2V115.2z M382.2,110.7H380v-2.4h2.2V110.7z
				 M385.2,168.1H383v-2.4h2.2V168.1z M385.2,163.7H383v-2.4h2.2V163.7z M385.2,159.3H383v-2.4h2.2V159.3z M385.2,154.8H383v-2.4
				h2.2V154.8z M385.2,150.6H383v-2.4h2.2V150.6z M385.2,146.1H383v-2.4h2.2V146.1z M385.2,141.7H383v-2.4h2.2V141.7z M385.2,137.2
				H383v-2.4h2.2V137.2z M385.2,132.8H383v-2.4h2.2V132.8z M385.2,128.3H383v-2.4h2.2V128.3z M385.2,123.9H383v-2.4h2.2V123.9z
				 M385.2,119.6H383v-2.4h2.2V119.6z M385.2,115.2H383v-2.4h2.2V115.2z M385.2,110.7H383v-2.4h2.2V110.7z M388.3,168.1h-2.2v-2.4
				h2.2V168.1z M388.3,163.7h-2.2v-2.4h2.2V163.7z M388.3,159.3h-2.2v-2.4h2.2V159.3z M388.3,154.8h-2.2v-2.4h2.2V154.8z
				 M388.3,150.6h-2.2v-2.4h2.2V150.6z M388.3,146.1h-2.2v-2.4h2.2V146.1z M388.3,141.7h-2.2v-2.4h2.2V141.7z M388.3,137.2h-2.2
				v-2.4h2.2V137.2z M388.3,132.8h-2.2v-2.4h2.2V132.8z M388.3,128.3h-2.2v-2.4h2.2V128.3z M388.3,123.9h-2.2v-2.4h2.2V123.9z
				 M388.3,119.6h-2.2v-2.4h2.2V119.6z M388.3,115.2h-2.2v-2.4h2.2V115.2z M388.3,110.7h-2.2v-2.4h2.2V110.7z M405.4,167.6h-2.6
				v-2.8h2.6V167.6z M405.4,162.4h-2.6v-2.8h2.6V162.4z M405.4,157h-2.6v-2.8h2.6V157z M405.4,151.9h-2.6v-2.8h2.6V151.9z
				 M405.4,146.7h-2.6v-2.8h2.6V146.7z M405.4,141.5h-2.6v-2.8h2.6V141.5z M405.4,136.3h-2.6v-3h2.6V136.3z M405.4,130.9h-2.6v-2.8
				h2.6V130.9z M405.4,125.7h-2.6V123h2.6V125.7z M405.4,120.6h-2.6v-2.8h2.6V120.6z M405.4,115.4h-2.6v-2.8h2.6V115.4z
				 M405.4,110.2h-2.6v-2.8h2.6V110.2z M405.4,105h-2.6v-2.8h2.6V105z M405.4,99.6h-2.6v-2.8h2.6V99.6z M408.9,167.6h-2.6v-2.8h2.6
				V167.6z M408.9,162.4h-2.6v-2.8h2.6V162.4z M408.9,157h-2.6v-2.8h2.6V157z M408.9,151.9h-2.6v-2.8h2.6V151.9z M408.9,146.7h-2.6
				v-2.8h2.6V146.7z M408.9,141.5h-2.6v-2.8h2.6V141.5z M408.9,136.3h-2.6v-3h2.6V136.3z M408.9,130.9h-2.6v-2.8h2.6V130.9z
				 M408.9,125.7h-2.6V123h2.6V125.7z M408.9,120.6h-2.6v-2.8h2.6V120.6z M408.9,115.4h-2.6v-2.8h2.6V115.4z M408.9,110.2h-2.6v-2.8
				h2.6V110.2z M408.9,105h-2.6v-2.8h2.6V105z M408.9,99.6h-2.6v-2.8h2.6V99.6z M412.6,167.6H410v-2.8h2.6V167.6z M412.6,162.4H410
				v-2.8h2.6V162.4z M412.6,157H410v-2.8h2.6V157z M412.6,151.9H410v-2.8h2.6V151.9z M412.6,146.7H410v-2.8h2.6V146.7z M412.6,141.5
				H410v-2.8h2.6V141.5z M412.6,136.3H410v-3h2.6V136.3z M412.6,130.9H410v-2.8h2.6V130.9z M412.6,125.7H410V123h2.6V125.7z
				 M412.6,120.6H410v-2.8h2.6V120.6z M412.6,115.4H410v-2.8h2.6V115.4z M412.6,110.2H410v-2.8h2.6V110.2z M412.6,105H410v-2.8h2.6
				V105z M412.6,99.6H410v-2.8h2.6V99.6z M416.1,167.6h-2.6v-2.8h2.6V167.6z M416.1,162.4h-2.6v-2.8h2.6V162.4z M416.1,157h-2.6
				v-2.8h2.6V157z M416.1,151.9h-2.6v-2.8h2.6V151.9z M416.1,146.7h-2.6v-2.8h2.6V146.7z M416.1,141.5h-2.6v-2.8h2.6V141.5z
				 M416.1,136.3h-2.6v-3h2.6V136.3z M416.1,130.9h-2.6v-2.8h2.6V130.9z M416.1,125.7h-2.6V123h2.6V125.7z M416.1,120.6h-2.6v-2.8
				h2.6V120.6z M416.1,115.4h-2.6v-2.8h2.6V115.4z M416.1,110.2h-2.6v-2.8h2.6V110.2z M416.1,105h-2.6v-2.8h2.6V105z M416.1,99.6
				h-2.6v-2.8h2.6V99.6z M419.8,167.6h-2.6v-2.8h2.6V167.6z M419.8,162.4h-2.6v-2.8h2.6V162.4z M419.8,157h-2.6v-2.8h2.6V157z
				 M419.8,151.9h-2.6v-2.8h2.6V151.9z M419.8,146.7h-2.6v-2.8h2.6V146.7z M419.8,141.5h-2.6v-2.8h2.6V141.5z M419.8,136.3h-2.6v-3
				h2.6V136.3z M419.8,130.9h-2.6v-2.8h2.6V130.9z M419.8,125.7h-2.6V123h2.6V125.7z M419.8,120.6h-2.6v-2.8h2.6V120.6z
				 M419.8,115.4h-2.6v-2.8h2.6V115.4z M419.8,110.2h-2.6v-2.8h2.6V110.2z M419.8,105h-2.6v-2.8h2.6V105z M419.8,99.6h-2.6v-2.8h2.6
				V99.6z M423.3,167.6h-2.6v-2.8h2.6V167.6z M423.3,162.4h-2.6v-2.8h2.6V162.4z M423.3,157h-2.6v-2.8h2.6V157z M423.3,151.9h-2.6
				v-2.8h2.6V151.9z M423.3,146.7h-2.6v-2.8h2.6V146.7z M423.3,141.5h-2.6v-2.8h2.6V141.5z M423.3,136.3h-2.6v-3h2.6V136.3z
				 M423.3,130.9h-2.6v-2.8h2.6V130.9z M423.3,125.7h-2.6V123h2.6V125.7z M423.3,120.6h-2.6v-2.8h2.6V120.6z M423.3,115.4h-2.6v-2.8
				h2.6V115.4z M423.3,110.2h-2.6v-2.8h2.6V110.2z M423.3,105h-2.6v-2.8h2.6V105z M423.3,99.6h-2.6v-2.8h2.6V99.6z M428.7,167.2
				h-1.9v-2h1.9V167.2z M428.7,163.5h-1.9v-2h1.9V163.5z M428.7,159.8h-1.9v-2h1.9V159.8z M428.7,156.3h-1.9v-2h1.9V156.3z
				 M428.7,152.6h-1.9v-2h1.9V152.6z M428.7,148.9h-1.9v-2h1.9V148.9z M428.7,145.2h-1.9v-2h1.9V145.2z M428.7,141.5h-1.9v-2h1.9
				V141.5z M428.7,137.8h-1.9v-2h1.9V137.8z M428.7,134.1h-1.9v-2h1.9V134.1z M428.7,130.6h-1.9v-2h1.9V130.6z M428.7,126.9h-1.9v-2
				h1.9V126.9z M428.7,123.1h-1.9v-2h1.9V123.1z M428.7,119.4h-1.9v-2h1.9V119.4z M431.3,167.2h-1.9v-2h1.9V167.2z M431.3,163.5
				h-1.9v-2h1.9V163.5z M431.3,159.8h-1.9v-2h1.9V159.8z M431.3,156.3h-1.9v-2h1.9V156.3z M431.3,152.6h-1.9v-2h1.9V152.6z
				 M431.3,148.9h-1.9v-2h1.9V148.9z M431.3,145.2h-1.9v-2h1.9V145.2z M431.3,141.5h-1.9v-2h1.9V141.5z M431.3,137.8h-1.9v-2h1.9
				V137.8z M431.3,134.1h-1.9v-2h1.9V134.1z M431.3,130.6h-1.9v-2h1.9V130.6z M431.3,126.9h-1.9v-2h1.9V126.9z M431.3,123.1h-1.9v-2
				h1.9V123.1z M431.3,119.4h-1.9v-2h1.9V119.4z M433.9,167.2H432v-2h1.9V167.2z M433.9,163.5H432v-2h1.9V163.5z M433.9,159.8H432
				v-2h1.9V159.8z M433.9,156.3H432v-2h1.9V156.3z M433.9,152.6H432v-2h1.9V152.6z M433.9,148.9H432v-2h1.9V148.9z M433.9,145.2H432
				v-2h1.9V145.2z M433.9,141.5H432v-2h1.9V141.5z M433.9,137.8H432v-2h1.9V137.8z M433.9,134.1H432v-2h1.9V134.1z M433.9,130.6H432
				v-2h1.9V130.6z M433.9,126.9H432v-2h1.9V126.9z M433.9,123.1H432v-2h1.9V123.1z M433.9,119.4H432v-2h1.9V119.4z M436.3,167.2
				h-1.9v-2h1.9V167.2z M436.3,163.5h-1.9v-2h1.9V163.5z M436.3,159.8h-1.9v-2h1.9V159.8z M436.3,156.3h-1.9v-2h1.9V156.3z
				 M436.3,152.6h-1.9v-2h1.9V152.6z M436.3,148.9h-1.9v-2h1.9V148.9z M436.3,145.2h-1.9v-2h1.9V145.2z M436.3,141.5h-1.9v-2h1.9
				V141.5z M436.3,137.8h-1.9v-2h1.9V137.8z M436.3,134.1h-1.9v-2h1.9V134.1z M436.3,130.6h-1.9v-2h1.9V130.6z M436.3,126.9h-1.9v-2
				h1.9V126.9z M436.3,123.1h-1.9v-2h1.9V123.1z M436.3,119.4h-1.9v-2h1.9V119.4z M438.9,167.2H437v-2h1.9V167.2z M438.9,163.5H437
				v-2h1.9V163.5z M438.9,159.8H437v-2h1.9V159.8z M438.9,156.3H437v-2h1.9V156.3z M438.9,152.6H437v-2h1.9V152.6z M438.9,148.9H437
				v-2h1.9V148.9z M438.9,145.2H437v-2h1.9V145.2z M438.9,141.5H437v-2h1.9V141.5z M438.9,137.8H437v-2h1.9V137.8z M438.9,134.1H437
				v-2h1.9V134.1z M438.9,130.6H437v-2h1.9V130.6z M438.9,126.9H437v-2h1.9V126.9z M438.9,123.1H437v-2h1.9V123.1z M438.9,119.4H437
				v-2h1.9V119.4z M441.5,167.2h-1.9v-2h1.9V167.2z M441.5,163.5h-1.9v-2h1.9V163.5z M441.5,159.8h-1.9v-2h1.9V159.8z M441.5,156.3
				h-1.9v-2h1.9V156.3z M441.5,152.6h-1.9v-2h1.9V152.6z M441.5,148.9h-1.9v-2h1.9V148.9z M441.5,145.2h-1.9v-2h1.9V145.2z
				 M441.5,141.5h-1.9v-2h1.9V141.5z M441.5,137.8h-1.9v-2h1.9V137.8z M441.5,134.1h-1.9v-2h1.9V134.1z M441.5,130.6h-1.9v-2h1.9
				V130.6z M441.5,126.9h-1.9v-2h1.9V126.9z M441.5,123.1h-1.9v-2h1.9V123.1z M441.5,119.4h-1.9v-2h1.9V119.4z M450.2,173.3h-1.1
				v-1.1h1.1V173.3z M450.2,171.3h-1.1v-1.1h1.1V171.3z M450.2,169.1h-1.1V168h1.1V169.1z M450.2,167h-1.1v-1.1h1.1V167z
				 M450.2,164.8h-1.1v-1.1h1.1V164.8z M450.2,162.8h-1.1v-1.1h1.1V162.8z M450.2,160.6h-1.1v-1.1h1.1V160.6z M450.2,158.5h-1.1
				v-1.1h1.1V158.5z M450.2,156.3h-1.1v-1.1h1.1V156.3z M450.2,154.3h-1.1v-1.1h1.1V154.3z M450.2,152h-1.1v-1.1h1.1V152z
				 M450.2,150h-1.1v-1.1h1.1V150z M450.2,147.8h-1.1v-1.1h1.1V147.8z M450.2,145.7h-1.1v-1.3h1.1V145.7z M451.7,173.3h-1.1v-1.1
				h1.1V173.3z M451.7,171.3h-1.1v-1.1h1.1V171.3z M451.7,169.1h-1.1V168h1.1V169.1z M451.7,167h-1.1v-1.1h1.1V167z M451.7,164.8
				h-1.1v-1.1h1.1V164.8z M451.7,162.8h-1.1v-1.1h1.1V162.8z M451.7,160.6h-1.1v-1.1h1.1V160.6z M451.7,158.5h-1.1v-1.1h1.1V158.5z
				 M451.7,156.3h-1.1v-1.1h1.1V156.3z M451.7,154.3h-1.1v-1.1h1.1V154.3z M451.7,152h-1.1v-1.1h1.1V152z M451.7,150h-1.1v-1.1h1.1
				V150z M451.7,147.8h-1.1v-1.1h1.1V147.8z M451.7,145.7h-1.1v-1.3h1.1V145.7z M453.1,173.3H452v-1.1h1.1V173.3z M453.1,171.3H452
				v-1.1h1.1V171.3z M453.1,169.1H452V168h1.1V169.1z M453.1,167H452v-1.1h1.1V167z M453.1,164.8H452v-1.1h1.1V164.8z M453.1,162.8
				H452v-1.1h1.1V162.8z M453.1,160.6H452v-1.1h1.1V160.6z M453.1,158.5H452v-1.1h1.1V158.5z M453.1,156.3H452v-1.1h1.1V156.3z
				 M453.1,154.3H452v-1.1h1.1V154.3z M453.1,152H452v-1.1h1.1V152z M453.1,150H452v-1.1h1.1V150z M453.1,147.8H452v-1.1h1.1V147.8z
				 M453.1,145.7H452v-1.3h1.1V145.7z M454.6,173.3h-1.1v-1.1h1.1V173.3z M454.6,171.3h-1.1v-1.1h1.1V171.3z M454.6,169.1h-1.1V168
				h1.1V169.1z M454.6,167h-1.1v-1.1h1.1V167z M454.6,164.8h-1.1v-1.1h1.1V164.8z M454.6,162.8h-1.1v-1.1h1.1V162.8z M454.6,160.6
				h-1.1v-1.1h1.1V160.6z M454.6,158.5h-1.1v-1.1h1.1V158.5z M454.6,156.3h-1.1v-1.1h1.1V156.3z M454.6,154.3h-1.1v-1.1h1.1V154.3z
				 M454.6,152h-1.1v-1.1h1.1V152z M454.6,150h-1.1v-1.1h1.1V150z M454.6,147.8h-1.1v-1.1h1.1V147.8z M454.6,145.7h-1.1v-1.3h1.1
				V145.7z M456.1,173.3H455v-1.1h1.1V173.3z M456.1,171.3H455v-1.1h1.1V171.3z M456.1,169.1H455V168h1.1V169.1z M456.1,167H455
				v-1.1h1.1V167z M456.1,164.8H455v-1.1h1.1V164.8z M456.1,162.8H455v-1.1h1.1V162.8z M456.1,160.6H455v-1.1h1.1V160.6z
				 M456.1,158.5H455v-1.1h1.1V158.5z M456.1,156.3H455v-1.1h1.1V156.3z M456.1,154.3H455v-1.1h1.1V154.3z M456.1,152H455v-1.1h1.1
				V152z M456.1,150H455v-1.1h1.1V150z M456.1,147.8H455v-1.1h1.1V147.8z M456.1,145.7H455v-1.3h1.1V145.7z M457.6,173.3h-1.1v-1.1
				h1.1V173.3z M457.6,171.3h-1.1v-1.1h1.1V171.3z M457.6,169.1h-1.1V168h1.1V169.1z M457.6,167h-1.1v-1.1h1.1V167z M457.6,164.8
				h-1.1v-1.1h1.1V164.8z M457.6,162.8h-1.1v-1.1h1.1V162.8z M457.6,160.6h-1.1v-1.1h1.1V160.6z M457.6,158.5h-1.1v-1.1h1.1V158.5z
				 M457.6,156.3h-1.1v-1.1h1.1V156.3z M457.6,154.3h-1.1v-1.1h1.1V154.3z M457.6,152h-1.1v-1.1h1.1V152z M457.6,150h-1.1v-1.1h1.1
				V150z M457.6,147.8h-1.1v-1.1h1.1V147.8z M457.6,145.7h-1.1v-1.3h1.1V145.7z M170.4,147h5.6v-5.9h-5.6V147z M170.4,174.1h5.6
				v-5.9h-5.6V174.1z M170.4,160.6h5.6v-5.9h-5.6V160.6z M170.4,167.4h5.6v-5.9h-5.6V167.4z M150.7,180.4h5.7v-5.6h-5.7V180.4z
				 M144.4,147h5.6v-5.9h-5.6V147z M144.4,140.4h5.6v-6.1h-5.6V140.4z M157.2,160.6h5.7v-5.9h-5.7V160.6z M106.1,145h2v-2h2.4v2h1.7
				v-2h2.4v2h1.7v-2h2.2v2h1.9v-2h2.4v2h2v-4.1h-18.5v4.1H106.1z M125.6,180.4h18v-15.9h-18V180.4z M144.4,160.6h5.6v-5.9h-5.6
				V160.6z M144.4,180.4h5.6v-5.6h-5.6v-0.7h5.4v-5.9h-5.6v12.2H144.4z M150.7,174.1h5.7v-5.9h-5.7V174.1z M144.4,167.4h5.6v-5.9
				h-5.6V167.4z M144.4,153.9h5.6V148h-5.6V153.9z M150.7,140.4h5.7v-6.1h-5.7V140.4z M157.2,174.1h5.7v-5.9h-5.7V174.1z
				 M157.2,180.4h5.7v-5.6h-5.7V180.4z M157.2,167.4h5.7v-5.9h-5.7V167.4z M150.7,167.4h5.7v-5.9h-5.7V167.4z M150.7,160.6h5.7v-5.9
				h-5.7V160.6z M150.7,153.9h5.7V148h-5.7V153.9z M150.7,147h5.7v-5.9h-5.7V147z"/>
		</g>
	</g>
	<g id="Underline">
		<g>
			<rect x="186.7" y="215.6" class="st3" width="313.3" height="0.9"/>
		</g>
	</g>
</g>
<text id="email" transform="matrix(1 0 0 1 319.2592 244.8877)" class="st0 st4 st5">johndoe@email.com</text>
<text id="contact" transform="matrix(1 0 0 1 188.1478 244.8877)" class="st0 st4 st6">9876543210</text>
<text id="desig" transform="matrix(1 0 0 1 60.271 248.8877)" class="st0 st4 st5">designation</text>
<text id="name" transform="matrix(1 0 0 1 23.3232 232.2217)" class="st0 st4 st7">John Doe</text>
<text id="cname" transform="matrix(1 0 0 1 284.9951 41.4004)" class="st4 st8">Company Name</text>
</svg>
