<?xml version="1.0" encoding="utf-8"?>
<!-- Generator: Adobe Illustrator 19.2.0, SVG Export Plug-In . SVG Version: 6.00 Build 0)  -->
<svg version="1.1" id="header" xmlns="http://www.w3.org/2000/svg" xmlns:xlink="http://www.w3.org/1999/xlink" x="0px" y="0px"
	 viewBox="0 0 500 150" style="enable-background:new 0 0 500 150;" xml:space="preserve">
<style type="text/css">
	.st0{fill:#42A5F5;}
	.st1{fill:#272727;}
</style>
<path id="accent" class="st0" d="M9.9,1.2H0v66.7c0,0.4,0,0.9,0.1,1.3l0,0h9.8h105.2c5.5,0,12.6-3.2,15.8-7.1l4.6-5.5l4.6-5.5
	c3.3-3.9,10.4-7.1,15.8-7.1H490h9.9V1.2H490C490,1.2,9.9,1.2,9.9,1.2z"/>
<path class="st1" d="M250.8,52.1l4.6,5.5l4.6,5.5c3.3,3.9,10.4,7.2,15.8,7.2H500V18c0-6,0-11.9,0-17.9c-6.6,0-13.2,0-19.8,0H19.8
	C13.2,0,6.6,0,0,0c0,6,0,11.9,0,17.9v26.9h234.9C240.4,44.8,247.5,48.1,250.8,52.1z"/>
</svg>
