<?xml version="1.0" encoding="utf-8"?>
<!-- Generator: Adobe Illustrator 19.2.0, SVG Export Plug-In . SVG Version: 6.00 Build 0)  -->
<svg version="1.1" id="header" xmlns="http://www.w3.org/2000/svg" xmlns:xlink="http://www.w3.org/1999/xlink" x="0px" y="0px"
	 viewBox="0 0 500 150" style="enable-background:new 0 0 500 150;" xml:space="preserve">
<style type="text/css">
	.st0{fill:#1D1D1D;}
	.st1{fill:#F1F2F2;}
	.st2{fill:#42A5F5;}
</style>
<g>
	<path class="st0" d="M89.6,120.1L0,6.8v4.3l58.7,112.1c7.7,9.7,21.9,11.4,31.6,3.7l3.5-2.8C92.3,123,90.9,121.7,89.6,120.1z"/>
	<polygon class="st1" points="500,73.1 500,31.3 232.7,31.3 165,73.1 	"/>
	<path class="st2" id="accent" d="M500,31.3v-6H245.6l32-25.3H0v6.8l89.6,113.3c1.2,1.6,2.6,2.9,4.2,4c8,6,19.2,6.1,27.4-0.3l56.5-44.7H500v-6
		H185.3l52.8-41.8H500z"/>
</g>
</svg>
