<?xml version="1.0" encoding="utf-8"?>
<!-- Generator: Adobe Illustrator 19.2.0, SVG Export Plug-In . SVG Version: 6.00 Build 0)  -->
<svg version="1.1" id="header" xmlns="http://www.w3.org/2000/svg" xmlns:xlink="http://www.w3.org/1999/xlink" x="0px" y="0px"
	 viewBox="0 0 500 150" style="enable-background:new 0 0 500 300;" xml:space="preserve">
<style type="text/css">
	.st0{opacity:0.6;}
	.st1{opacity:0;fill-rule:evenodd;clip-rule:evenodd;fill:#FFFFFF;}
	.st2{opacity:6.250000e-002;fill-rule:evenodd;clip-rule:evenodd;fill:#E8E6E6;}
	.st3{opacity:0.125;fill-rule:evenodd;clip-rule:evenodd;fill:#D7D5D5;}
	.st4{opacity:0.1875;fill-rule:evenodd;clip-rule:evenodd;fill:#C8C5C5;}
	.st5{opacity:0.25;fill-rule:evenodd;clip-rule:evenodd;fill:#BAB7B6;}
	.st6{opacity:0.3125;fill-rule:evenodd;clip-rule:evenodd;fill:#ACA9A8;}
	.st7{opacity:0.375;fill-rule:evenodd;clip-rule:evenodd;fill:#9F9C9B;}
	.st8{opacity:0.4375;fill-rule:evenodd;clip-rule:evenodd;fill:#938F8F;}
	.st9{opacity:0.5;fill-rule:evenodd;clip-rule:evenodd;fill:#878383;}
	.st10{opacity:0.5625;fill-rule:evenodd;clip-rule:evenodd;fill:#7C7878;}
	.st11{opacity:0.625;fill-rule:evenodd;clip-rule:evenodd;fill:#716D6D;}
	.st12{opacity:0.6875;fill-rule:evenodd;clip-rule:evenodd;fill:#676463;}
	.st13{opacity:0.75;fill-rule:evenodd;clip-rule:evenodd;fill:#5D5A5A;}
	.st14{opacity:0.8125;fill-rule:evenodd;clip-rule:evenodd;fill:#545251;}
	.st15{opacity:0.875;fill-rule:evenodd;clip-rule:evenodd;fill:#4B4A49;}
	.st16{opacity:0.9375;fill-rule:evenodd;clip-rule:evenodd;fill:#434242;}
	.st17{fill-rule:evenodd;clip-rule:evenodd;fill:#3A3B3B;}
	.st18{fill:#42a5f5;}
	.st19{fill-rule:evenodd;clip-rule:evenodd;fill:#FFFFFF;}
</style>
<g>
	<g class="st0">
		<path class="st1" d="M500,9.6V10C333.9,84.3,138.2,76.1,0,55V9.6H500z"/>
		<path class="st2" d="M500,9v0.3C333.9,83.7,138.2,75.5,0,54.4V9H500z"/>
		<path class="st3" d="M500,8.4v0.3C333.9,83.1,138.2,74.9,0,53.8V8.4H500z"/>
		<path class="st4" d="M500,7.8v0.3C333.9,82.5,138.2,74.3,0,53.2V7.8H500z"/>
		<path class="st5" d="M500,7.2v0.3C333.9,81.9,138.2,73.7,0,52.6V7.2H500z"/>
		<path class="st6" d="M500,6.6v0.3C333.9,81.3,138.2,73.1,0,52V6.6H500z"/>
		<path class="st7" d="M500,6v0.3C333.9,80.7,138.2,72.5,0,51.4V6H500z"/>
		<path class="st8" d="M500,5.4v0.3C333.9,80.1,138.2,71.9,0,50.8V5.4H500z"/>
		<path class="st9" d="M500,4.8v0.3C333.9,79.5,138.2,71.3,0,50.2V4.8H500z"/>
		<path class="st10" d="M500,4.2v0.3C333.9,78.9,138.2,70.7,0,49.6V4.2H500z"/>
		<path class="st11" d="M500,3.6v0.3C333.9,78.3,138.2,70.1,0,49V3.6H500z"/>
		<path class="st12" d="M500,3v0.3C333.9,77.7,138.2,69.5,0,48.4V3H500z"/>
		<path class="st13" d="M500,2.4v0.3C333.9,77.1,138.2,68.9,0,47.8V2.4H500z"/>
		<path class="st14" d="M500,1.8v0.3C333.9,76.5,138.2,68.3,0,47.2V1.8H500z"/>
		<path class="st15" d="M500,1.2v0.3C333.9,75.9,138.2,67.7,0,46.6V1.2H500z"/>
		<path class="st16" d="M500,0.6v0.3C333.9,75.3,138.2,67.1,0,46V0.6H500z"/>
		<path class="st17" d="M500,0v0.3C333.9,74.7,138.2,66.5,0,45.4V0H500z"/>
	</g>
	<path class="st18" id="accent" d="M0,0v45.4C138.2,66.5,333.9,74.7,500,0.3V0H0z"/>
	<g>
		<path class="st19" d="M0,44.7v0.7C138.2,66.5,333.9,74.7,500,0.3V0h-8.3C327.4,70.5,135.9,65.4,0,44.7z"/>
	</g>
</g>
</svg>
